<svg width="367" height="92" viewBox="0 0 367 92" fill="none" xmlns="http://www.w3.org/2000/svg">
<g clip-path="url(#clip0_4003_4669)">
<path d="M54.0838 52.095C53.8677 58.6909 53.0184 60.008 49.3096 60.008V68.2981H50.6916C59.9335 68.2981 62.1548 63.5221 62.4966 52.9094L62.8735 41.1656H71.5375V68.2981H80.5784V32.9409H54.712L54.0838 52.095Z" fill="#CFA2FF"/>
<path d="M103.052 43.6794H96.5243V32.936H87.4834V68.2982H103.178C113.038 68.2982 116.551 61.8934 116.551 55.8606C116.551 48.0733 111.651 43.6744 103.052 43.6744M102.364 60.5059H96.5243V51.5271H102.364C105.505 51.5271 107.384 52.9096 107.384 55.8606C107.384 59.063 105.565 60.5059 102.364 60.5059Z" fill="#CFA2FF"/>
<path d="M145.996 32.1215V18.9951H136.955V32.1215C126.597 33.0012 119.627 40.3512 119.627 50.5868C119.627 60.8224 126.597 68.2377 136.955 69.1175V82.4349H145.996V69.1175C156.354 68.3031 163.324 60.8878 163.324 50.5868C163.324 40.2858 156.354 32.9359 145.996 32.1215ZM136.955 60.5761C131.934 59.8874 128.794 56.1169 128.794 50.5918C128.794 45.0668 131.934 41.2963 136.955 40.6076V60.5811V60.5761ZM145.996 60.5761V40.6026C151.016 41.2963 154.157 45.0618 154.157 50.5868C154.157 56.1118 151.016 59.8823 145.996 60.5711" fill="#CFA2FF"/>
<path d="M197.231 57.4339V45.5644C197.231 36.8973 191.708 31.4326 182.416 31.4326C173.124 31.4326 167.726 37.214 167.284 43.2418H176.45C176.762 41.9246 178.144 39.6623 182.416 39.6623C185.934 39.6623 188.19 41.2962 188.19 45.5644H179.209C171.174 45.5644 166.399 49.7723 166.399 56.8055C166.399 63.8387 171.621 69.1778 179.144 69.1778C184.662 69.1778 187.728 66.5686 189.065 64.5928C190.256 66.9808 192.894 68.298 196.347 68.298H199.487V60.1336C197.854 60.1336 197.226 59.3795 197.226 57.4339M188.185 55.1113C188.185 59.1935 185.295 61.5161 181.531 61.5161C178.265 61.5161 175.692 60.3246 175.692 56.8055C175.692 53.2864 178.516 52.7887 180.963 52.7887H188.185V55.1113Z" fill="#CFA2FF"/>
<path d="M235.973 37.9632H225.867V27.9789H249.286V18.9951H216.389V68.2981H235.978C246.838 68.2981 253.055 62.8987 253.055 52.9748C253.055 43.6189 246.838 37.9632 235.978 37.9632M235.541 59.3796H225.872V46.565H235.541C240.561 46.565 243.391 48.8876 243.391 52.9698C243.391 57.052 240.566 59.3746 235.541 59.3746" fill="#CFA2FF"/>
<path d="M287.645 57.4339V45.5644C287.645 36.8973 282.122 31.4326 272.83 31.4326C263.538 31.4326 258.14 37.214 257.698 43.2418H266.865C267.176 41.9246 268.558 39.6623 272.83 39.6623C276.348 39.6623 278.604 41.2962 278.604 45.5644H269.624C261.588 45.5644 256.813 49.7723 256.813 56.8055C256.813 63.8387 262.035 69.1778 269.558 69.1778C275.076 69.1778 278.142 66.5686 279.479 64.5928C280.67 66.9808 283.308 68.298 286.761 68.298H289.902V60.1336C288.268 60.1336 287.64 59.3795 287.64 57.4339M278.599 55.1113C278.599 59.1935 275.709 61.5161 271.945 61.5161C268.679 61.5161 266.106 60.3246 266.106 56.8055C266.106 53.2864 268.93 52.7887 271.377 52.7887H278.599V55.1113Z" fill="#CFA2FF"/>
<path d="M48.7469 81.9521H0.401367V92.0018H48.7469V81.9521Z" fill="#CFA2FF"/>
<path d="M33.3636 25.7619C31.9816 21.6495 30.3935 18.4019 24.9509 18.4019C19.5082 18.4019 17.8146 21.6344 16.3672 25.7619L1.40625 68.298H11.3266L14.7792 58.1881H33.8661L37.0674 68.298H47.616L33.3636 25.7619ZM17.6689 49.6467L24.4483 29.4871H24.6996L31.1021 49.6467H17.6638H17.6689Z" fill="#CFA2FF"/>
<path d="M354.003 32.9404L341.51 46.9466V32.9404H332.469V68.2976H341.51V53.4167L354.882 68.2976H366.562L350.113 49.7719L365.371 32.9404H354.003Z" fill="#CFA2FF"/>
<path d="M316.528 46.1271H304.034V32.9404H294.988V68.2976H304.034V54.3568H316.528V68.2976H325.569V32.9404H316.528V46.1271Z" fill="#CFA2FF"/>
</g>
<defs>
<clipPath id="clip0_4003_4669">
<rect width="366.16" height="92" fill="white" transform="translate(0.400391)"/>
</clipPath>
</defs>
</svg>
