<svg width="400" height="80" viewBox="0 0 400 80" fill="none" xmlns="http://www.w3.org/2000/svg">
<path d="M212.781 39.9948C212.781 22.0189 227.56 7.44023 245.075 7.44023C262.605 7.44023 277.369 22.0189 277.369 39.9948C277.369 57.9848 262.605 72.5525 245.075 72.5525C227.559 72.5525 212.781 57.9848 212.781 39.9948ZM245.075 3.92969C225.662 3.92969 208.976 20.0776 208.976 39.9948C208.976 59.9151 225.662 76.0638 245.075 76.0638C264.503 76.0638 281.196 59.9151 281.196 39.9948C281.196 20.0776 264.503 3.92969 245.075 3.92969Z" fill="#CFA2FF"/>
<path d="M146.538 48.5294L137.533 68.4615L128.551 48.5294L108.568 5.49512H104.584L137.336 76.06H137.705L170.458 5.49512H166.489L146.538 48.5294Z" fill="#CFA2FF"/>
<path d="M336.513 12.7002L395.102 76.0599H395.471V5.495H391.802V39.9948L391.998 67.2737L333.401 3.92969H333.04V74.1013H336.709V39.9948L336.513 12.7002Z" fill="#CFA2FF"/>
<path d="M18.8533 51.3694L28.2766 31.0542L37.2512 11.0984L46.3681 31.0967L55.6994 51.4009L18.8533 51.3694ZM37.4642 3.93262H37.0642L4.32935 74.0995H8.31964L17.4459 54.4151L57.0754 54.3994L66.2252 74.0995H70.1974L37.4642 3.93262Z" fill="#CFA2FF"/>
</svg>
