<svg width="399" height="92" viewBox="0 0 399 92" fill="none" xmlns="http://www.w3.org/2000/svg">
<path d="M212.781 45.9948C212.781 28.0189 227.56 13.4402 245.075 13.4402C262.605 13.4402 277.369 28.0189 277.369 45.9948C277.369 63.9848 262.605 78.5525 245.075 78.5525C227.559 78.5525 212.781 63.9848 212.781 45.9948ZM245.075 9.92969C225.662 9.92969 208.976 26.0776 208.976 45.9948C208.976 65.9151 225.662 82.0638 245.075 82.0638C264.503 82.0638 281.196 65.9151 281.196 45.9948C281.196 26.0776 264.503 9.92969 245.075 9.92969Z" fill="#CFA2FF"/>
<path d="M146.538 54.5294L137.533 74.4615L128.551 54.5294L108.568 11.4951H104.584L137.336 82.06H137.705L170.458 11.4951H166.489L146.538 54.5294Z" fill="#CFA2FF"/>
<path d="M336.513 18.7002L395.102 82.0599H395.471V11.495H391.802V45.9948L391.998 73.2737L333.401 9.92969H333.04V80.1013H336.709V45.9948L336.513 18.7002Z" fill="#CFA2FF"/>
<path d="M18.8533 57.3694L28.2766 37.0542L37.2512 17.0984L46.3681 37.0967L55.6994 57.4009L18.8533 57.3694ZM37.4642 9.93262H37.0642L4.32935 80.0995H8.31964L17.4459 60.4151L57.0754 60.3994L66.2252 80.0995H70.1974L37.4642 9.93262Z" fill="#CFA2FF"/>
</svg>
