<svg width="168" height="100" viewBox="0 0 168 100" fill="none" xmlns="http://www.w3.org/2000/svg">
<g clip-path="url(#clip0_4003_4783)">
<path d="M51.7083 52.1836H62.2435V55.6342H57.2318V79.8793H51.7083V52.1836Z" fill="#CFA2FF"/>
<path d="M68.4894 69.4821L69.436 55.6342H69.7531L70.6997 69.4821H68.4894ZM62.3726 79.8793H67.7806L68.2924 72.524H70.8968L71.4108 79.8793H76.8166L73.9359 52.1836H65.2532L62.3726 79.8793Z" fill="#CFA2FF"/>
<path d="M84.7272 70.1858V75.4071C84.7272 76.1109 85.2707 76.3152 85.5878 76.3152C86.1086 76.3152 86.471 75.8838 86.471 75.4071V68.9599C86.471 68.0973 86.3125 67.1438 84.2516 67.1438H82.0096V64.1018H84.3422C85.9048 64.1018 86.471 63.7386 86.471 62.036V56.5423C86.471 56.0655 86.1086 55.6342 85.5878 55.6342C85.2707 55.6342 84.7272 55.8158 84.7272 56.5423V61.0598H79.2014V57.1325C79.2014 55.2029 79.4279 52.1836 83.3004 52.1836H87.8751C91.7477 52.1836 91.9968 55.2029 91.9968 57.1325V61.5593C91.9968 64.5785 89.8906 65.3958 88.2374 65.3277V65.6001C91.9515 65.5093 91.9968 68.3697 91.9968 69.3459V74.9304C91.9968 76.8827 91.7477 79.8793 87.8751 79.8793H83.3004C79.4279 79.8793 79.2014 76.8827 79.2014 74.9304V70.1858H84.7272Z" fill="#CFA2FF"/>
<path d="M95.6201 52.1836H108.415V79.8793H102.89V55.6342H101.146V79.8793H95.6201V52.1836Z" fill="#CFA2FF"/>
<path d="M117.565 67.4162V55.6342H118.29C118.878 55.6342 119.309 56.1336 119.309 57.019V66.0314C119.309 66.9168 118.878 67.4162 118.29 67.4162H117.565ZM112.039 79.8793H117.565V70.4582H120.735C124.585 70.4582 124.834 67.4616 124.834 65.5093V57.1325C124.834 55.2029 124.585 52.1836 120.735 52.1836H112.039V79.8793Z" fill="#CFA2FF"/>
<path d="M135.727 75.4071C135.727 75.8838 135.365 76.3152 134.844 76.3152C134.527 76.3152 133.984 76.1109 133.984 75.4071V56.5423C133.984 55.8158 134.527 55.6342 134.844 55.6342C135.365 55.6342 135.727 56.0655 135.727 56.5423V75.4071ZM128.458 74.9304C128.458 76.8827 128.707 79.8793 132.557 79.8793H137.154C141.004 79.8793 141.253 76.8827 141.253 74.9304V57.1325C141.253 55.2029 141.004 52.1836 137.154 52.1836H132.557C128.707 52.1836 128.458 55.2029 128.458 57.1325V74.9304Z" fill="#CFA2FF"/>
<path d="M159.235 52.1836H166.436V79.8793H160.911V62.5127H160.707L157.853 79.8793H153.437L150.606 62.5127H150.402V79.8793H144.877V52.1836H152.056L155.657 71.6614L159.235 52.1836Z" fill="#CFA2FF"/>
<path d="M44.5474 14.317C42.8556 6.89363 38.6162 0.855066 38.0319 -0.121094C37.1079 1.26369 33.7268 6.59851 32.0079 12.5009C30.1305 19.107 29.8542 24.9639 30.5019 30.7074C31.1451 36.4735 33.575 42.3986 33.575 42.3986C34.8659 45.486 36.7999 48.8231 38.0591 50.4576C39.9048 48.0512 44.1465 40.8776 45.4691 31.5246C46.2051 26.3033 46.2368 21.7403 44.5474 14.317ZM38.0319 48.5961C37.2008 47.0297 35.9099 44.0558 35.7876 39.4247C35.7559 34.9752 37.5382 31.1387 38.0591 30.3442C38.5233 31.1387 40.0588 34.4758 40.2422 39.0388C40.3668 43.4883 38.8902 47.007 38.0319 48.5961ZM44.0559 26.9162C43.9925 29.7539 43.6551 32.7505 43.2248 34.5439C43.3788 31.4565 43.0097 27.1206 42.3031 23.7154C41.5965 20.3328 39.5968 14.6575 38.0002 12.0468C36.5259 14.544 34.7097 19.4475 33.7585 23.6927C32.8028 27.9378 32.7756 33.091 32.7756 34.6347C32.522 33.3407 31.8879 28.687 32.0668 24.0332C32.2163 20.1966 33.1131 16.2239 33.6045 14.4078C35.4796 8.34653 37.6016 4.46458 38.0002 3.85164C38.3988 4.46458 41.0711 9.25457 42.4571 14.2716C43.8363 19.2886 44.1148 24.1013 44.0559 26.9162Z" fill="#CFA2FF"/>
<path d="M40.9013 52.1825H28.0403V60.8317C28.0516 60.8317 28.0607 60.809 28.072 60.809C31.1021 57.7671 36.0164 57.7671 39.0488 60.809C42.0789 63.8283 42.0789 68.7545 39.0488 71.7965C39.0353 71.8192 39.0217 71.8192 39.0081 71.8419C38.9922 71.8419 38.9764 71.8646 38.9628 71.8873C35.9394 74.8839 31.9899 76.3822 28.0403 76.3822C24.0726 76.3822 20.1049 74.8839 17.0793 71.8419C11.7438 66.5071 11.1119 58.2211 15.1792 52.1825C15.7273 51.3652 16.3591 50.5934 17.0793 49.867C20.1049 46.825 24.0726 45.3267 28.0403 45.3267V24.5322C12.7946 24.5322 0.436279 36.9045 0.436279 52.1825C0.436279 67.4605 12.7946 79.8555 28.0403 79.8555C35.9893 79.8555 43.1501 76.473 48.1868 71.0928V52.1825H40.9013Z" fill="#CFA2FF"/>
</g>
<defs>
<clipPath id="clip0_4003_4783">
<rect width="167" height="100" fill="white" transform="translate(0.667969)"/>
</clipPath>
</defs>
</svg>
