<svg width="167" height="92" viewBox="0 0 167 92" fill="none" xmlns="http://www.w3.org/2000/svg">
<g clip-path="url(#clip0_4003_4783)">
<path d="M50.7083 55.1836H61.2435V58.6342H56.2318V82.8793H50.7083V55.1836Z" fill="#CFA2FF"/>
<path d="M67.4894 72.4821L68.436 58.6342H68.7531L69.6997 72.4821H67.4894ZM61.3726 82.8793H66.7806L67.2924 75.524H69.8968L70.4108 82.8793H75.8166L72.9359 55.1836H64.2532L61.3726 82.8793Z" fill="#CFA2FF"/>
<path d="M83.7272 73.1858V78.4071C83.7272 79.1109 84.2707 79.3152 84.5878 79.3152C85.1086 79.3152 85.471 78.8839 85.471 78.4071V71.9599C85.471 71.0973 85.3125 70.1438 83.2516 70.1438H81.0096V67.1018H83.3422C84.9048 67.1018 85.471 66.7386 85.471 65.036V59.5423C85.471 59.0655 85.1086 58.6342 84.5878 58.6342C84.2707 58.6342 83.7272 58.8158 83.7272 59.5423V64.0598H78.2014V60.1325C78.2014 58.2029 78.4279 55.1836 82.3004 55.1836H86.8751C90.7477 55.1836 90.9968 58.2029 90.9968 60.1325V64.5593C90.9968 67.5785 88.8906 68.3958 87.2374 68.3277V68.6001C90.9515 68.5093 90.9968 71.3697 90.9968 72.3459V77.9304C90.9968 79.8827 90.7477 82.8793 86.8751 82.8793H82.3004C78.4279 82.8793 78.2014 79.8827 78.2014 77.9304V73.1858H83.7272Z" fill="#CFA2FF"/>
<path d="M94.6201 55.1836H107.415V82.8793H101.89V58.6342H100.146V82.8793H94.6201V55.1836Z" fill="#CFA2FF"/>
<path d="M116.565 70.4162V58.6342H117.29C117.878 58.6342 118.309 59.1336 118.309 60.019V69.0314C118.309 69.9168 117.878 70.4162 117.29 70.4162H116.565ZM111.039 82.8793H116.565V73.4582H119.735C123.585 73.4582 123.834 70.4616 123.834 68.5093V60.1325C123.834 58.2029 123.585 55.1836 119.735 55.1836H111.039V82.8793Z" fill="#CFA2FF"/>
<path d="M134.727 78.4071C134.727 78.8839 134.365 79.3152 133.844 79.3152C133.527 79.3152 132.984 79.1109 132.984 78.4071V59.5423C132.984 58.8158 133.527 58.6342 133.844 58.6342C134.365 58.6342 134.727 59.0655 134.727 59.5423V78.4071ZM127.458 77.9304C127.458 79.8827 127.707 82.8793 131.557 82.8793H136.154C140.004 82.8793 140.253 79.8827 140.253 77.9304V60.1325C140.253 58.2029 140.004 55.1836 136.154 55.1836H131.557C127.707 55.1836 127.458 58.2029 127.458 60.1325V77.9304Z" fill="#CFA2FF"/>
<path d="M158.235 55.1836H165.436V82.8793H159.911V65.5127H159.707L156.853 82.8793H152.437L149.606 65.5127H149.402V82.8793H143.877V55.1836H151.056L154.657 74.6614L158.235 55.1836Z" fill="#CFA2FF"/>
<path d="M43.5474 17.317C41.8556 9.89363 37.6162 3.85507 37.0319 2.87891C36.1079 4.26369 32.7268 9.59851 31.0079 15.5009C29.1305 22.107 28.8542 27.9639 29.5019 33.7074C30.1451 39.4735 32.575 45.3986 32.575 45.3986C33.8659 48.486 35.7999 51.8231 37.0591 53.4576C38.9048 51.0512 43.1465 43.8776 44.4691 34.5246C45.2051 29.3033 45.2368 24.7403 43.5474 17.317ZM37.0319 51.5961C36.2008 50.0297 34.9099 47.0558 34.7876 42.4247C34.7559 37.9752 36.5382 34.1387 37.0591 33.3442C37.5233 34.1387 39.0588 37.4758 39.2422 42.0388C39.3668 46.4883 37.8902 50.007 37.0319 51.5961ZM43.0559 29.9162C42.9925 32.7539 42.6551 35.7505 42.2248 37.5439C42.3788 34.4565 42.0097 30.1206 41.3031 26.7154C40.5965 23.3328 38.5968 17.6575 37.0002 15.0468C35.5259 17.544 33.7097 22.4475 32.7585 26.6927C31.8028 30.9378 31.7756 36.091 31.7756 37.6347C31.522 36.3407 30.8879 31.687 31.0668 27.0332C31.2163 23.1966 32.1131 19.2239 32.6045 17.4078C34.4796 11.3465 36.6016 7.46458 37.0002 6.85164C37.3988 7.46458 40.0711 12.2546 41.4571 17.2716C42.8363 22.2886 43.1148 27.1013 43.0559 29.9162Z" fill="#CFA2FF"/>
<path d="M39.9013 55.1825H27.0403V63.8317C27.0516 63.8317 27.0607 63.809 27.072 63.809C30.1021 60.7671 35.0164 60.7671 38.0488 63.809C41.0789 66.8283 41.0789 71.7545 38.0488 74.7965C38.0353 74.8192 38.0217 74.8192 38.0081 74.8419C37.9922 74.8419 37.9764 74.8646 37.9628 74.8873C34.9394 77.8839 30.9899 79.3822 27.0403 79.3822C23.0726 79.3822 19.1049 77.8839 16.0793 74.8419C10.7438 69.5071 10.1119 61.2211 14.1792 55.1825C14.7273 54.3652 15.3591 53.5934 16.0793 52.867C19.1049 49.825 23.0726 48.3267 27.0403 48.3267V27.5322C11.7946 27.5322 -0.563721 39.9045 -0.563721 55.1825C-0.563721 70.4605 11.7946 82.8555 27.0403 82.8555C34.9893 82.8555 42.1501 79.473 47.1868 74.0928V55.1825H39.9013Z" fill="#CFA2FF"/>
</g>
<defs>
<clipPath id="clip0_4003_4783">
<rect width="167" height="92" fill="white"/>
</clipPath>
</defs>
</svg>
