<svg width="315" height="92" viewBox="0 0 315 92" fill="none" xmlns="http://www.w3.org/2000/svg">
<path fill-rule="evenodd" clip-rule="evenodd" d="M0.953369 46.215C0.953369 30.9687 31.9881 18.6094 70.2735 18.6094C108.558 18.6094 139.594 30.9687 139.594 46.215C139.594 61.4614 108.558 73.8206 70.2735 73.8206C31.9889 73.8206 0.953369 61.4622 0.953369 46.215ZM85.7345 48.6322C85.7251 48.5868 85.7021 48.5453 85.6685 48.5132C85.635 48.4811 85.5925 48.4598 85.5466 48.4522C83.5516 48.162 81.5478 47.9343 79.5384 47.7694C79.42 47.7489 79.3363 47.6397 79.4145 47.3812C85.8213 40.6695 88.2547 32.1293 85.0154 25.4475C85.019 25.4171 85.0286 25.3876 85.0437 25.3609C85.0587 25.3342 85.0789 25.3106 85.1031 25.2916C85.1273 25.2727 85.155 25.2586 85.1847 25.2503C85.2143 25.242 85.2453 25.2396 85.2759 25.2432C107.323 27.9056 123.42 36.2878 123.42 46.215C123.42 58.2851 99.6263 68.0701 70.2743 68.0701C40.9223 68.0701 17.1279 58.2859 17.1279 46.215C17.1279 35.7519 35.0112 27.005 58.8956 24.8621C59.0117 24.866 59.1096 24.9548 59.1159 25.1371L53.9301 53.5663C53.8332 54.0658 53.8484 54.5805 53.9746 55.0735C54.1009 55.5665 54.335 56.0256 54.6604 56.4179C54.9857 56.8103 55.3941 57.1262 55.8564 57.343C56.3187 57.5599 56.8234 57.6723 57.3344 57.6722L57.5199 57.6816C62.1452 57.4419 67.1155 56.0047 71.8103 53.3062C73.1407 52.5415 74.4212 51.6938 75.644 50.768C75.6791 50.7393 75.722 50.7216 75.7673 50.7173C75.8126 50.7129 75.8581 50.7221 75.8981 50.7437C77.4617 51.7801 78.3615 52.9934 78.3615 54.2916C78.3615 56.055 76.7008 57.6635 73.9691 58.8839C70.7952 60.3015 66.1754 61.1926 61.0315 61.1926C56.6722 61.1926 52.6893 60.5522 49.5992 59.4835C49.5693 59.4782 49.5386 59.4788 49.5089 59.4853C49.4793 59.4919 49.4512 59.5042 49.4263 59.5216C49.4015 59.539 49.3803 59.5611 49.364 59.5866C49.3478 59.6122 49.3368 59.6407 49.3316 59.6705L48.8912 62.0806C48.8837 62.138 48.8981 62.196 48.9316 62.2433C48.9651 62.2906 49.0152 62.3237 49.0719 62.336C55.3572 63.7921 62.5857 64.6203 70.279 64.6203C79.8494 64.6203 87.6099 61.5297 87.6099 57.7193C87.6099 56.2365 86.437 54.8637 84.4416 53.74C82.6933 52.8866 81.5922 51.7801 81.8621 51.0383C82.1423 50.269 83.8149 50.1456 85.8016 50.6784C85.9144 50.6934 86.0234 50.6258 86.0636 50.4246L85.7345 48.6322ZM70.2735 31.2319C70.2735 31.3812 70.2688 31.5297 70.2593 31.6751C70.5119 36.7412 67.3657 43.5189 61.6172 49.242C60.4761 50.38 59.2608 51.4418 57.9793 52.4206C57.9287 52.4528 57.8674 52.4638 57.8088 52.4512C57.6888 52.4261 57.6107 52.3121 57.632 52.1723L63.266 21.2961C63.263 21.239 63.2388 21.1851 63.1981 21.1447C63.1574 21.1044 63.1032 21.0805 63.0458 21.0776C31.9945 22.5314 7.88507 33.231 7.88507 46.215C7.88507 60.1907 35.8171 71.5198 70.2735 71.5198C104.731 71.5198 132.663 60.1907 132.663 46.215C132.663 32.2393 104.732 20.9102 70.2735 20.9102C69.1819 20.9102 68.0958 20.922 67.0066 20.9448C66.9549 20.945 66.9049 20.9624 66.8643 20.9941C66.8237 21.0259 66.7949 21.0702 66.7824 21.12L66.1233 24.723C66.1075 24.8197 66.1533 24.9116 66.2338 24.9595C67.4396 25.5104 68.4612 26.3943 69.1773 27.5061C69.8934 28.618 70.2738 29.9111 70.2735 31.2319ZM167.783 25.4475V59.2587H186.639V66.867H156.139V25.4475H167.783ZM213.342 50.0836L207.902 34.9991L202.464 50.0836H213.342ZM215.299 25.4656L231.109 66.856H218.998L215.516 57.082H200.288L196.807 66.856H187.089L202.752 25.4656H215.299ZM244.007 59.2352H249.228C252.346 59.2352 256.481 58.6937 259.163 55.1324C261.845 51.5735 261.919 47.4095 261.919 45.7207C261.919 43.5472 261.628 39.1443 258.511 36.0662C255.609 33.2915 251.838 33.0495 249.011 33.0495H244.007V59.2352ZM232.403 25.4475H249.445C254.377 25.4475 261.845 25.93 267.576 30.8178C272.217 34.7398 274.392 41.1355 274.392 46.083C274.392 49.7025 273.234 57.1237 266.851 62.1325C261.774 66.1142 256.046 66.8387 250.678 66.8387H232.404L232.403 25.4475ZM296.233 50.0647L290.795 34.981L285.356 50.0647H296.233ZM298.191 25.4475L314.001 66.8379H301.889L298.409 57.0632H283.18L279.698 66.8379H269.98L285.646 25.4467L298.191 25.4475Z" fill="#CFA2FF"/>
</svg>
