<svg width="315" height="56" viewBox="0 0 315 56" fill="none" xmlns="http://www.w3.org/2000/svg">
<path fill-rule="evenodd" clip-rule="evenodd" d="M0.953369 28.215C0.953369 12.9687 31.9882 0.609375 70.2735 0.609375C108.558 0.609375 139.594 12.9687 139.594 28.215C139.594 43.4614 108.558 55.8206 70.2735 55.8206C31.9889 55.8206 0.953369 43.4622 0.953369 28.215ZM85.7345 30.6322C85.7251 30.5868 85.7021 30.5453 85.6685 30.5132C85.635 30.4811 85.5925 30.4598 85.5466 30.4522C83.5516 30.162 81.5478 29.9343 79.5384 29.7694C79.42 29.7489 79.3363 29.6397 79.4145 29.3812C85.8213 22.6695 88.2547 14.1293 85.0154 7.44753C85.019 7.41708 85.0286 7.38764 85.0437 7.3609C85.0587 7.33415 85.0789 7.31062 85.1031 7.29165C85.1273 7.27267 85.155 7.25863 85.1847 7.25032C85.2143 7.24201 85.2453 7.2396 85.2759 7.24321C107.323 9.90555 123.42 18.2878 123.42 28.215C123.42 40.2851 99.6263 50.0701 70.2743 50.0701C40.9223 50.0701 17.1279 40.2859 17.1279 28.215C17.1279 17.7519 35.0112 9.00501 58.8956 6.86209C59.0117 6.86602 59.1095 6.95482 59.1159 7.13713L53.9301 35.5663C53.8332 36.0658 53.8484 36.5805 53.9746 37.0735C54.1009 37.5665 54.335 38.0256 54.6604 38.4179C54.9857 38.8103 55.3941 39.1262 55.8564 39.343C56.3187 39.5599 56.8234 39.6723 57.3344 39.6722L57.5199 39.6816C62.1452 39.4419 67.1155 38.0047 71.8103 35.3062C73.1407 34.5415 74.4212 33.6938 75.644 32.768C75.6791 32.7393 75.722 32.7216 75.7673 32.7173C75.8126 32.7129 75.8581 32.7221 75.8981 32.7437C77.4617 33.7801 78.3615 34.9934 78.3615 36.2916C78.3615 38.055 76.7008 39.6635 73.9691 40.8839C70.7952 42.3015 66.1754 43.1926 61.0315 43.1926C56.6722 43.1926 52.6893 42.5522 49.5992 41.4835C49.5693 41.4782 49.5386 41.4788 49.5089 41.4853C49.4793 41.4919 49.4512 41.5042 49.4263 41.5216C49.4015 41.539 49.3803 41.5611 49.364 41.5866C49.3478 41.6122 49.3368 41.6407 49.3316 41.6705L48.8912 44.0806C48.8837 44.138 48.8981 44.196 48.9316 44.2433C48.9651 44.2906 49.0152 44.3237 49.0719 44.336C55.3572 45.7921 62.5857 46.6203 70.279 46.6203C79.8494 46.6203 87.6099 43.5297 87.6099 39.7193C87.6099 38.2365 86.437 36.8637 84.4416 35.74C82.6933 34.8866 81.5922 33.7801 81.8621 33.0383C82.1423 32.269 83.8149 32.1456 85.8016 32.6784C85.9144 32.6934 86.0234 32.6258 86.0636 32.4246L85.7345 30.6322ZM70.2735 13.2319C70.2735 13.3812 70.2688 13.5297 70.2593 13.6751C70.5119 18.7412 67.3657 25.5189 61.6172 31.242C60.4761 32.38 59.2608 33.4418 57.9793 34.4206C57.9287 34.4528 57.8674 34.4638 57.8088 34.4512C57.6888 34.4261 57.6107 34.3121 57.632 34.1723L63.266 3.29607C63.263 3.23899 63.2388 3.18506 63.1981 3.14471C63.1574 3.10436 63.1032 3.08045 63.0458 3.07762C31.9945 4.53137 7.88507 15.231 7.88507 28.215C7.88507 42.1907 35.8171 53.5198 70.2735 53.5198C104.731 53.5198 132.663 42.1907 132.663 28.215C132.663 14.2393 104.732 2.91024 70.2735 2.91024C69.1819 2.91024 68.0958 2.92202 67.0066 2.94481C66.955 2.94504 66.9049 2.9624 66.8643 2.99413C66.8237 3.02587 66.7949 3.07018 66.7824 3.12005L66.1233 6.72301C66.1075 6.81966 66.1533 6.9116 66.2338 6.95954C67.4396 7.51041 68.4612 8.39428 69.1773 9.50613C69.8934 10.618 70.2738 11.9111 70.2735 13.2319ZM167.783 7.44753V41.2587H186.639V48.867H156.139V7.44753H167.783ZM213.342 32.0836L207.902 16.9991L202.464 32.0836H213.342ZM215.299 7.4656L231.109 48.856H218.998L215.516 39.082H200.288L196.807 48.856H187.089L202.752 7.4656H215.299ZM244.007 41.2352H249.228C252.346 41.2352 256.481 40.6937 259.163 37.1324C261.845 33.5735 261.919 29.4095 261.919 27.7207C261.919 25.5472 261.628 21.1443 258.511 18.0662C255.609 15.2915 251.838 15.0495 249.011 15.0495H244.007V41.2352ZM232.403 7.44753H249.445C254.377 7.44753 261.845 7.93001 267.576 12.8178C272.217 16.7398 274.392 23.1355 274.392 28.083C274.392 31.7025 273.234 39.1237 266.851 44.1325C261.774 48.1142 256.046 48.8387 250.678 48.8387H232.404L232.403 7.44753ZM296.233 32.0647L290.795 16.981L285.356 32.0647H296.233ZM298.192 7.44753L314.001 48.8379H301.889L298.409 39.0632H283.18L279.698 48.8379H269.98L285.646 7.44674L298.192 7.44753Z" fill="#CFA2FF"/>
</svg>
