<svg width="508" height="64" viewBox="0 0 508 64" fill="none" xmlns="http://www.w3.org/2000/svg">
<g clip-path="url(#clip0_4003_4757)">
<path d="M357.169 34.7672H372.703V38.3631H357.169V34.7672ZM98.7971 12.958L97.4086 49.0504V49.6772C97.4086 52.7325 98.3085 53.363 103.18 53.7079V55.3801C99.6341 55.1071 98.2384 55.037 96.295 55.037C94.3461 55.037 92.9558 55.1071 89.3401 55.3801V53.7079C94.206 53.363 94.9047 52.8044 95.043 49.0504L96.5033 14.9086V14.4973C96.5033 11.2929 95.528 10.5996 90.7339 10.3229V8.58065C93.4408 8.7908 94.4844 8.86086 96.4333 8.86086C98.6409 8.88087 100.848 8.76631 103.041 8.51781L115.97 43.6978L129.11 8.51781C132.244 8.79082 133.703 8.86086 135.79 8.86086C137.521 8.86086 138.638 8.7908 141.279 8.58065V10.3229C136.553 10.5996 135.504 11.2929 135.504 14.4218V14.9086L136.271 49.0504C136.347 52.8044 136.968 53.3576 141.976 53.7079V55.3801C137.597 54.9634 135.924 54.8197 133.284 54.8197C130.638 54.8197 128.97 54.9562 124.59 55.3801V53.7079C129.316 53.433 130.36 52.6643 130.36 49.4024V49.0594L129.74 13.037L118.262 44.0462L117.431 46.3435L116.457 48.9121L115.548 51.5632L114.785 53.8551H113.741L112.98 51.6315L112.003 48.9121L111.031 46.2034L110.196 43.7714L98.7971 12.958ZM151.007 35.4174C151.704 27.4226 154.343 23.3255 158.794 23.3255C163.315 23.3255 165.608 27.2178 166.023 35.4174H151.007ZM160.049 53.6342C153.721 53.6342 150.935 48.7666 150.872 37.9194H171.593C171.451 27.2124 167.07 21.5095 158.864 21.5095C150.526 21.5095 145.308 28.256 145.308 38.9648C145.308 49.6718 150.528 55.9279 159.492 55.9279C166.307 55.9279 170.76 51.6836 171.658 44.524H168.874C168.04 50.4334 164.981 53.6342 160.049 53.6342ZM175.73 24.0817V22.8333C179.691 22.4867 182.058 22.07 184.907 21.2329C185.255 23.8087 185.393 24.9169 185.532 27.0059V27.7728C187.066 23.8086 190.049 21.5113 193.669 21.5113C197.142 21.5113 199.718 23.8086 199.718 27.1495C199.718 29.1666 198.536 30.4851 196.798 30.4851C195.199 30.4851 193.949 29.5097 193.949 28.1231C193.949 27.9848 194.021 27.7118 194.083 27.4226L194.222 26.7311V26.0988C194.222 25.1253 193.387 24.4319 192.135 24.4319C188.524 24.4319 186.231 28.811 186.231 35.6958V50.225C186.231 53.2211 186.922 53.7761 191.166 53.9827V55.3747C187.337 55.0316 185.878 54.9544 183.445 54.9544C180.943 54.9544 179.484 55.0316 175.662 55.3747V53.9827C179.899 53.7761 180.664 53.2211 180.664 50.225V27.4962C180.598 24.5038 180.246 24.1607 176.635 24.0871L175.73 24.0817ZM226.318 20.8899V32.3657H224.784C223.532 26.3107 220.962 23.3919 216.723 23.3919C211.503 23.3919 208.448 29.0284 208.448 38.9702C208.448 48.7019 211.158 53.6396 216.511 53.6396C220.822 53.6396 223.394 50.5825 224.229 44.4665H227.078C226.173 51.9081 222.21 55.9387 215.956 55.9387C207.889 55.9387 202.4 49.1222 202.4 38.9756C202.4 28.6098 207.959 21.5203 216.164 21.5203C219.155 21.5203 221.032 22.2873 223.261 24.4427L225.133 20.8953H226.32L226.318 20.8899ZM237.735 35.4174C238.43 27.4226 241.068 23.3255 245.521 23.3255C250.04 23.3255 252.334 27.2178 252.747 35.4174H237.735ZM246.773 53.6342C240.445 53.6342 237.666 48.7666 237.596 37.9194H258.314C258.175 27.2124 253.791 21.5095 245.593 21.5095C237.244 21.5095 232.028 28.256 232.028 38.9648C232.028 49.6718 237.242 55.9279 246.218 55.9279C253.031 55.9279 257.482 51.6836 258.382 44.524H255.601C254.768 50.4334 251.709 53.6342 246.773 53.6342ZM277.569 54.0563C272.563 54.0563 269.922 48.8366 269.922 38.9002C269.922 28.8236 272.355 23.8841 277.362 23.8841C282.51 23.8841 285.152 29.1667 285.152 39.3941C285.151 49.0486 282.577 54.0563 277.569 54.0563ZM290.64 48.1415V8.00049C287.164 8.93091 284.039 9.48235 280.146 9.89906V11.0845C284.526 11.0845 285.082 11.5713 285.082 15.1852V27.3507C282.51 23.1818 280.493 21.9263 276.737 21.9263C269.299 21.9263 264.081 28.9475 264.081 38.9594C264.081 48.9731 269.362 55.989 276.946 55.989C280.908 55.989 283.62 54.182 285.566 50.2915C285.842 52.9337 285.842 53.2103 286.541 55.8489C289.388 54.9436 290.573 54.667 294.676 54.182L295.718 54.0455V52.8636C291.058 52.7253 290.64 52.3823 290.64 48.1415ZM304.056 35.4174C304.751 27.4226 307.391 23.3255 311.844 23.3255C316.363 23.3255 318.653 27.2178 319.07 35.4174H304.056ZM313.096 53.6342C306.764 53.6342 303.989 48.7666 303.915 37.9194H324.635C324.495 27.2124 320.115 21.5095 311.914 21.5095C303.565 21.5095 298.353 28.256 298.353 38.9648C298.353 49.6718 303.565 55.9279 312.539 55.9279C319.352 55.9279 323.801 51.6836 324.701 44.524H321.919C321.091 50.4334 318.026 53.6342 313.096 53.6342ZM330.539 55.9998V44.3839L332.069 44.3174C333.317 50.6472 336.24 53.7079 341.109 53.7079C345.206 53.7079 348.269 50.9938 348.269 47.4554C348.269 45.0916 346.951 43.4948 343.538 41.9608L340.897 40.7754L337.7 39.3169C332.619 36.9549 331.022 35.006 331.022 30.9718C331.022 25.4773 335.329 21.7287 341.452 21.7287C344.165 21.7287 346.185 22.3537 348.546 23.9452L349.724 21.0964H350.976V31.8735H349.374C348.743 26.3089 346.453 23.6722 342.076 23.6722C338.392 23.6722 335.534 26.176 335.534 29.4433C335.534 32.222 336.578 33.1308 342.906 35.9095L345.828 37.165C351.107 39.4516 352.991 41.6824 352.991 45.7867C352.991 51.6279 348.33 55.7932 341.801 55.7932C338.6 55.7932 336.096 54.958 333.456 52.8744L331.78 55.9998H330.539ZM391.66 32.01C395.342 32.01 397.427 32.6387 399.029 34.2337C400.63 35.8395 401.537 38.8265 401.537 42.1584C401.537 49.1114 398.056 53.0091 391.87 53.0091H389.368C385.68 53.0091 385.057 52.4487 385.057 49.3898V32.0046L391.66 32.01ZM385.051 10.9408H390.963C396.804 10.9408 399.374 13.7968 399.374 20.2594C399.374 23.4566 398.611 25.7557 397.082 27.5573C395.552 29.3014 393.677 29.851 389.786 29.851H385.057V10.939H385.051V10.9408ZM405.56 20.1193C405.56 16.5036 404.034 13.31 401.39 11.2875C399.029 9.55059 396.321 8.789 391.794 8.789H373.509V10.5259C378.519 10.8061 379.21 11.3611 379.21 15.1151V48.8348C379.21 52.5906 378.65 53.072 373.509 53.4959V55.1682H391.099C396.242 55.1682 399.028 54.5377 401.95 52.7307C405.424 50.5071 407.718 46.2645 407.718 41.8926C407.718 38.1296 406.117 34.7258 403.407 32.6477C401.95 31.5358 400.418 30.9018 397.912 30.4204C402.924 28.5344 405.56 24.987 405.56 20.1193ZM419.068 35.4174C419.767 27.4226 422.407 23.3255 426.86 23.3255C431.375 23.3255 433.673 27.2178 434.086 35.4174H419.068ZM428.112 53.6342C421.784 53.6342 418.998 48.7666 418.931 37.9194H439.654C439.514 27.2124 435.131 21.5095 426.926 21.5095C418.583 21.5095 413.367 28.256 413.367 38.9648C413.367 49.6718 418.583 55.9279 427.549 55.9279C434.362 55.9279 438.813 51.6836 439.717 44.524H436.935C436.107 50.4334 433.048 53.6342 428.112 53.6342ZM443.331 24.3583V23.1818C447.365 22.6214 449.729 22.07 452.506 21.0946C452.858 22.7004 453.068 24.502 453.203 27.1442C455.708 23.3866 458.555 21.7233 462.591 21.7233C466.766 21.7233 470.376 23.8697 471.772 27.2807C472.471 28.9529 472.817 30.8964 472.817 33.535V50.2233C472.817 53.2157 473.512 53.7707 477.75 53.9773V55.3693C474.066 55.0191 472.677 54.9526 470.173 54.9526C467.596 54.9526 466.209 55.0191 462.59 55.3693V53.9773C466.344 53.8444 467.249 53.1456 467.249 50.3652V33.3284C467.249 27.2807 465.442 24.8433 460.995 24.8433C456.262 24.8433 453.761 27.8375 453.761 33.535V50.3652C453.761 53.1456 454.67 53.8444 458.288 53.9773V55.3693C454.67 55.0191 453.282 54.9526 450.776 54.9526C448.342 54.9526 446.878 55.0191 443.264 55.3693V53.9773C447.502 53.7707 448.2 53.2157 448.2 50.2233V27.701C448.13 24.8433 447.714 24.4319 444.24 24.4319C444.024 24.4319 443.681 24.3583 443.331 24.3583ZM480.451 55.1682L499.293 24.1553H490.74C486.224 24.1553 485.105 25.1253 482.605 31.3849H481.22L482.82 22.3466H506.738L487.824 53.3576H495.956C500.689 53.3576 502.632 51.4842 504.719 45.1527H506.18L504.375 55.1682H480.451Z" fill="#CFA2FF"/>
<path d="M60.314 48.4607C63.3026 43.491 64.8777 37.7997 64.8694 32.0007C64.8694 14.3278 50.5419 0.00146484 32.8696 0.00146484C15.1967 0.00146484 0.870393 14.3284 0.870393 32.0007C0.862175 37.7999 2.4377 43.4913 5.42697 48.4607L5.3105 48.554L5.44958 48.5001C11.0504 57.7871 21.2339 63.9999 32.8696 63.9999C44.5059 63.9999 54.6882 57.7871 60.2885 48.5001L60.4276 48.554L60.314 48.4607ZM60.9381 32.0007C60.9436 36.9011 59.6589 41.7166 57.2131 45.9631L37.4175 30.0194L33.3575 3.94668C48.6325 4.20745 60.9381 16.6631 60.9381 32.0007ZM4.8046 32.0007C4.8046 16.6637 17.109 4.20803 32.384 3.94668L28.324 30.0194L8.52844 45.9631C6.08347 41.7163 4.79918 36.9009 4.8046 32.0007ZM32.8708 60.0669C22.9115 60.0669 14.1698 54.8746 9.18849 47.0543L32.8708 37.8924L56.5531 47.0548C51.5711 54.8746 42.8312 60.0669 32.8708 60.0669Z" fill="#CFA2FF"/>
</g>
<defs>
<clipPath id="clip0_4003_4757">
<rect width="506.393" height="64" fill="white" transform="translate(0.791016)"/>
</clipPath>
</defs>
</svg>
