<svg width="506" height="92" viewBox="0 0 506 92" fill="none" xmlns="http://www.w3.org/2000/svg">
<g clip-path="url(#clip0_4003_4757)">
<path d="M356.169 48.7672H371.703V52.3631H356.169V48.7672ZM97.7971 26.958L96.4086 63.0504V63.6772C96.4086 66.7325 97.3085 67.363 102.18 67.7079V69.3801C98.6341 69.1071 97.2384 69.037 95.295 69.037C93.3461 69.037 91.9558 69.1071 88.3401 69.3801V67.7079C93.206 67.363 93.9047 66.8044 94.043 63.0504L95.5033 28.9086V28.4973C95.5033 25.2929 94.528 24.5996 89.7339 24.3229V22.5807C92.4408 22.7908 93.4844 22.8609 95.4333 22.8609C97.6409 22.8809 99.8478 22.7663 102.041 22.5178L114.97 57.6978L128.11 22.5178C131.244 22.7908 132.703 22.8609 134.79 22.8609C136.521 22.8609 137.638 22.7908 140.279 22.5807V24.3229C135.553 24.5996 134.504 25.2929 134.504 28.4218V28.9086L135.271 63.0504C135.347 66.8044 135.968 67.3576 140.976 67.7079V69.3801C136.597 68.9634 134.924 68.8197 132.284 68.8197C129.638 68.8197 127.97 68.9562 123.59 69.3801V67.7079C128.316 67.433 129.36 66.6643 129.36 63.4024V63.0593L128.74 27.037L117.262 58.0462L116.431 60.3435L115.457 62.9121L114.548 65.5632L113.785 67.8551H112.741L111.98 65.6315L111.003 62.9121L110.031 60.2034L109.196 57.7714L97.7971 26.958ZM150.007 49.4174C150.704 41.4226 153.343 37.3255 157.794 37.3255C162.315 37.3255 164.608 41.2178 165.023 49.4174H150.007ZM159.049 67.6342C152.721 67.6342 149.935 62.7666 149.872 51.9194H170.593C170.451 41.2124 166.07 35.5095 157.864 35.5095C149.526 35.5095 144.308 42.256 144.308 52.9648C144.308 63.6718 149.528 69.9279 158.492 69.9279C165.307 69.9279 169.76 65.6836 170.658 58.524H167.874C167.04 64.4334 163.981 67.6342 159.049 67.6342ZM174.73 38.0817V36.8333C178.691 36.4867 181.058 36.07 183.907 35.2329C184.255 37.8087 184.393 38.9169 184.532 41.0059V41.7728C186.066 37.8086 189.049 35.5113 192.669 35.5113C196.142 35.5113 198.718 37.8086 198.718 41.1495C198.718 43.1666 197.536 44.4851 195.798 44.4851C194.199 44.4851 192.949 43.5097 192.949 42.1231C192.949 41.9848 193.021 41.7118 193.083 41.4226L193.222 40.7311V40.0988C193.222 39.1253 192.387 38.4319 191.135 38.4319C187.524 38.4319 185.23 42.811 185.23 49.6958V64.225C185.23 67.2211 185.922 67.7761 190.166 67.9827V69.3747C186.337 69.0316 184.878 68.9544 182.445 68.9544C179.943 68.9544 178.484 69.0316 174.662 69.3747V67.9827C178.899 67.7761 179.664 67.2211 179.664 64.225V41.4962C179.598 38.5038 179.246 38.1607 175.635 38.0871L174.73 38.0817ZM225.318 34.8899V46.3657H223.784C222.532 40.3107 219.962 37.3919 215.723 37.3919C210.503 37.3919 207.448 43.0284 207.448 52.9702C207.448 62.7019 210.158 67.6396 215.511 67.6396C219.822 67.6396 222.394 64.5825 223.229 58.4665H226.078C225.173 65.9081 221.21 69.9387 214.956 69.9387C206.889 69.9387 201.4 63.1222 201.4 52.9756C201.4 42.6098 206.959 35.5203 215.164 35.5203C218.155 35.5203 220.032 36.2873 222.261 38.4427L224.133 34.8953H225.32L225.318 34.8899ZM236.735 49.4174C237.43 41.4226 240.068 37.3255 244.521 37.3255C249.04 37.3255 251.334 41.2178 251.747 49.4174H236.735ZM245.773 67.6342C239.445 67.6342 236.666 62.7666 236.596 51.9194H257.314C257.175 41.2124 252.791 35.5095 244.593 35.5095C236.244 35.5095 231.028 42.256 231.028 52.9648C231.028 63.6718 236.242 69.9279 245.218 69.9279C252.031 69.9279 256.482 65.6836 257.382 58.524H254.601C253.768 64.4334 250.709 67.6342 245.773 67.6342ZM276.569 68.0563C271.563 68.0563 268.922 62.8366 268.922 52.9002C268.922 42.8236 271.355 37.8841 276.362 37.8841C281.51 37.8841 284.152 43.1667 284.152 53.3941C284.151 63.0486 281.577 68.0563 276.569 68.0563ZM289.64 62.1415V22.0005C286.164 22.9309 283.039 23.4823 279.146 23.8991V25.0845C283.526 25.0845 284.082 25.5713 284.082 29.1852V41.3507C281.51 37.1818 279.493 35.9263 275.737 35.9263C268.299 35.9263 263.081 42.9475 263.081 52.9594C263.081 62.9731 268.362 69.989 275.946 69.989C279.908 69.989 282.62 68.182 284.566 64.2915C284.842 66.9337 284.842 67.2103 285.541 69.8489C288.388 68.9436 289.573 68.667 293.676 68.182L294.718 68.0455V66.8637C290.058 66.7253 289.64 66.3823 289.64 62.1415ZM303.056 49.4174C303.751 41.4226 306.391 37.3255 310.844 37.3255C315.363 37.3255 317.653 41.2178 318.07 49.4174H303.056ZM312.096 67.6342C305.764 67.6342 302.989 62.7666 302.915 51.9194H323.635C323.495 41.2124 319.115 35.5095 310.914 35.5095C302.565 35.5095 297.353 42.256 297.353 52.9648C297.353 63.6718 302.565 69.9279 311.539 69.9279C318.352 69.9279 322.801 65.6836 323.701 58.524H320.919C320.091 64.4334 317.026 67.6342 312.096 67.6342ZM329.539 69.9998V58.3839L331.069 58.3174C332.317 64.6472 335.24 67.7079 340.109 67.7079C344.206 67.7079 347.269 64.9938 347.269 61.4554C347.269 59.0916 345.951 57.4948 342.538 55.9608L339.897 54.7754L336.7 53.3169C331.619 50.9549 330.022 49.006 330.022 44.9718C330.022 39.4773 334.329 35.7287 340.452 35.7287C343.165 35.7287 345.185 36.3537 347.546 37.9452L348.724 35.0964H349.976V45.8735H348.374C347.743 40.3089 345.453 37.6722 341.076 37.6722C337.392 37.6722 334.534 40.176 334.534 43.4433C334.534 46.222 335.578 47.1308 341.906 49.9095L344.828 51.165C350.107 53.4516 351.991 55.6824 351.991 59.7867C351.991 65.6279 347.33 69.7932 340.801 69.7932C337.6 69.7932 335.096 68.958 332.456 66.8744L330.78 69.9998H329.539ZM390.66 46.01C394.342 46.01 396.427 46.6387 398.029 48.2337C399.63 49.8395 400.537 52.8265 400.537 56.1584C400.537 63.1114 397.056 67.0091 390.87 67.0091H388.368C384.68 67.0091 384.057 66.4487 384.057 63.3898V46.0046L390.66 46.01ZM384.051 24.9408H389.963C395.804 24.9408 398.374 27.7968 398.374 34.2594C398.374 37.4566 397.611 39.7557 396.082 41.5573C394.552 43.3014 392.677 43.851 388.786 43.851H384.057V24.939H384.051V24.9408ZM404.56 34.1193C404.56 30.5036 403.034 27.31 400.39 25.2875C398.029 23.5506 395.321 22.789 390.794 22.789H372.509V24.5259C377.519 24.8061 378.21 25.3611 378.21 29.1151V62.8348C378.21 66.5906 377.65 67.072 372.509 67.4959V69.1682H390.099C395.242 69.1682 398.028 68.5377 400.95 66.7307C404.424 64.5071 406.718 60.2645 406.718 55.8926C406.718 52.1296 405.117 48.7258 402.407 46.6477C400.95 45.5358 399.418 44.9018 396.912 44.4204C401.924 42.5344 404.56 38.987 404.56 34.1193ZM418.068 49.4174C418.767 41.4226 421.407 37.3255 425.86 37.3255C430.375 37.3255 432.673 41.2178 433.086 49.4174H418.068ZM427.112 67.6342C420.784 67.6342 417.998 62.7666 417.931 51.9194H438.654C438.514 41.2124 434.131 35.5095 425.926 35.5095C417.583 35.5095 412.367 42.256 412.367 52.9648C412.367 63.6718 417.583 69.9279 426.549 69.9279C433.362 69.9279 437.813 65.6836 438.717 58.524H435.935C435.107 64.4334 432.048 67.6342 427.112 67.6342ZM442.331 38.3583V37.1818C446.365 36.6214 448.729 36.07 451.506 35.0946C451.858 36.7004 452.068 38.502 452.203 41.1442C454.708 37.3866 457.555 35.7233 461.591 35.7233C465.766 35.7233 469.376 37.8697 470.772 41.2807C471.471 42.9529 471.817 44.8964 471.817 47.535V64.2233C471.817 67.2157 472.512 67.7707 476.75 67.9773V69.3693C473.066 69.0191 471.677 68.9526 469.173 68.9526C466.596 68.9526 465.209 69.0191 461.59 69.3693V67.9773C465.344 67.8444 466.249 67.1456 466.249 64.3652V47.3284C466.249 41.2807 464.442 38.8433 459.995 38.8433C455.262 38.8433 452.761 41.8375 452.761 47.535V64.3652C452.761 67.1456 453.67 67.8444 457.288 67.9773V69.3693C453.67 69.0191 452.282 68.9526 449.776 68.9526C447.342 68.9526 445.878 69.0191 442.264 69.3693V67.9773C446.502 67.7707 447.2 67.2157 447.2 64.2233V41.701C447.13 38.8433 446.714 38.4319 443.24 38.4319C443.024 38.4319 442.681 38.3583 442.331 38.3583ZM479.451 69.1682L498.293 38.1553H489.74C485.224 38.1553 484.105 39.1252 481.605 45.3849H480.22L481.82 36.3466H505.738L486.824 67.3576H494.956C499.689 67.3576 501.632 65.4842 503.719 59.1527H505.18L503.375 69.1682H479.451Z" fill="#CFA2FF"/>
<path d="M59.314 62.4607C62.3026 57.491 63.8777 51.7997 63.8694 46.0007C63.8694 28.3278 49.5419 14.0015 31.8696 14.0015C14.1967 14.0015 -0.129607 28.3284 -0.129607 46.0007C-0.137825 51.7999 1.4377 57.4913 4.42697 62.4607L4.3105 62.554L4.44958 62.5001C10.0504 71.7871 20.2339 77.9999 31.8696 77.9999C43.5059 77.9999 53.6882 71.7871 59.2885 62.5001L59.4276 62.554L59.314 62.4607ZM59.9381 46.0007C59.9436 50.9011 58.6589 55.7166 56.2131 59.9631L36.4175 44.0194L32.3575 17.9467C47.6325 18.2075 59.9381 30.6631 59.9381 46.0007ZM3.8046 46.0007C3.8046 30.6637 16.109 18.208 31.384 17.9467L27.324 44.0194L7.52844 59.9631C5.08347 55.7163 3.79918 50.9009 3.8046 46.0007ZM31.8708 74.0669C21.9115 74.0669 13.1698 68.8746 8.18849 61.0543L31.8708 51.8924L55.5531 61.0548C50.5711 68.8746 41.8312 74.0669 31.8708 74.0669Z" fill="#CFA2FF"/>
</g>
<defs>
<clipPath id="clip0_4003_4757">
<rect width="506" height="92" fill="white"/>
</clipPath>
</defs>
</svg>
