<svg width="281" height="92" viewBox="0 0 281 92" fill="none" xmlns="http://www.w3.org/2000/svg">
<path d="M264.445 59.2661C264.372 59.843 264.154 61.3607 262.177 61.5578H244.814C242.837 61.3607 242.476 59.843 242.402 59.2661V32.4617C242.475 31.8834 242.749 30.6542 244.726 30.4571H262.184C264.162 30.6542 264.372 31.8834 264.445 32.4617V59.2661ZM270.457 20.3579H236.39C231.271 20.7709 226.947 23.3669 226.37 29.1746V62.3602C226.947 68.1679 231.271 71.2447 236.39 71.6577H270.457C275.575 71.2447 279.899 68.1679 280.476 62.3602V29.1746C279.899 23.3669 275.575 20.7709 270.457 20.3579ZM132.585 30.4571H117.355V20.3579H163.847V30.4571H148.617V71.6577H132.585V30.4571ZM112.546 30.4571V20.3579H70.8633V71.6577L113.1 71.6466L113.115 61.5585H86.9355L86.9381 50.5711H112.546V40.4968H86.9381V30.4571L112.546 30.4571ZM205.529 38.4085C205.529 39.5187 205.253 40.4927 203.26 40.4927H184.688V30.4232H203.285C205.546 30.4232 205.529 31.9035 205.529 32.8277V38.4085ZM209.97 51.7152C214.971 51.3147 219.957 47.9107 219.957 42.3202V29.6554C219.377 23.8746 215.04 20.7529 209.898 20.3413H168.656L168.657 71.6577H184.688V51.7152H191.069L201.489 71.6577H219.925L207.516 51.7152H209.97ZM37.6786 71.6577L48.4195 39.435V71.6577H64.4511V20.3579H42.809L32.3883 46.0085L21.9675 20.3579H0.325439V71.6577H16.357V39.435L27.1774 71.6577H37.6786Z" fill="#CFA2FF"/>
</svg>
