<svg width="281" height="52" viewBox="0 0 281 52" fill="none" xmlns="http://www.w3.org/2000/svg">
<g clip-path="url(#clip0_4003_4650)">
<path d="M264.445 39.2661C264.372 39.843 264.154 41.3607 262.177 41.5578H244.814C242.837 41.3607 242.476 39.843 242.402 39.2661V12.4617C242.475 11.8834 242.749 10.6542 244.726 10.4571H262.184C264.162 10.6542 264.372 11.8834 264.445 12.4617V39.2661ZM270.457 0.357907H236.39C231.271 0.770865 226.947 3.36691 226.37 9.17464V42.3602C226.947 48.1679 231.271 51.2447 236.39 51.6577H270.457C275.575 51.2447 279.899 48.1679 280.476 42.3602V9.17464C279.899 3.36691 275.575 0.770865 270.457 0.357907ZM132.585 10.4571H117.355V0.357907H163.847V10.4571H148.617V51.6577H132.585V10.4571ZM112.546 10.4571V0.357907H70.8633V51.6577L113.1 51.6466L113.115 41.5585H86.9355L86.9381 30.5711H112.546V20.4968H86.9381V10.4571L112.546 10.4571ZM205.529 18.4085C205.529 19.5187 205.253 20.4927 203.26 20.4927H184.688V10.4232H203.285C205.546 10.4232 205.529 11.9035 205.529 12.8277V18.4085ZM209.97 31.7152C214.971 31.3147 219.957 27.9107 219.957 22.3202V9.65539C219.377 3.87464 215.04 0.752885 209.898 0.341309H168.656L168.657 51.6577H184.688V31.7152H191.069L201.489 51.6577H219.925L207.516 31.7152H209.97ZM37.6786 51.6577L48.4195 19.435V51.6577H64.4511V0.357907H42.809L32.3883 26.0085L21.9675 0.357907H0.325439V51.6577H16.357V19.435L27.1774 51.6577H37.6786Z" fill="#CFA2FF"/>
</g>
<defs>
<clipPath id="clip0_4003_4650">
<rect width="280.8" height="52" fill="white"/>
</clipPath>
</defs>
</svg>
