<svg width="367" height="52" viewBox="0 0 367 52" fill="none" xmlns="http://www.w3.org/2000/svg">
<g clip-path="url(#clip0_4003_4779)">
<path d="M8.58388 0.366099C10.2513 0.281874 11.9261 0.329479 13.5935 0.336803C14.5243 0.263564 14.9274 1.24863 15.2719 1.92976C20.4977 12.7765 25.8298 23.572 31.008 34.4371C31.2388 34.2174 31.4367 33.972 31.6016 33.701C37.1609 22.8836 42.7679 12.0881 48.3381 1.27427C48.5837 0.823845 48.9868 0.307508 49.5621 0.347789C51.1086 0.340465 52.6661 0.234268 54.2016 0.417366C54.5571 0.768916 54.634 1.27427 54.7183 1.743C56.8255 17.3943 58.929 33.0492 61.0362 48.7005C61.1828 49.3853 61.0985 50.4912 60.164 50.4692C57.104 50.5205 54.0404 50.4838 50.9767 50.4875C50.2584 50.6047 49.4962 50.07 49.4595 49.323C48.6533 39.1537 47.8141 28.9514 45.9048 18.9213C40.778 28.6255 35.838 38.4323 30.7478 48.1548C30.0441 49.4622 28.3181 49.4951 27.0611 49.1509C26.057 48.8323 25.6795 47.774 25.2691 46.9134C21.0547 38.2016 16.8184 29.4971 12.593 20.7853C12.2229 19.9943 11.8491 19.2033 11.3874 18.4599C9.37179 28.5999 8.33102 38.9084 7.4515 49.2022C7.41486 49.8064 7.00075 50.4399 6.33745 50.4545C4.56741 50.5607 2.79005 50.4509 1.02002 50.4985C3.26646 34.3565 5.6375 18.2329 7.8876 2.09089C7.99387 1.483 8.02685 0.75793 8.58388 0.366099ZM175.539 3.21145C175.883 2.06892 177.257 2.37286 178.17 2.31427C179.273 2.25568 180.717 2.3692 181.146 3.59596C183.813 10.1875 186.536 16.7571 189.156 23.3669C185.877 24.1836 182.542 24.7585 179.258 25.5495C178.064 22.4515 176.946 19.3241 175.846 16.1895C174.179 19.965 173.252 24.0627 171.636 27.8529C169.195 28.9661 166.784 30.2075 164.71 31.925C164.116 32.423 163.537 32.9393 162.881 33.3495C167.154 23.3267 171.295 13.2453 175.539 3.21145ZM259.21 2.57793C265.019 1.98469 271.113 2.4461 276.445 4.97652C282.682 7.95737 287.637 13.7067 289.213 20.485C290.389 25.641 290.235 31.1743 288.436 36.1729C286.061 42.6362 280.579 47.7923 274.122 50.092C268.573 51.9962 262.519 52.1537 256.777 51.1576C250.147 49.9822 244.079 45.9576 240.506 40.2486C237.153 34.8985 236.365 28.2557 237.391 22.1072C238.248 16.8779 241.011 12.0075 245.05 8.57624C248.945 5.08272 254.036 3.10892 259.21 2.57793ZM260.46 6.81849C257.055 7.40807 254.047 9.53934 252.156 12.3993C249.081 16.7351 248.337 22.2134 248.425 27.4024C248.359 32.8002 249.429 38.4982 252.955 42.7644C257.832 49.0776 268.632 49.2095 273.715 43.0867C276.812 39.5199 278.189 34.7923 278.431 30.1489C278.589 25.6996 278.6 21.1185 277.083 16.8743C275.958 13.7872 274.103 10.876 271.435 8.90582C268.302 6.65004 264.19 6.13737 260.46 6.81849ZM69.7801 5.07906C69.6921 4.44554 70.0806 3.65089 70.7952 3.64723C73.4961 3.58131 76.2006 3.61793 78.9014 3.62892C79.6857 3.54469 80.1731 4.39061 80.1254 5.08638C80.1438 15.1165 80.1291 25.1467 80.1328 35.1768C80.5908 34.8289 81.005 34.4298 81.3861 33.9976C89.8918 24.5827 97.6462 14.5233 105.327 4.43455C106.636 3.06863 108.739 3.76807 110.41 3.63624C111.081 3.50441 111.334 4.14892 111.279 4.69821C111.293 19.3607 111.271 34.0233 111.29 48.6858C111.381 49.4658 111 50.5351 110.051 50.4729C107.456 50.5131 104.858 50.4912 102.26 50.4838C101.611 50.5791 100.93 50.0627 100.948 49.3853C100.882 39.216 100.988 29.0393 100.893 18.8664C92.3654 27.732 85.1057 37.7072 77.4942 47.3455C76.5267 48.4148 75.9111 50.0481 74.3976 50.4289C72.9683 50.5388 71.5208 50.5498 70.0953 50.4179C69.6555 50.092 69.8314 49.4695 69.7728 49.0081C69.7911 34.3638 69.7728 19.7233 69.7801 5.07906ZM122.921 5.09004C122.819 4.31371 123.427 3.46413 124.274 3.62525C128.924 3.60694 133.582 3.62159 138.236 3.62159C141.996 3.72046 145.873 4.083 149.296 5.77117C153.899 8.07821 156.959 13.1244 156.922 18.2658C156.995 21.752 156.182 25.392 153.961 28.1568C151.762 30.9472 148.42 32.5805 145.038 33.4374C141.201 34.3895 137.203 34.6568 133.263 34.481C133.278 39.3222 133.278 44.1669 133.267 49.0081C133.369 49.7515 132.823 50.5791 132.01 50.4802C129.313 50.4875 126.608 50.5314 123.914 50.4582C123.233 50.4216 122.855 49.6489 122.921 49.0374C122.914 34.3858 122.914 19.7379 122.921 5.09004ZM133.274 7.83652C133.274 15.4644 133.259 23.0923 133.281 30.7202C136.627 30.896 140.255 30.3137 142.82 27.992C145.543 25.5788 146.423 21.763 146.386 18.2585C146.434 15.3619 145.499 12.2638 143.176 10.3889C140.438 8.12948 136.704 7.68638 133.274 7.83652ZM200.128 3.61427C211.493 3.65821 222.86 3.54469 234.217 3.6692C234.301 3.76075 234.466 3.94385 234.547 4.03539C234.617 5.69061 234.69 7.37511 234.507 9.02666C234.122 9.75539 233.202 9.48075 232.553 9.41117C229.211 8.78863 225.81 8.60553 222.417 8.55793C222.406 22.0486 222.424 35.5393 222.41 49.03C222.49 49.7881 221.867 50.645 221.043 50.4838C218.466 50.4948 215.89 50.5058 213.314 50.4802C212.515 50.5681 211.969 49.7661 212.064 49.0337C212.05 35.5393 212.072 22.045 212.053 8.5506C208.433 8.59089 204.812 8.86187 201.243 9.50272C200.535 9.71511 199.755 9.19511 199.828 8.4261C199.843 6.83314 199.484 5.123 200.128 3.61427ZM298.275 5.05342C298.158 4.36497 298.66 3.58863 299.415 3.63258C304.077 3.5923 308.738 3.62892 313.403 3.61793C317.332 3.72413 321.429 4.06469 324.954 5.96159C329.509 8.36018 332.357 13.5053 332.269 18.6137C332.254 22.3489 331.21 26.2709 328.538 28.9991C325.482 32.2033 321.033 33.5399 316.767 34.1405C314.078 34.4444 311.351 34.6788 308.646 34.4627C308.581 39.3258 308.661 44.1926 308.61 49.0557C308.679 49.8503 307.991 50.6157 307.173 50.4838C304.59 50.4948 302.002 50.5095 299.419 50.4765C298.664 50.5168 298.144 49.7405 298.275 49.0447C298.272 34.3822 298.268 19.716 298.275 5.05342ZM308.621 7.84751C308.628 15.4681 308.621 23.0923 308.624 30.7165C311.846 30.8776 315.309 30.354 317.863 28.241C320.381 26.1867 321.458 22.8982 321.663 19.7489C321.957 16.53 321.308 12.9193 318.812 10.6562C316.078 8.17708 312.168 7.67539 308.621 7.84751ZM340.327 5.07906C340.236 4.35399 340.778 3.5337 341.577 3.62892C349.65 3.61427 357.727 3.59962 365.804 3.63624C366.559 3.59596 366.53 4.54441 366.574 5.06441C366.585 6.36807 366.856 7.75596 366.365 8.99737C365.973 9.78469 364.983 9.45877 364.305 9.40751C359.802 8.67511 355.228 8.61286 350.676 8.57258C350.676 22.0633 350.684 35.554 350.673 49.0447C350.768 49.8174 350.134 50.6303 349.313 50.4838C346.733 50.4948 344.153 50.5095 341.577 50.4765C340.808 50.5424 340.247 49.7515 340.324 49.0374C340.324 34.3858 340.316 19.7306 340.327 5.07906ZM193.756 35.2757L193.921 35.1585C195.899 39.6664 197.629 44.2878 199.542 48.8286C199.839 49.3706 200.008 50.5278 199.077 50.4655C196.017 50.5351 192.953 50.4692 189.889 50.4948C189.025 50.59 188.134 50.103 187.878 49.2498C186.877 46.5069 185.818 43.7788 184.909 41.0067C186.602 40.2157 188.431 39.6298 189.97 38.5129C191.399 37.6376 192.528 36.3926 193.756 35.2757Z" fill="#CFA2FF"/>
<path d="M192.704 24.3961C194.581 23.7333 196.23 22.6018 197.776 21.375C196.867 26.1758 194.929 30.9547 191.513 34.5288C188.805 37.3412 185.089 38.9525 181.296 39.6556C177.236 40.4868 172.966 40.1975 169.045 41.688C169.943 40.4209 170.921 39.1758 172.204 38.275C175.367 35.9057 179.288 35.0232 182.971 33.8074C185.478 32.9981 188.05 31.9618 189.86 29.9733C185.562 32.1705 180.6 32.1961 176.107 33.822C172.919 34.906 169.954 36.9237 168.21 39.857C166.425 42.8415 165.652 46.2874 164.321 49.4733C164.065 50.0739 163.453 50.5023 162.793 50.4804C160.444 50.5133 158.099 50.4987 155.753 50.4694C157.806 45.8187 159.308 40.7871 162.665 36.8505C165.868 32.9212 170.419 30.3102 175.216 28.8198C180.941 26.9339 187.053 26.5201 192.704 24.3961Z" fill="#CFA2FF"/>
</g>
<defs>
<clipPath id="clip0_4003_4779">
<rect width="365.733" height="52" fill="white" transform="translate(0.933594)"/>
</clipPath>
</defs>
</svg>
