<svg width="366" height="92" viewBox="0 0 366 92" fill="none" xmlns="http://www.w3.org/2000/svg">
<path d="M7.58388 20.3661C9.2513 20.2819 10.9261 20.3295 12.5935 20.3368C13.5243 20.2636 13.9274 21.2486 14.2719 21.9298C19.4977 32.7765 24.8298 43.572 30.008 54.4371C30.2388 54.2174 30.4367 53.972 30.6016 53.701C36.1609 42.8836 41.7679 32.0881 47.3382 21.2743C47.5837 20.8238 47.9868 20.3075 48.5621 20.3478C50.1086 20.3405 51.6661 20.2343 53.2016 20.4174C53.5571 20.7689 53.634 21.2743 53.7183 21.743C55.8255 37.3943 57.929 53.0492 60.0362 68.7005C60.1828 69.3853 60.0985 70.4912 59.164 70.4692C56.104 70.5205 53.0404 70.4838 49.9767 70.4875C49.2584 70.6047 48.4962 70.07 48.4595 69.323C47.6533 59.1537 46.8141 48.9514 44.9048 38.9213C39.778 48.6255 34.838 58.4323 29.7478 68.1548C29.0441 69.4622 27.3181 69.4951 26.0611 69.1509C25.057 68.8323 24.6795 67.774 24.2691 66.9134C20.0547 58.2016 15.8184 49.4971 11.593 40.7853C11.2229 39.9943 10.8491 39.2033 10.3874 38.4599C8.37179 48.5999 7.33102 58.9084 6.4515 69.2022C6.41486 69.8064 6.00075 70.4399 5.33745 70.4545C3.56741 70.5607 1.79005 70.4509 0.0200195 70.4985C2.26646 54.3565 4.6375 38.2329 6.8876 22.0909C6.99387 21.483 7.02685 20.7579 7.58388 20.3661ZM174.539 23.2115C174.883 22.0689 176.257 22.3729 177.17 22.3143C178.273 22.2557 179.717 22.3692 180.146 23.596C182.813 30.1875 185.536 36.7571 188.156 43.3669C184.877 44.1836 181.542 44.7585 178.258 45.5495C177.064 42.4515 175.946 39.3241 174.846 36.1895C173.179 39.965 172.252 44.0627 170.636 47.8529C168.195 48.9661 165.784 50.2075 163.71 51.925C163.116 52.423 162.537 52.9393 161.881 53.3495C166.154 43.3267 170.295 33.2453 174.539 23.2115ZM258.21 22.5779C264.019 21.9847 270.113 22.4461 275.445 24.9765C281.682 27.9574 286.637 33.7067 288.213 40.485C289.389 45.641 289.235 51.1743 287.436 56.1729C285.061 62.6362 279.579 67.7923 273.122 70.092C267.573 71.9962 261.519 72.1537 255.777 71.1576C249.147 69.9822 243.079 65.9576 239.506 60.2486C236.153 54.8985 235.365 48.2557 236.391 42.1072C237.248 36.8779 240.011 32.0075 244.05 28.5762C247.945 25.0827 253.036 23.1089 258.21 22.5779ZM259.46 26.8185C256.055 27.4081 253.047 29.5393 251.156 32.3993C248.081 36.7351 247.337 42.2134 247.425 47.4024C247.359 52.8002 248.429 58.4982 251.955 62.7644C256.832 69.0776 267.632 69.2095 272.715 63.0867C275.812 59.5199 277.189 54.7923 277.431 50.1489C277.589 45.6996 277.6 41.1185 276.083 36.8743C274.958 33.7872 273.103 30.876 270.435 28.9058C267.302 26.65 263.19 26.1374 259.46 26.8185ZM68.7801 25.0791C68.6921 24.4455 69.0806 23.6509 69.7952 23.6472C72.4961 23.5813 75.2006 23.6179 77.9014 23.6289C78.6857 23.5447 79.1731 24.3906 79.1254 25.0864C79.1438 35.1165 79.1291 45.1467 79.1328 55.1768C79.5908 54.8289 80.005 54.4298 80.3861 53.9976C88.8918 44.5827 96.6462 34.5233 104.327 24.4345C105.636 23.0686 107.739 23.7681 109.41 23.6362C110.081 23.5044 110.334 24.1489 110.279 24.6982C110.293 39.3607 110.271 54.0233 110.29 68.6858C110.381 69.4658 110 70.5351 109.051 70.4729C106.456 70.5131 103.858 70.4912 101.26 70.4838C100.611 70.5791 99.9297 70.0627 99.948 69.3853C99.8821 59.216 99.9884 49.0393 99.8931 38.8664C91.3654 47.732 84.1057 57.7072 76.4942 67.3455C75.5267 68.4148 74.9111 70.0481 73.3976 70.4289C71.9683 70.5388 70.5208 70.5498 69.0953 70.4179C68.6555 70.092 68.8314 69.4695 68.7728 69.0081C68.7911 54.3638 68.7728 39.7233 68.7801 25.0791ZM121.921 25.09C121.819 24.3137 122.427 23.4641 123.274 23.6253C127.924 23.6069 132.582 23.6216 137.236 23.6216C140.996 23.7205 144.873 24.083 148.296 25.7712C152.899 28.0782 155.959 33.1244 155.922 38.2658C155.995 41.752 155.182 45.392 152.961 48.1568C150.762 50.9472 147.42 52.5805 144.038 53.4374C140.201 54.3895 136.203 54.6568 132.263 54.481C132.278 59.3222 132.278 64.1669 132.267 69.0081C132.369 69.7514 131.823 70.5791 131.01 70.4802C128.313 70.4875 125.608 70.5314 122.914 70.4582C122.233 70.4216 121.855 69.6489 121.921 69.0374C121.914 54.3858 121.914 39.7379 121.921 25.09ZM132.274 27.8365C132.274 35.4644 132.259 43.0923 132.281 50.7202C135.627 50.896 139.255 50.3137 141.82 47.992C144.543 45.5788 145.423 41.763 145.386 38.2585C145.434 35.3619 144.499 32.2638 142.176 30.3889C139.438 28.1295 135.704 27.6864 132.274 27.8365ZM199.128 23.6143C210.493 23.6582 221.86 23.5447 233.217 23.6692C233.301 23.7607 233.466 23.9438 233.547 24.0354C233.617 25.6906 233.69 27.3751 233.507 29.0267C233.122 29.7554 232.202 29.4807 231.553 29.4112C228.211 28.7886 224.81 28.6055 221.417 28.5579C221.406 42.0486 221.424 55.5393 221.41 69.03C221.49 69.7881 220.867 70.645 220.043 70.4838C217.466 70.4948 214.89 70.5058 212.314 70.4802C211.515 70.5681 210.969 69.7661 211.064 69.0337C211.05 55.5393 211.072 42.045 211.053 28.5506C207.433 28.5909 203.812 28.8619 200.243 29.5027C199.535 29.7151 198.755 29.1951 198.828 28.4261C198.843 26.8331 198.484 25.123 199.128 23.6143ZM297.275 25.0534C297.158 24.365 297.66 23.5886 298.415 23.6326C303.077 23.5923 307.738 23.6289 312.403 23.6179C316.332 23.7241 320.429 24.0647 323.954 25.9616C328.509 28.3602 331.357 33.5053 331.269 38.6137C331.254 42.3489 330.21 46.2709 327.538 48.9991C324.482 52.2033 320.033 53.5399 315.767 54.1405C313.078 54.4444 310.351 54.6788 307.646 54.4627C307.581 59.3258 307.661 64.1926 307.61 69.0557C307.679 69.8503 306.991 70.6157 306.173 70.4838C303.59 70.4948 301.002 70.5095 298.419 70.4765C297.664 70.5168 297.144 69.7405 297.275 69.0447C297.272 54.3822 297.268 39.716 297.275 25.0534ZM307.621 27.8475C307.628 35.4681 307.621 43.0923 307.624 50.7165C310.846 50.8776 314.309 50.354 316.863 48.241C319.381 46.1867 320.458 42.8982 320.663 39.7489C320.957 36.53 320.308 32.9193 317.812 30.6562C315.078 28.1771 311.168 27.6754 307.621 27.8475ZM339.327 25.0791C339.236 24.354 339.778 23.5337 340.577 23.6289C348.65 23.6143 356.727 23.5996 364.804 23.6362C365.559 23.596 365.53 24.5444 365.574 25.0644C365.585 26.3681 365.856 27.756 365.365 28.9974C364.973 29.7847 363.983 29.4588 363.305 29.4075C358.802 28.6751 354.228 28.6129 349.676 28.5726C349.676 42.0633 349.684 55.554 349.673 69.0447C349.768 69.8174 349.134 70.6303 348.313 70.4838C345.733 70.4948 343.153 70.5095 340.577 70.4765C339.808 70.5424 339.247 69.7515 339.324 69.0374C339.324 54.3858 339.316 39.7306 339.327 25.0791ZM192.756 55.2757L192.921 55.1585C194.899 59.6664 196.629 64.2878 198.542 68.8286C198.839 69.3706 199.008 70.5278 198.077 70.4655C195.017 70.5351 191.953 70.4692 188.889 70.4948C188.025 70.59 187.134 70.103 186.878 69.2498C185.877 66.5069 184.818 63.7788 183.909 61.0067C185.602 60.2157 187.431 59.6298 188.97 58.5129C190.399 57.6376 191.528 56.3926 192.756 55.2757Z" fill="#CFA2FF"/>
<path d="M191.704 44.3961C193.581 43.7333 195.23 42.6018 196.776 41.375C195.867 46.1758 193.929 50.9547 190.513 54.5288C187.805 57.3412 184.089 58.9525 180.296 59.6556C176.236 60.4868 171.966 60.1975 168.045 61.688C168.943 60.4209 169.921 59.1758 171.204 58.275C174.367 55.9057 178.288 55.0232 181.971 53.8074C184.478 52.9981 187.05 51.9618 188.86 49.9733C184.562 52.1705 179.6 52.1961 175.107 53.822C171.919 54.906 168.954 56.9237 167.21 59.857C165.425 62.8415 164.652 66.2874 163.321 69.4733C163.065 70.0739 162.453 70.5023 161.793 70.4804C159.444 70.5133 157.099 70.4987 154.753 70.4694C156.806 65.8187 158.308 60.7871 161.665 56.8505C164.868 52.9212 169.419 50.3102 174.216 48.8198C179.941 46.9339 186.053 46.5201 191.704 44.3961Z" fill="#CFA2FF"/>
</svg>
