<svg width="328" height="60" viewBox="0 0 328 60" fill="none" xmlns="http://www.w3.org/2000/svg">
<g clip-path="url(#clip0_4003_4648)">
<path d="M0 -0.00585938H4.04729L27.4111 34.431L50.7749 -0.00585938H54.8223V58.2483H50.4684V7.66723L27.4724 41.1833H27.1659L4.16993 7.66723V58.2483H0V-0.00585938ZM95.2337 -0.00585938H99.5262V58.2483H95.2337V-0.00585938ZM229.468 -0.00585938H233.822V58.2483H229.468V-0.00585938ZM299.131 3.98415H274.05V-0.00585938H327.645V3.98415H303.3V58.2483H298.946L299.131 3.98415ZM164.528 26.2055L138.405 -0.00585938H190.651L164.528 26.144V26.2055ZM138.466 58.371H190.713L164.589 32.2212L138.527 58.371H138.466ZM135.461 3.00198V55.3018L161.585 29.1518L135.4 2.9406L135.461 3.00198ZM193.657 55.3631V2.9406L167.595 29.0905L193.657 55.2403V55.3631Z" fill="#CFA2FF"/>
</g>
<defs>
<clipPath id="clip0_4003_4648">
<rect width="328" height="60" fill="white"/>
</clipPath>
</defs>
</svg>
