<svg width="328" height="92" viewBox="0 0 328 92" fill="none" xmlns="http://www.w3.org/2000/svg">
<path d="M0 15.9941H4.04729L27.4111 50.431L50.7749 15.9941H54.8223V74.2483H50.4684V23.6672L27.4724 57.1833H27.1659L4.16993 23.6672V74.2483H0V15.9941ZM95.2337 15.9941H99.5262V74.2483H95.2337V15.9941ZM229.468 15.9941H233.822V74.2483H229.468V15.9941ZM299.131 19.9842H274.05V15.9941H327.645V19.9842H303.3V74.2483H298.946L299.131 19.9842ZM164.528 42.2055L138.405 15.9941H190.651L164.528 42.144V42.2055ZM138.466 74.371H190.713L164.589 48.2212L138.527 74.371H138.466ZM135.461 19.002V71.3018L161.585 45.1518L135.4 18.9406L135.461 19.002ZM193.657 71.3631V18.9406L167.595 45.0905L193.657 71.2403V71.3631Z" fill="#CFA2FF"/>
</svg>
