<svg width="215" height="80" viewBox="0 0 215 80" fill="none" xmlns="http://www.w3.org/2000/svg">
<g clip-path="url(#clip0_4003_4773)">
<path fill-rule="evenodd" clip-rule="evenodd" d="M119.999 13.4144C120.151 11.4537 119.093 9.94563 117.436 9.64379C115.928 9.49287 114.568 10.85 114.266 12.661C114.117 13.4156 114.117 14.0181 113.964 14.7739C113.964 15.5285 113.059 18.0918 113.815 18.2427C114.72 18.5446 117.133 16.8856 118.49 15.9801C119.247 15.5273 119.849 14.4709 119.999 13.4144Z" fill="#CFA2FF"/>
<path fill-rule="evenodd" clip-rule="evenodd" d="M31.1491 68.9285C31.4509 68.6267 31.7528 67.8721 33.5626 67.4205C33.5626 67.4205 94.3554 46.7549 175.362 50.9784C175.362 50.9784 180.04 50.8263 178.68 52.7882C177.927 53.9944 176.568 53.9944 174.003 54.1442C174.003 54.1442 173.097 54.2963 169.63 54.2963C169.63 54.2963 177.927 57.4656 145.341 56.8596C145.341 56.8596 148.208 59.7271 136.138 58.9736C136.138 58.9736 102.65 57.3135 34.9186 69.6819C34.9209 69.6819 29.641 70.7384 31.1491 68.9285Z" fill="#CFA2FF"/>
<path fill-rule="evenodd" clip-rule="evenodd" d="M130.862 24.8799C128.9 20.6553 127.392 24.2762 127.392 24.2762C126.186 27.896 117.738 37.4005 116.078 39.0594C109.139 45.0939 111.552 41.3209 110.949 38.6066C110.949 38.6066 111.25 33.6286 112.609 32.5722C112.609 32.5722 113.362 32.874 113.965 29.8568C113.965 29.8568 115.625 25.9352 111.1 25.1806C111.1 25.1806 108.081 23.0689 106.573 29.1033C106.573 29.1033 104.009 40.4165 107.63 45.5443C107.63 45.5443 109.441 48.8645 118.944 39.6631C122.111 36.344 127.089 30.6114 127.089 30.6114C132.37 40.2656 124.373 42.8289 124.373 42.8289C121.356 44.7909 124.373 45.2448 124.373 45.2448C136.894 45.5443 137.8 38.003 137.8 38.003C138.103 32.5733 130.862 24.8799 130.862 24.8799ZM99.7863 2.10147C99.7863 2.10147 95.8636 -3.02748 96.4673 2.8549C96.4673 2.8549 97.0709 15.0736 94.9592 30.3095C94.8083 29.707 94.5065 29.1033 94.0537 28.4997C94.0537 28.4997 90.5837 23.8235 86.6621 25.1818C86.6621 25.1818 81.532 26.6898 78.6668 34.3844C78.6668 34.3844 76.5551 39.5134 77.1588 43.5859C77.1588 43.5859 77.0079 53.8426 89.6794 46.6031C89.6794 46.6031 90.8855 45.6976 92.5457 44.1895C92.2438 45.3957 91.7911 46.3012 91.6401 47.6595C91.6401 47.6595 91.1874 50.3749 92.5457 51.1272C92.9984 51.2793 93.4512 50.9774 94.5076 48.262C94.5076 48.262 103.558 25.3315 104.011 15.8282C104.01 15.8282 107.178 11.0023 99.7863 2.10147ZM84.2486 43.5859C84.2486 43.5859 83.1921 42.9822 83.343 40.1159C83.343 40.1159 83.4939 35.2899 86.813 31.5181C86.813 31.5181 87.7186 30.3107 88.472 30.161C88.7738 30.161 89.2266 30.4628 89.3775 31.9708C89.3775 32.2727 88.3211 32.4236 88.7738 33.6298C88.7738 33.6298 90.4328 38.0041 94.2034 36.0433C94.0537 36.9489 93.9016 37.8532 93.6009 38.7587C91.7911 41.322 87.7186 45.9994 84.2486 43.5859ZM171.441 23.3719C171.441 23.3719 162.842 36.1943 162.992 40.4177C162.992 40.4177 162.54 44.3416 167.065 44.1895C167.065 44.1895 171.59 44.0398 174.759 41.322C174.759 41.322 176.87 39.2103 178.077 39.0606C178.077 39.0606 180.944 39.3624 180.039 35.4408C180.039 35.4408 179.133 31.0665 177.927 29.4064C177.927 29.4064 177.019 27.4456 175.813 28.2002C175.813 28.2002 174.607 28.6529 174.907 30.7635L175.513 32.5745C175.513 32.5745 176.869 36.7991 175.965 36.9489C175.965 36.9489 175.663 36.9489 175.209 37.4016C174.907 37.5526 174.456 38.1562 173.853 38.6078C173.853 38.6078 169.932 41.1723 170.836 37.5514C170.836 37.5514 171.287 35.2887 171.891 33.9316C171.891 33.9316 174.003 27.7462 176.569 24.4272C176.569 24.4272 178.832 21.5608 175.965 21.8627C175.813 21.8627 175.361 22.0124 175.209 21.8627C175.211 21.8627 173.702 20.5056 171.441 23.3719ZM153.491 29.1045C151.983 28.0481 150.321 24.5793 151.681 22.9191C152.132 22.1645 153.338 21.4111 153.189 20.3546C152.887 18.092 148.813 20.5056 148.057 23.221C146.549 27.2935 142.024 30.0089 142.024 30.0089C141.42 30.6126 141.119 32.2715 141.119 32.2715C141.119 35.4397 142.928 33.177 142.928 33.177C144.549 31.9858 146.158 30.7792 147.756 29.5573C153.037 39.2115 145.04 41.776 145.04 41.776C143.985 42.2276 143.684 42.6815 143.684 43.284C143.684 44.1895 145.04 44.1895 145.04 44.1895C157.411 44.4914 158.466 36.9489 158.466 36.9489C159.07 33.6286 155.602 30.4616 153.491 29.1045ZM73.5391 44.0398C73.5391 44.0398 73.5391 43.8877 73.3882 43.7356C73.0875 43.4361 71.4274 44.1895 69.9193 45.246C69.6175 45.3957 69.3156 45.5455 69.1647 45.6976C68.561 45.9994 67.9585 46.3013 67.8064 46.6031C67.8064 46.6031 66.75 47.3589 66.75 45.5466V45.3969C66.9009 45.0951 66.9009 44.4914 66.9009 43.8889C66.9009 43.8889 68.4101 38.1562 69.0138 36.6482C69.0138 36.6482 69.3156 35.1402 69.9193 33.3291C69.9193 33.3291 72.3329 30.7647 67.8064 30.0112C67.8064 30.0112 65.6947 24.7314 63.4321 33.0285C63.1302 32.1229 62.3756 30.9156 61.1695 30.3119C61.0185 30.1621 60.5658 30.1622 60.113 30.0112C59.9621 30.0112 59.8112 30.1622 59.5093 30.0112C59.5093 30.0112 57.2467 29.2566 54.9841 32.1229C52.5705 34.8383 45.3298 43.4385 46.9888 50.678C46.9888 50.678 47.8943 54.2977 51.2122 54.2977C51.2122 54.2977 55.5866 54.4474 58.9056 51.2805C58.9056 51.2805 59.8112 50.3749 60.8676 49.0166C61.0185 49.4706 61.0185 50.0731 61.1695 50.5247V50.8265C61.1695 50.8265 61.3204 51.5823 62.075 52.1848C62.5277 52.6364 63.2812 53.0903 64.6395 52.9382C64.7904 52.7885 64.9413 52.7885 65.0922 52.7885C65.0922 52.7885 69.6175 51.5823 69.6175 49.6192C69.4666 48.7136 69.9193 48.5639 69.9193 48.5639C69.9193 48.5639 70.0703 48.4118 70.0703 47.9602C70.0691 47.9614 73.6888 45.5455 73.5391 44.0398ZM60.2639 46.754C59.9621 47.3577 59.5093 47.9602 58.6038 48.7136C58.6038 48.7136 53.4748 51.7309 53.6258 47.3577C53.6258 47.3577 53.7767 44.9441 54.6822 42.6803C54.6822 42.6803 56.9448 36.7968 60.5658 33.3268C60.8676 33.0261 61.1695 33.0261 61.4713 33.1759C61.9241 33.9305 62.075 34.6839 62.3768 35.2887C62.5277 35.4397 62.5277 35.7415 62.6787 35.8924C62.2259 38.0041 61.1706 42.2276 61.0197 45.3957C60.8664 45.8497 60.5658 46.3013 60.2639 46.754ZM24.9638 22.7682C24.6619 22.1645 23.9073 22.4664 22.0974 25.3327C22.0974 25.3327 6.86151 51.1272 3.69335 63.4992C3.69335 63.4992 0.37545 71.946 4.89954 74.9633C4.89954 74.9633 5.95599 76.6234 7.16217 76.9252C7.46402 78.7351 8.21862 80.3929 9.42481 79.7904C9.87757 79.6406 9.87757 78.1326 9.87757 76.6234C9.87757 75.4172 10.0285 74.3596 10.1794 73.454C10.1794 73.1522 10.3303 72.8504 10.4813 72.3988C10.4813 72.3988 10.4813 72.0946 10.6322 71.643V71.3412C12.1402 65.9115 19.0802 38.7576 24.6607 27.2923C24.6619 27.2935 26.0202 24.5781 24.9638 22.7682Z" fill="#CFA2FF"/>
<path fill-rule="evenodd" clip-rule="evenodd" d="M48.1949 66.0611C48.1949 66.0611 35.0706 46.2999 33.7135 42.0765C33.7135 42.0765 33.1098 40.4163 32.3552 39.512H35.2215C35.2215 39.512 42.1604 39.3611 45.1776 33.9315C45.931 32.4222 47.5912 27.2933 41.5567 20.9582C41.5567 20.9582 33.8644 11.9064 16.6665 10.8512C16.6665 10.8512 11.9903 8.58854 3.08954 15.9801C3.08954 15.9801 -0.380464 18.5446 1.58033 19.298C2.48585 19.5999 3.08954 19.4489 3.84296 19.298C3.84296 19.298 18.3243 14.4709 36.2756 24.7288C36.2756 24.7288 43.3654 29.2541 38.8401 33.6284C38.8401 33.6284 37.1812 35.5904 32.6559 36.3438L29.4877 36.7966C29.4877 36.7966 28.4313 36.7966 27.0742 36.9475C27.0742 36.9475 25.2643 36.9475 25.1134 37.4003C24.9625 37.7021 25.2643 37.853 26.3196 38.3058C24.3588 38.6076 23.7551 38.7586 23.3023 39.3623C23.3023 39.3623 22.8496 39.8138 23.0005 40.2678C24.3576 43.5857 30.0902 57.1615 42.9126 67.8722C42.9126 67.8722 50.4551 73.7557 51.9632 72.2477C52.5704 71.7961 50.7593 69.3802 48.1949 66.0611ZM210.359 41.3219C208.248 39.9659 202.516 28.4995 202.516 28.4995C201.158 26.5387 198.896 28.9522 198.896 28.9522C197.388 30.1596 195.277 33.9315 194.219 36.0432C192.711 38.6076 193.164 35.2886 193.164 35.2886C193.164 34.383 193.466 33.0259 194.37 32.4222C194.37 32.4222 195.123 33.0259 196.028 30.1596C196.028 30.1596 197.688 26.2369 193.614 25.1816C193.614 25.1816 190.749 22.768 188.787 28.6516C188.787 28.6516 186.072 37.0996 187.279 42.2274C187.279 42.2274 187.731 48.4128 192.861 43.5857C193.464 43.1317 193.916 42.3795 194.519 41.6237C195.575 39.9659 195.877 39.3623 196.63 37.5512C197.989 34.6849 200.25 31.9695 200.552 31.5167C200.25 34.9867 204.324 44.1882 204.324 44.1882C205.682 48.8655 207.943 48.7135 207.943 48.7135C219.714 49.1674 210.359 41.3219 210.359 41.3219ZM212.169 28.6516C213.375 28.6516 214.433 29.708 214.433 30.9142C214.433 32.2713 213.377 33.1769 212.169 33.1769C210.962 33.1769 209.908 32.2713 209.908 30.9142C209.908 29.7069 210.963 28.6516 212.169 28.6516ZM212.169 33.6284C212.526 33.63 212.88 33.5608 213.21 33.4249C213.54 33.289 213.84 33.0891 214.093 32.8366C214.345 32.5841 214.545 32.2842 214.681 31.954C214.817 31.6239 214.886 31.2701 214.885 30.913C214.885 29.4038 213.678 28.3486 212.169 28.3486C210.66 28.3486 209.454 29.405 209.454 30.913C209.452 31.2701 209.521 31.6239 209.657 31.954C209.793 32.2842 209.993 32.5841 210.246 32.8366C210.498 33.0891 210.798 33.289 211.128 33.4249C211.458 33.5608 211.812 33.63 212.169 33.6284ZM212.623 31.0651C213.075 31.0651 213.377 30.9142 213.377 30.3105C213.377 29.708 212.925 29.405 212.321 29.405H211.115V32.5732H211.567V31.0651H212.17L212.926 32.5732H213.378L212.623 31.0651ZM212.321 29.8578C212.623 29.8578 212.925 30.0087 212.925 30.3105C212.925 30.7633 212.471 30.6124 212.02 30.6124H211.566V29.8578H212.321Z" fill="#CFA2FF"/>
<path fill-rule="evenodd" clip-rule="evenodd" d="M184.263 51.4287C186.677 51.5808 189.542 51.5808 193.314 52.0324C195.276 52.1845 198.443 52.1845 198.895 53.3907C199.197 54.5969 197.689 55.8042 195.124 56.4079C193.768 56.7098 192.862 56.8595 191.656 56.8595C190.146 56.8595 186.979 56.8595 186.979 55.2017C186.826 54.1453 184.867 54.1453 183.509 54.1453C180.793 53.9955 181.095 53.2398 181.699 52.3354C181.999 51.7305 182.755 51.4287 184.263 51.4287Z" fill="#CFA2FF"/>
</g>
<defs>
<clipPath id="clip0_4003_4773">
<rect width="214" height="80" fill="white" transform="translate(0.933594)"/>
</clipPath>
</defs>
</svg>
