<svg width="214" height="92" viewBox="0 0 214 92" fill="none" xmlns="http://www.w3.org/2000/svg">
<g clip-path="url(#clip0_4003_4773)">
<path fill-rule="evenodd" clip-rule="evenodd" d="M118.999 19.4144C119.151 17.4537 118.093 15.9456 116.436 15.6438C114.928 15.4929 113.568 16.85 113.266 18.661C113.117 19.4156 113.117 20.0181 112.964 20.7739C112.964 21.5285 112.059 24.0918 112.815 24.2427C113.72 24.5446 116.133 22.8856 117.49 21.9801C118.247 21.5273 118.849 20.4709 118.999 19.4144Z" fill="#CFA2FF"/>
<path fill-rule="evenodd" clip-rule="evenodd" d="M30.1491 74.9285C30.4509 74.6267 30.7528 73.8721 32.5626 73.4205C32.5626 73.4205 93.3554 52.7549 174.362 56.9784C174.362 56.9784 179.04 56.8263 177.68 58.7882C176.927 59.9944 175.568 59.9944 173.003 60.1442C173.003 60.1442 172.097 60.2963 168.63 60.2963C168.63 60.2963 176.927 63.4656 144.341 62.8596C144.341 62.8596 147.208 65.7271 135.138 64.9736C135.138 64.9736 101.65 63.3135 33.9186 75.6819C33.9209 75.6819 28.641 76.7384 30.1491 74.9285Z" fill="#CFA2FF"/>
<path fill-rule="evenodd" clip-rule="evenodd" d="M129.862 30.8799C127.9 26.6553 126.392 30.2762 126.392 30.2762C125.186 33.896 116.738 43.4005 115.078 45.0594C108.139 51.0939 110.552 47.3209 109.949 44.6066C109.949 44.6066 110.25 39.6286 111.609 38.5722C111.609 38.5722 112.362 38.874 112.965 35.8568C112.965 35.8568 114.625 31.9352 110.1 31.1806C110.1 31.1806 107.081 29.0689 105.573 35.1033C105.573 35.1033 103.009 46.4165 106.63 51.5443C106.63 51.5443 108.441 54.8645 117.944 45.6631C121.111 42.344 126.089 36.6114 126.089 36.6114C131.37 46.2656 123.373 48.8289 123.373 48.8289C120.356 50.7909 123.373 51.2448 123.373 51.2448C135.894 51.5443 136.8 44.003 136.8 44.003C137.103 38.5733 129.862 30.8799 129.862 30.8799ZM98.7863 8.10147C98.7863 8.10147 94.8636 2.97252 95.4673 8.8549C95.4673 8.8549 96.0709 21.0736 93.9592 36.3095C93.8083 35.707 93.5065 35.1033 93.0537 34.4997C93.0537 34.4997 89.5837 29.8235 85.6621 31.1818C85.6621 31.1818 80.532 32.6898 77.6668 40.3844C77.6668 40.3844 75.5551 45.5134 76.1588 49.5859C76.1588 49.5859 76.0079 59.8426 88.6794 52.6031C88.6794 52.6031 89.8855 51.6976 91.5457 50.1895C91.2438 51.3957 90.7911 52.3012 90.6401 53.6595C90.6401 53.6595 90.1874 56.3749 91.5457 57.1272C91.9984 57.2793 92.4512 56.9774 93.5076 54.262C93.5076 54.262 102.558 31.3315 103.011 21.8282C103.01 21.8282 106.178 17.0023 98.7863 8.10147ZM83.2486 49.5859C83.2486 49.5859 82.1921 48.9822 82.343 46.1159C82.343 46.1159 82.4939 41.2899 85.813 37.5181C85.813 37.5181 86.7186 36.3107 87.472 36.161C87.7738 36.161 88.2266 36.4628 88.3775 37.9708C88.3775 38.2727 87.3211 38.4236 87.7738 39.6298C87.7738 39.6298 89.4328 44.0041 93.2034 42.0433C93.0537 42.9489 92.9016 43.8532 92.6009 44.7587C90.7911 47.322 86.7186 51.9994 83.2486 49.5859ZM170.441 29.3719C170.441 29.3719 161.842 42.1943 161.992 46.4177C161.992 46.4177 161.54 50.3416 166.065 50.1895C166.065 50.1895 170.59 50.0398 173.759 47.322C173.759 47.322 175.87 45.2103 177.077 45.0606C177.077 45.0606 179.944 45.3624 179.039 41.4408C179.039 41.4408 178.133 37.0665 176.927 35.4064C176.927 35.4064 176.019 33.4456 174.813 34.2002C174.813 34.2002 173.607 34.6529 173.907 36.7635L174.513 38.5745C174.513 38.5745 175.869 42.7991 174.965 42.9489C174.965 42.9489 174.663 42.9489 174.209 43.4016C173.907 43.5526 173.456 44.1562 172.853 44.6078C172.853 44.6078 168.932 47.1723 169.836 43.5514C169.836 43.5514 170.287 41.2887 170.891 39.9316C170.891 39.9316 173.003 33.7462 175.569 30.4272C175.569 30.4272 177.832 27.5608 174.965 27.8627C174.813 27.8627 174.361 28.0124 174.209 27.8627C174.211 27.8627 172.702 26.5056 170.441 29.3719ZM152.491 35.1045C150.983 34.0481 149.321 30.5793 150.681 28.9191C151.132 28.1645 152.338 27.4111 152.189 26.3546C151.887 24.092 147.813 26.5056 147.057 29.221C145.549 33.2935 141.024 36.0089 141.024 36.0089C140.42 36.6126 140.119 38.2715 140.119 38.2715C140.119 41.4397 141.928 39.177 141.928 39.177C143.549 37.9858 145.158 36.7792 146.756 35.5573C152.037 45.2115 144.04 47.776 144.04 47.776C142.985 48.2276 142.684 48.6815 142.684 49.284C142.684 50.1895 144.04 50.1895 144.04 50.1895C156.411 50.4914 157.466 42.9489 157.466 42.9489C158.07 39.6286 154.602 36.4616 152.491 35.1045ZM72.5391 50.0398C72.5391 50.0398 72.5391 49.8877 72.3882 49.7356C72.0875 49.4361 70.4274 50.1895 68.9193 51.246C68.6175 51.3957 68.3157 51.5455 68.1647 51.6976C67.561 51.9994 66.9585 52.3013 66.8064 52.6031C66.8064 52.6031 65.75 53.3589 65.75 51.5466V51.3969C65.9009 51.0951 65.9009 50.4914 65.9009 49.8889C65.9009 49.8889 67.4101 44.1562 68.0138 42.6482C68.0138 42.6482 68.3157 41.1402 68.9193 39.3291C68.9193 39.3291 71.3329 36.7647 66.8064 36.0112C66.8064 36.0112 64.6947 30.7314 62.4321 39.0285C62.1302 38.1229 61.3756 36.9156 60.1695 36.3119C60.0185 36.1621 59.5658 36.1622 59.113 36.0112C58.9621 36.0112 58.8112 36.1622 58.5093 36.0112C58.5093 36.0112 56.2467 35.2566 53.9841 38.1229C51.5705 40.8383 44.3298 49.4385 45.9888 56.678C45.9888 56.678 46.8943 60.2977 50.2122 60.2977C50.2122 60.2977 54.5866 60.4474 57.9056 57.2805C57.9056 57.2805 58.8112 56.3749 59.8676 55.0166C60.0185 55.4706 60.0185 56.0731 60.1695 56.5247V56.8265C60.1695 56.8265 60.3204 57.5823 61.075 58.1848C61.5277 58.6364 62.2812 59.0903 63.6395 58.9382C63.7904 58.7885 63.9413 58.7885 64.0922 58.7885C64.0922 58.7885 68.6175 57.5823 68.6175 55.6192C68.4666 54.7136 68.9193 54.5639 68.9193 54.5639C68.9193 54.5639 69.0703 54.4118 69.0703 53.9602C69.0691 53.9614 72.6888 51.5455 72.5391 50.0398ZM59.2639 52.754C58.9621 53.3577 58.5093 53.9602 57.6038 54.7136C57.6038 54.7136 52.4748 57.7309 52.6258 53.3577C52.6258 53.3577 52.7767 50.9441 53.6822 48.6803C53.6822 48.6803 55.9448 42.7968 59.5658 39.3268C59.8676 39.0261 60.1695 39.0261 60.4713 39.1759C60.9241 39.9305 61.075 40.6839 61.3768 41.2887C61.5277 41.4397 61.5277 41.7415 61.6787 41.8924C61.2259 44.0041 60.1706 48.2276 60.0197 51.3957C59.8664 51.8497 59.5658 52.3013 59.2639 52.754ZM23.9638 28.7682C23.6619 28.1645 22.9073 28.4664 21.0974 31.3327C21.0974 31.3327 5.86151 57.1272 2.69335 69.4992C2.69335 69.4992 -0.62455 77.946 3.89954 80.9633C3.89954 80.9633 4.95599 82.6234 6.16217 82.9252C6.46402 84.7351 7.21862 86.3929 8.42481 85.7904C8.87757 85.6406 8.87757 84.1326 8.87757 82.6234C8.87757 81.4172 9.02849 80.3596 9.17941 79.454C9.17941 79.1522 9.33033 78.8504 9.48125 78.3988C9.48125 78.3988 9.48125 78.0946 9.63218 77.643V77.3412C11.1402 71.9115 18.0802 44.7576 23.6607 33.2923C23.6619 33.2935 25.0202 30.5781 23.9638 28.7682Z" fill="#CFA2FF"/>
<path fill-rule="evenodd" clip-rule="evenodd" d="M47.1949 72.0611C47.1949 72.0611 34.0706 52.2999 32.7135 48.0765C32.7135 48.0765 32.1098 46.4163 31.3552 45.512H34.2215C34.2215 45.512 41.1604 45.3611 44.1776 39.9315C44.931 38.4222 46.5912 33.2933 40.5567 26.9582C40.5567 26.9582 32.8644 17.9064 15.6665 16.8512C15.6665 16.8512 10.9903 14.5885 2.08954 21.9801C2.08954 21.9801 -1.38046 24.5446 0.580329 25.298C1.48585 25.5999 2.08954 25.4489 2.84296 25.298C2.84296 25.298 17.3243 20.4709 35.2756 30.7288C35.2756 30.7288 42.3654 35.2541 37.8401 39.6284C37.8401 39.6284 36.1812 41.5904 31.6559 42.3438L28.4877 42.7966C28.4877 42.7966 27.4313 42.7966 26.0742 42.9475C26.0742 42.9475 24.2643 42.9475 24.1134 43.4003C23.9625 43.7021 24.2643 43.853 25.3196 44.3058C23.3588 44.6076 22.7551 44.7586 22.3023 45.3623C22.3023 45.3623 21.8496 45.8138 22.0005 46.2678C23.3576 49.5857 29.0902 63.1615 41.9126 73.8722C41.9126 73.8722 49.4551 79.7557 50.9632 78.2477C51.5704 77.7961 49.7593 75.3802 47.1949 72.0611ZM209.359 47.3219C207.248 45.9659 201.516 34.4995 201.516 34.4995C200.158 32.5387 197.896 34.9522 197.896 34.9522C196.388 36.1596 194.277 39.9315 193.219 42.0432C191.711 44.6076 192.164 41.2886 192.164 41.2886C192.164 40.383 192.466 39.0259 193.37 38.4222C193.37 38.4222 194.123 39.0259 195.028 36.1596C195.028 36.1596 196.688 32.2369 192.614 31.1816C192.614 31.1816 189.749 28.768 187.787 34.6516C187.787 34.6516 185.072 43.0996 186.279 48.2274C186.279 48.2274 186.731 54.4128 191.861 49.5857C192.464 49.1317 192.916 48.3795 193.519 47.6237C194.575 45.9659 194.877 45.3623 195.63 43.5512C196.989 40.6849 199.25 37.9695 199.552 37.5167C199.25 40.9867 203.324 50.1882 203.324 50.1882C204.682 54.8655 206.943 54.7135 206.943 54.7135C218.714 55.1674 209.359 47.3219 209.359 47.3219ZM211.169 34.6516C212.375 34.6516 213.433 35.708 213.433 36.9142C213.433 38.2713 212.377 39.1769 211.169 39.1769C209.962 39.1769 208.908 38.2713 208.908 36.9142C208.908 35.7069 209.963 34.6516 211.169 34.6516ZM211.169 39.6284C211.526 39.63 211.88 39.5608 212.21 39.4249C212.54 39.289 212.84 39.0891 213.093 38.8366C213.345 38.5841 213.545 38.2842 213.681 37.954C213.817 37.6239 213.886 37.2701 213.885 36.913C213.885 35.4038 212.678 34.3486 211.169 34.3486C209.66 34.3486 208.454 35.405 208.454 36.913C208.452 37.2701 208.521 37.6239 208.657 37.954C208.793 38.2842 208.993 38.5841 209.246 38.8366C209.498 39.0891 209.798 39.289 210.128 39.4249C210.458 39.5608 210.812 39.63 211.169 39.6284ZM211.623 37.0651C212.075 37.0651 212.377 36.9142 212.377 36.3105C212.377 35.708 211.925 35.405 211.321 35.405H210.115V38.5732H210.567V37.0651H211.17L211.926 38.5732H212.378L211.623 37.0651ZM211.321 35.8578C211.623 35.8578 211.925 36.0087 211.925 36.3105C211.925 36.7633 211.471 36.6124 211.02 36.6124H210.566V35.8578H211.321Z" fill="#CFA2FF"/>
<path fill-rule="evenodd" clip-rule="evenodd" d="M183.263 57.4287C185.677 57.5808 188.542 57.5808 192.314 58.0324C194.276 58.1845 197.443 58.1845 197.895 59.3907C198.197 60.5969 196.689 61.8042 194.124 62.4079C192.768 62.7098 191.862 62.8595 190.656 62.8595C189.146 62.8595 185.979 62.8595 185.979 61.2017C185.826 60.1453 183.867 60.1453 182.509 60.1453C179.793 59.9955 180.095 59.2398 180.699 58.3354C180.999 57.7305 181.755 57.4287 183.263 57.4287Z" fill="#CFA2FF"/>
</g>
<defs>
<clipPath id="clip0_4003_4773">
<rect width="214" height="92" fill="white"/>
</clipPath>
</defs>
</svg>
