<svg width="473" height="72" viewBox="0 0 473 72" fill="none" xmlns="http://www.w3.org/2000/svg">
<g clip-path="url(#clip0_4003_4652)">
<path d="M380 14.4541V57.912H389.393V40.1592H409.423V57.912H418.816V14.4541H409.423V32.2714H389.393V14.4541H380Z" fill="#CFA2FF"/>
<path d="M439.972 40.3848H445.819L460.24 57.9156H472.381L453.159 35.438L469.955 14.4541H459.156L445.159 33.081H439.972V14.4541H430.573V57.9156H439.972V40.3848Z" fill="#CFA2FF"/>
<path d="M363.85 57.912H373.741L355.398 14.4541H345.815L327.03 57.912H336.548L340.324 49.161H360.293L363.85 57.912ZM343.134 41.9108L350.413 24.4625L357.253 41.9108H343.134Z" fill="#CFA2FF"/>
<path d="M307.378 31.3938H295.944V21.6899H320.518L320.539 14.4541H286.548V57.912H306.165C317.169 57.912 323.482 52.9365 323.482 44.2607C323.482 35.9645 317.761 31.3938 307.378 31.3938ZM305.742 50.6762H295.944V38.6296H305.742C311.707 38.6296 314.485 40.6463 314.485 44.6547C314.485 48.749 311.542 50.6762 305.742 50.6762Z" fill="#CFA2FF"/>
<path d="M211.782 21.6899L221.619 14.4541H188.697V57.9156H221.619V50.6762H198.093V39.5502H218.159V32.3144H198.093V21.6899H211.782Z" fill="#CFA2FF"/>
<path d="M163.846 31.3938H152.411V21.6899H170.662L180.499 14.4541H143.015V57.9156H162.633C173.637 57.9156 179.947 52.9365 179.947 44.2607C179.947 35.9645 174.229 31.3938 163.846 31.3938ZM162.21 50.6762H152.411V38.6296H162.21C168.171 38.6296 170.949 40.6463 170.949 44.6547C170.949 48.749 168.009 50.6762 162.21 50.6762Z" fill="#CFA2FF"/>
<path d="M248.293 14.4541H230.369V57.912H239.761V45.604H248.293C259.731 45.604 266.837 39.6004 266.837 30.0075C266.837 20.4147 259.731 14.4541 248.293 14.4541ZM248.084 38.3681H239.761V21.6899H248.084C254.107 21.6899 257.416 24.6523 257.416 30.029C257.416 35.4057 254.103 38.3681 248.084 38.3681Z" fill="#CFA2FF"/>
<path d="M126.886 48.5063C124.396 49.8524 121.606 50.5498 118.775 50.5338C110.305 50.5338 104.157 44.498 104.157 36.1839C104.157 27.8699 110.305 21.852 118.775 21.852C121.836 21.8075 124.832 22.7441 127.32 24.5242L134.061 19.5666L133.616 19.1762C129.668 15.7266 124.424 13.9033 118.412 13.9033C111.891 13.9033 105.973 16.0956 101.748 20.0824C97.5241 24.0693 95.1589 29.729 95.1589 35.9618C95.1589 42.1947 97.4918 47.9475 101.727 52.0812C105.962 56.215 111.877 58.5075 118.351 58.5075C125.124 58.5075 131.039 56.1505 135.051 51.8627L128.968 47.3887L126.886 48.5063Z" fill="#CFA2FF"/>
<path d="M72.8066 35.9703C72.8073 33.819 72.6151 31.6719 72.2324 29.5548L64.5052 35.236C64.5052 35.4796 64.5052 35.7267 64.5052 35.9524C64.5136 42.1164 62.4531 48.1057 58.6524 52.9642C54.8517 57.8228 49.5299 61.2707 43.5363 62.7577C37.5427 64.2447 31.2227 63.685 25.5851 61.1681C19.9474 58.6511 15.317 54.3219 12.4327 48.8713C9.54849 43.4208 8.57667 37.163 9.67237 31.0968C10.7681 25.0305 13.8682 19.5054 18.4779 15.4032C23.0876 11.301 28.9412 8.85809 35.1046 8.46441C41.268 8.07073 47.3859 9.74895 52.4819 13.2312L59.4626 8.0945C53.1282 2.99272 45.2444 0.191449 37.1049 0.150361C28.9654 0.109273 21.0536 2.83081 14.6679 7.86838C8.28215 12.906 3.80175 19.9603 1.96189 27.8739C0.122029 35.7875 1.032 44.0903 4.54248 51.4198C8.05296 58.7492 13.9554 64.6701 21.2813 68.2107C28.6072 71.7513 36.9214 72.7014 44.8595 70.905C52.7977 69.1087 59.8882 64.6725 64.9677 58.3247C70.0472 51.9768 72.8139 44.0942 72.8138 35.9703H72.8066Z" fill="#CFA2FF"/>
<path d="M65.3163 14.0693C67.0226 16.2691 68.4678 18.6588 69.6231 21.1905L36.9162 45.2478L23.2527 36.6974V26.4132L36.9162 34.9601L65.3163 14.0693Z" fill="#CFA2FF"/>
</g>
<defs>
<clipPath id="clip0_4003_4652">
<rect width="471.6" height="72" fill="white" transform="translate(0.799805)"/>
</clipPath>
</defs>
</svg>
