<svg width="471" height="92" viewBox="0 0 471 92" fill="none" xmlns="http://www.w3.org/2000/svg">
<g clip-path="url(#clip0_4003_4652)">
<path d="M379 24.4541V67.912H388.393V50.1592H408.423V67.912H417.816V24.4541H408.423V42.2714H388.393V24.4541H379Z" fill="#CFA2FF"/>
<path d="M438.972 50.3848H444.819L459.24 67.9156H471.381L452.159 45.438L468.955 24.4541H458.156L444.159 43.081H438.972V24.4541H429.573V67.9156H438.972V50.3848Z" fill="#CFA2FF"/>
<path d="M362.85 67.912H372.741L354.398 24.4541H344.815L326.03 67.912H335.548L339.324 59.161H359.293L362.85 67.912ZM342.134 51.9108L349.413 34.4625L356.253 51.9108H342.134Z" fill="#CFA2FF"/>
<path d="M306.378 41.3938H294.944V31.6899H319.518L319.539 24.4541H285.548V67.912H305.165C316.169 67.912 322.482 62.9365 322.482 54.2607C322.482 45.9645 316.761 41.3938 306.378 41.3938ZM304.742 60.6762H294.944V48.6296H304.742C310.707 48.6296 313.485 50.6463 313.485 54.6547C313.485 58.749 310.542 60.6762 304.742 60.6762Z" fill="#CFA2FF"/>
<path d="M210.782 31.6899L220.619 24.4541H187.697V67.9156H220.619V60.6762H197.093V49.5502H217.159V42.3144H197.093V31.6899H210.782Z" fill="#CFA2FF"/>
<path d="M162.846 41.3938H151.411V31.6899H169.662L179.499 24.4541H142.015V67.9156H161.633C172.637 67.9156 178.947 62.9365 178.947 54.2607C178.947 45.9645 173.229 41.3938 162.846 41.3938ZM161.21 60.6762H151.411V48.6296H161.21C167.171 48.6296 169.949 50.6463 169.949 54.6547C169.949 58.749 167.009 60.6762 161.21 60.6762Z" fill="#CFA2FF"/>
<path d="M247.293 24.4541H229.369V67.912H238.761V55.604H247.293C258.731 55.604 265.837 49.6004 265.837 40.0075C265.837 30.4147 258.731 24.4541 247.293 24.4541ZM247.084 48.3681H238.761V31.6899H247.084C253.107 31.6899 256.416 34.6523 256.416 40.029C256.416 45.4057 253.103 48.3681 247.084 48.3681Z" fill="#CFA2FF"/>
<path d="M125.886 58.5063C123.396 59.8524 120.606 60.5498 117.775 60.5338C109.305 60.5338 103.157 54.498 103.157 46.1839C103.157 37.8699 109.305 31.852 117.775 31.852C120.836 31.8075 123.832 32.7441 126.32 34.5242L133.061 29.5666L132.616 29.1762C128.668 25.7266 123.424 23.9033 117.412 23.9033C110.891 23.9033 104.973 26.0956 100.748 30.0824C96.5241 34.0693 94.1589 39.729 94.1589 45.9618C94.1589 52.1947 96.4918 57.9475 100.727 62.0812C104.962 66.215 110.877 68.5075 117.351 68.5075C124.124 68.5075 130.039 66.1505 134.051 61.8627L127.968 57.3887L125.886 58.5063Z" fill="#CFA2FF"/>
<path d="M71.8066 45.9703C71.8073 43.819 71.6151 41.6719 71.2324 39.5548L63.5052 45.236C63.5052 45.4796 63.5052 45.7267 63.5052 45.9524C63.5136 52.1164 61.4531 58.1057 57.6524 62.9642C53.8517 67.8228 48.5299 71.2707 42.5363 72.7577C36.5427 74.2447 30.2227 73.685 24.5851 71.1681C18.9474 68.6511 14.317 64.3219 11.4327 58.8713C8.54849 53.4208 7.57667 47.163 8.67237 41.0968C9.76808 35.0305 12.8682 29.5054 17.4779 25.4032C22.0876 21.301 27.9412 18.8581 34.1046 18.4644C40.268 18.0707 46.3859 19.7489 51.4819 23.2312L58.4626 18.0945C52.1282 12.9927 44.2444 10.1914 36.1049 10.1504C27.9654 10.1093 20.0536 12.8308 13.6679 17.8684C7.28215 22.906 2.80175 29.9603 0.961891 37.8739C-0.877971 45.7875 0.0319972 54.0903 3.54248 61.4198C7.05296 68.7492 12.9554 74.6701 20.2813 78.2107C27.6072 81.7513 35.9214 82.7014 43.8595 80.905C51.7977 79.1087 58.8882 74.6725 63.9677 68.3247C69.0472 61.9768 71.8139 54.0942 71.8138 45.9703H71.8066Z" fill="#CFA2FF"/>
<path d="M64.3163 24.0693C66.0226 26.2691 67.4678 28.6588 68.6231 31.1905L35.9162 55.2478L22.2527 46.6974V36.4132L35.9162 44.9601L64.3163 24.0693Z" fill="#CFA2FF"/>
</g>
<defs>
<clipPath id="clip0_4003_4652">
<rect width="471" height="92" fill="white"/>
</clipPath>
</defs>
</svg>
