<svg width="401" height="70" viewBox="0 0 401 70" fill="none" xmlns="http://www.w3.org/2000/svg">
<g clip-path="url(#clip0_4003_4760)">
<path d="M121.77 43.4293C121.77 48.7435 116.826 52.5917 109.867 52.5917H93.5703V19.6074H109.318C116.093 19.6074 120.854 23.2724 120.854 28.4032C120.854 31.8848 119.023 34.0839 116.276 35.3666C119.206 36.466 121.77 39.3979 121.77 43.4293ZM100.712 25.6545V32.8011H109.135C111.698 32.8011 113.347 31.3352 113.347 29.3195C113.347 27.3038 111.515 25.6545 109.135 25.6545H100.712ZM109.867 46.5446C112.614 46.5446 114.628 44.8954 114.628 42.5132C114.628 40.131 112.797 38.4818 109.867 38.4818H100.712V46.5446H109.867Z" fill="#CFA2FF"/>
<path d="M148.687 52.4084L137.334 39.398H135.503V52.4084H128.179V19.6074H135.503V32.2513H137.334L148.321 19.6074H156.928L143.194 35.3666L158.209 52.4084H148.687Z" fill="#CFA2FF"/>
<path d="M158.209 36.1C158.209 26.2047 165.535 19.0581 175.788 19.0581C186.043 19.0581 193.367 26.2047 193.367 36.1C193.367 45.9953 186.043 53.1418 175.788 53.1418C165.535 53.1418 158.209 45.9953 158.209 36.1ZM185.677 36.1C185.677 29.8696 181.648 25.655 175.788 25.655C169.928 25.655 165.9 29.8696 165.9 36.1C165.9 42.3303 169.928 46.5451 175.788 46.5451C181.648 46.5451 185.677 42.3303 185.677 36.1Z" fill="#CFA2FF"/>
<path d="M221.383 19.6074H228.709V52.4084H221.383V39.2147H206.734V52.4084H199.41V19.6074H206.734V32.6178H221.383V19.6074Z" fill="#CFA2FF"/>
<path d="M244.456 52.4084V26.2042H233.103V19.6074H262.95V26.2042H251.597V52.4084H244.456Z" fill="#CFA2FF"/>
<path d="M294.444 34.0838V52.4084H289.134L287.669 47.2775C286.021 50.0262 282.543 53.1414 277.233 53.1414C270.64 53.1414 265.879 48.7435 265.879 42.6963C265.879 36.6492 270.64 32.4346 280.345 32.4346H287.486C287.12 28.2199 284.923 25.2881 280.895 25.2881C277.598 25.2881 275.401 27.1205 274.302 29.1362L267.711 28.0367C269.359 22.3561 275.035 19.0576 281.26 19.0576C289.318 19.0576 294.444 24.555 294.444 34.0838ZM287.304 38.1153H280.529C275.035 38.1153 273.203 39.9477 273.203 42.3298C273.203 45.0785 275.401 46.9111 279.063 46.9111C283.824 46.9111 287.304 43.4294 287.304 38.1153Z" fill="#CFA2FF"/>
<path d="M322.644 52.4084L311.292 39.398H309.46V52.4084H302.136V19.6074H309.46V32.2513H311.292L322.278 19.6074H330.885L317.151 35.3666L332.166 52.4084H322.644Z" fill="#CFA2FF"/>
<path d="M345.35 52.4084V26.2042H333.998V19.6074H363.846V26.2042H352.492V52.4084H345.35Z" fill="#CFA2FF"/>
<path d="M400.467 38.1158H374.099C374.832 43.2466 378.494 46.5451 383.987 46.5451C387.833 46.5451 390.763 44.8958 392.411 42.5136L399.186 43.6131C396.805 49.8435 390.396 53.1418 383.437 53.1418C373.55 53.1418 366.409 45.9953 366.409 36.1C366.409 26.2047 373.55 19.0581 383.437 19.0581C393.326 19.0581 400.467 26.2047 400.467 35.7336C400.651 36.6497 400.467 37.3828 400.467 38.1158ZM374.649 32.4351H392.777C391.495 28.4037 388.198 25.4717 383.621 25.4717C379.226 25.2885 375.747 28.2204 374.649 32.4351Z" fill="#CFA2FF"/>
<path fill-rule="evenodd" clip-rule="evenodd" d="M5.10062 4.92061C0.183594 9.84121 0.183594 17.7608 0.183594 33.6V36.4C0.183594 52.2393 0.183594 60.1587 5.10062 65.0794C10.0176 70 17.9314 70 33.7592 70H36.5571C52.3848 70 60.2986 70 65.2157 65.0794C70.1327 60.1587 70.1327 52.2393 70.1327 36.4V33.6C70.1327 17.7608 70.1327 9.84121 65.2157 4.92061C60.2986 0 52.3848 0 36.5571 0H33.7592C17.9314 0 10.0176 0 5.10062 4.92061ZM11.9873 21.2922C12.3662 39.4922 21.4594 50.4297 37.402 50.4297H38.3058V40.0172C44.164 40.6006 48.5937 44.8881 50.3716 50.4297H58.6492C56.3758 42.1464 50.4007 37.5672 46.6701 35.8172C50.4007 33.6589 55.6469 28.4089 56.9002 21.2922H49.3805C47.7483 27.0672 42.9108 32.3172 38.3058 32.8131V21.2922H30.786V41.4756C26.1227 40.3089 20.2355 34.6506 19.9732 21.2922H11.9873Z" fill="#CFA2FF"/>
</g>
<defs>
<clipPath id="clip0_4003_4760">
<rect width="400.75" height="70" fill="white" transform="translate(0.183594)"/>
</clipPath>
</defs>
</svg>
