<svg width="401" height="92" viewBox="0 0 401 92" fill="none" xmlns="http://www.w3.org/2000/svg">
<path d="M121.77 54.4293C121.77 59.7435 116.826 63.5917 109.867 63.5917H93.5703V30.6074H109.318C116.093 30.6074 120.854 34.2724 120.854 39.4032C120.854 42.8848 119.023 45.0839 116.276 46.3666C119.206 47.466 121.77 50.3979 121.77 54.4293ZM100.712 36.6545V43.8011H109.135C111.698 43.8011 113.347 42.3352 113.347 40.3195C113.347 38.3038 111.515 36.6545 109.135 36.6545H100.712ZM109.867 57.5446C112.614 57.5446 114.628 55.8954 114.628 53.5132C114.628 51.131 112.797 49.4818 109.867 49.4818H100.712V57.5446H109.867Z" fill="#CFA2FF"/>
<path d="M148.687 63.4084L137.334 50.398H135.503V63.4084H128.179V30.6074H135.503V43.2513H137.334L148.321 30.6074H156.928L143.194 46.3666L158.209 63.4084H148.687Z" fill="#CFA2FF"/>
<path d="M158.209 47.1C158.209 37.2047 165.535 30.0581 175.788 30.0581C186.043 30.0581 193.367 37.2047 193.367 47.1C193.367 56.9953 186.043 64.1418 175.788 64.1418C165.535 64.1418 158.209 56.9953 158.209 47.1ZM185.677 47.1C185.677 40.8696 181.648 36.655 175.788 36.655C169.928 36.655 165.9 40.8696 165.9 47.1C165.9 53.3303 169.928 57.5451 175.788 57.5451C181.648 57.5451 185.677 53.3303 185.677 47.1Z" fill="#CFA2FF"/>
<path d="M221.383 30.6074H228.709V63.4084H221.383V50.2147H206.734V63.4084H199.41V30.6074H206.734V43.6178H221.383V30.6074Z" fill="#CFA2FF"/>
<path d="M244.456 63.4084V37.2042H233.103V30.6074H262.95V37.2042H251.597V63.4084H244.456Z" fill="#CFA2FF"/>
<path d="M294.444 45.0838V63.4084H289.134L287.669 58.2775C286.021 61.0262 282.543 64.1413 277.233 64.1413C270.64 64.1413 265.879 59.7435 265.879 53.6963C265.879 47.6492 270.64 43.4346 280.345 43.4346H287.486C287.12 39.2199 284.923 36.2881 280.895 36.2881C277.598 36.2881 275.401 38.1205 274.302 40.1362L267.711 39.0367C269.359 33.3561 275.035 30.0576 281.26 30.0576C289.318 30.0576 294.444 35.555 294.444 45.0838ZM287.304 49.1153H280.529C275.035 49.1153 273.203 50.9477 273.203 53.3298C273.203 56.0785 275.401 57.9111 279.063 57.9111C283.824 57.9111 287.304 54.4294 287.304 49.1153Z" fill="#CFA2FF"/>
<path d="M322.644 63.4084L311.292 50.398H309.46V63.4084H302.136V30.6074H309.46V43.2513H311.292L322.278 30.6074H330.885L317.151 46.3666L332.166 63.4084H322.644Z" fill="#CFA2FF"/>
<path d="M345.35 63.4084V37.2042H333.998V30.6074H363.846V37.2042H352.492V63.4084H345.35Z" fill="#CFA2FF"/>
<path d="M400.467 49.1158H374.099C374.832 54.2466 378.494 57.5451 383.987 57.5451C387.833 57.5451 390.763 55.8958 392.411 53.5136L399.186 54.6131C396.805 60.8435 390.396 64.1418 383.437 64.1418C373.55 64.1418 366.409 56.9953 366.409 47.1C366.409 37.2047 373.55 30.0581 383.437 30.0581C393.326 30.0581 400.467 37.2047 400.467 46.7336C400.651 47.6497 400.467 48.3828 400.467 49.1158ZM374.649 43.4351H392.777C391.495 39.4037 388.198 36.4717 383.621 36.4717C379.226 36.2885 375.747 39.2204 374.649 43.4351Z" fill="#CFA2FF"/>
<path fill-rule="evenodd" clip-rule="evenodd" d="M5.10062 15.9206C0.183594 20.8412 0.183594 28.7608 0.183594 44.6V47.4C0.183594 63.2393 0.183594 71.1587 5.10062 76.0794C10.0176 81 17.9314 81 33.7592 81H36.5571C52.3848 81 60.2986 81 65.2157 76.0794C70.1327 71.1587 70.1327 63.2393 70.1327 47.4V44.6C70.1327 28.7608 70.1327 20.8412 65.2157 15.9206C60.2986 11 52.3848 11 36.5571 11H33.7592C17.9314 11 10.0176 11 5.10062 15.9206ZM11.9873 32.292C12.3662 50.492 21.4594 61.4295 37.402 61.4295H38.3058V51.017C44.164 51.6003 48.5937 55.8878 50.3716 61.4295H58.6492C56.3758 53.1462 50.4007 48.567 46.6701 46.817C50.4007 44.6587 55.6469 39.4087 56.9002 32.292H49.3805C47.7483 38.067 42.9108 43.317 38.3058 43.8128V32.292H30.786V52.4753C26.1227 51.3087 20.2355 45.6503 19.9732 32.292H11.9873Z" fill="#CFA2FF"/>
</svg>
