<svg width="485" height="80" viewBox="0 0 485 80" fill="none" xmlns="http://www.w3.org/2000/svg">
<g clip-path="url(#clip0_4003_4644)">
<path fill-rule="evenodd" clip-rule="evenodd" d="M131.827 60.9595H120.116L101.859 12.1927H113.707L123.113 39.708C124.22 42.9422 125.196 46.2182 126.04 49.5284C126.875 46.1595 127.782 43.2063 128.896 40.0498L138.651 12.1927H150.359L131.827 60.9595ZM172.585 45.8454C172.585 49.8918 169.673 53.5318 165.306 53.5318C161.493 53.5318 157.959 50.3753 157.959 45.9839C157.959 41.8698 160.733 38.2298 165.237 38.2298C169.325 38.2329 172.585 41.5279 172.585 45.8454ZM182.597 45.8454C182.597 36.5946 175.296 29.7859 165.303 29.7859C154.944 29.7859 147.941 36.8718 147.941 45.7807C147.941 55.2471 155.363 61.985 164.818 61.985C176.2 61.985 182.597 54.0153 182.597 45.8454ZM190.181 60.9595V9.49512H200.09V60.9595H190.181ZM228.487 60.9595L218.86 46.8616V60.9595H208.951V9.49512H218.86V43.2247L228.487 30.8729H240.629L228.837 44.7337L241.464 60.9595H228.487ZM256.34 61.8618C249.312 61.8618 245.674 59.6015 243.788 54.7235L252.18 51.5055C252.949 53.4917 254.567 54.933 256.625 54.933C258.611 54.933 259.818 54.1754 259.818 52.8758C259.818 48.4845 244.836 50.403 244.836 39.9143C244.836 34.4297 249.381 29.8998 257.191 29.8998C262.949 29.8998 266.984 31.9569 269.001 36.9672L261.066 39.9851C260.09 37.5862 258.395 36.8286 256.762 36.8286C255.486 36.8286 254.066 37.5862 254.066 38.9566C254.066 43.7575 269.07 41.5618 269.07 52.1152C269.073 58.2249 263.574 61.8618 256.34 61.8618ZM316.934 60.9595H307.582L302.349 46.1564C301.796 44.6837 301.375 43.1658 301.092 41.6203C300.767 43.177 300.348 44.7133 299.838 46.2211L294.602 60.9564H284.831L271.641 30.799H281.969L287.762 45.3311C288.459 46.9786 288.947 48.8325 289.507 50.6186C289.995 48.8325 290.483 46.9078 290.974 45.4697L296.138 30.799H306.328L311.142 44.5058C311.842 46.5629 312.468 48.4876 312.887 50.4831C313.584 48.2166 314.282 46.218 314.979 44.5058L320.422 30.799H330.543L316.934 60.9595ZM357.095 46.3997C357.095 50.52 354.371 54.2955 349.76 54.2955C345.009 54.2955 342.144 50.517 342.144 46.0486C342.144 41.4479 345.288 38.3622 349.41 38.3622C354.092 38.3653 357.095 42.0699 357.095 46.3997ZM366.525 60.9564V30.876H356.748V34.3774C355.071 31.8368 351.437 29.9152 347.174 29.9152C337.687 29.9152 331.976 36.8502 331.976 46.3288C331.976 55.4657 337.409 61.9911 346.266 61.9911C351.018 61.9911 354.23 60.3436 356.748 57.8646V60.9564H366.525ZM398.575 45.522C398.575 49.5746 395.995 53.1438 391.607 53.1438C387.006 53.1438 384.216 50.0581 384.216 45.5959C384.216 41.6142 387.075 38.2452 391.256 38.2452C396.273 38.2452 398.575 42.2978 398.575 45.522ZM408.074 58.0925V30.8514H398.294V34.2727C396.411 31.3287 392.93 30.0291 388.676 30.0291C380.384 30.0291 374.044 36.7393 374.044 45.7992C374.044 53.7627 378.642 60.7039 388.398 60.7039C392.232 60.7039 395.576 59.6045 398.294 56.6513V60.9102C398.294 65.8066 396.067 68.4273 391.466 68.4273C388.47 68.4273 385.611 66.5642 385.611 63.9404H375.79C375.79 70.5552 381.291 75.7164 390.84 75.7164C396.414 75.7164 400.655 74.4107 404.058 71.1741C407.105 68.147 408.074 64.7688 408.074 58.0925ZM437.532 42.4826H425.271C425.618 39.1444 428.001 36.6901 431.576 36.6901C435.292 36.6931 437.532 39.6217 437.532 42.4826ZM447.312 45.5097C447.312 35.5199 440.935 29.7859 431.648 29.7859C422.131 29.7859 415.644 36.8317 415.644 46.1225C415.644 56.7437 423.316 61.9757 431.576 61.9757C438.645 61.9757 443.08 59.5707 446.618 55.0223L440.24 50.8896C438.229 53.5287 435.786 54.8098 432.627 54.8098C428.358 54.8098 425.412 51.9705 425.199 48.2474H447.247C447.312 47.0864 447.312 46.0579 447.312 45.5097ZM475.415 60.9595V44.2872C475.415 41.5372 474.511 38.3684 470.761 38.3684C468.819 38.3684 464.725 39.4739 464.725 45.1094V60.9564H454.816V30.839H464.725V34.8116C466.179 32.8222 469.025 30.1554 474.577 30.1554C478.481 30.1554 480.998 31.5227 482.597 33.0994C484.551 35.0179 485.321 37.4846 485.321 41.8821V60.9595H475.415Z" fill="#CFA2FF"/>
<path fill-rule="evenodd" clip-rule="evenodd" d="M7.86066 39.5199C7.86066 52.7171 15.8453 64.079 27.3167 69.1794L9.42198 29.6114C8.38441 32.8149 7.85771 36.1575 7.86066 39.5199ZM14.0604 20.5503L29.5865 54.8835L36.0256 40.6674H45.7735L52.2166 54.8757L67.7387 20.5503C65.1049 16.9452 61.7525 13.9065 57.886 11.6197L45.7735 38.3725H36.0256L23.9171 11.6178C20.0481 13.9035 16.694 16.9432 14.0604 20.5503ZM72.3732 29.6114L54.4784 69.1794C65.9498 64.081 73.9305 52.719 73.9305 39.5199C73.9305 36.0638 73.3863 32.7363 72.3732 29.6114ZM50.5979 70.6211L40.9015 49.1752L31.2052 70.6211C34.2704 71.5465 37.5236 72.0433 40.8976 72.0433C44.2755 72.0433 47.5307 71.5445 50.5979 70.6211ZM31.2052 8.4188L40.9015 29.8646L50.5979 8.42075C47.5287 7.49341 44.2715 6.99661 40.8976 6.99661C37.5236 6.99661 34.2684 7.49341 31.2052 8.4188ZM1 39.5199C1 17.8267 18.8631 0.238281 40.8976 0.238281C62.9321 0.238281 80.7951 17.8247 80.7951 39.5199C80.7951 61.2151 62.9321 78.8016 40.8976 78.8016C18.8631 78.8016 1 61.2151 1 39.5199Z" fill="#CFA2FF"/>
</g>
<defs>
<clipPath id="clip0_4003_4644">
<rect width="485" height="80" fill="white"/>
</clipPath>
</defs>
</svg>
