<svg width="485" height="92" viewBox="0 0 485 92" fill="none" xmlns="http://www.w3.org/2000/svg">
<g clip-path="url(#clip0_4003_4644)">
<path fill-rule="evenodd" clip-rule="evenodd" d="M131.827 66.9595H120.116L101.859 18.1927H113.707L123.113 45.708C124.22 48.9422 125.196 52.2182 126.04 55.5284C126.875 52.1595 127.782 49.2063 128.896 46.0498L138.651 18.1927H150.359L131.827 66.9595ZM172.585 51.8454C172.585 55.8918 169.673 59.5318 165.306 59.5318C161.493 59.5318 157.959 56.3753 157.959 51.9839C157.959 47.8698 160.733 44.2298 165.237 44.2298C169.325 44.2329 172.585 47.5279 172.585 51.8454ZM182.597 51.8454C182.597 42.5946 175.296 35.7859 165.303 35.7859C154.944 35.7859 147.941 42.8718 147.941 51.7807C147.941 61.2471 155.363 67.985 164.818 67.985C176.2 67.985 182.597 60.0153 182.597 51.8454ZM190.181 66.9595V15.4951H200.09V66.9595H190.181ZM228.487 66.9595L218.86 52.8616V66.9595H208.951V15.4951H218.86V49.2247L228.487 36.8729H240.629L228.837 50.7337L241.464 66.9595H228.487ZM256.34 67.8618C249.312 67.8618 245.674 65.6015 243.788 60.7235L252.18 57.5055C252.949 59.4917 254.567 60.933 256.625 60.933C258.611 60.933 259.818 60.1754 259.818 58.8758C259.818 54.4845 244.836 56.403 244.836 45.9143C244.836 40.4297 249.381 35.8998 257.191 35.8998C262.949 35.8998 266.984 37.9569 269.001 42.9672L261.066 45.9851C260.09 43.5862 258.395 42.8286 256.762 42.8286C255.486 42.8286 254.066 43.5862 254.066 44.9566C254.066 49.7575 269.07 47.5618 269.07 58.1152C269.073 64.2249 263.574 67.8618 256.34 67.8618ZM316.934 66.9595H307.582L302.349 52.1564C301.796 50.6838 301.375 49.1658 301.092 47.6203C300.767 49.177 300.348 50.7133 299.838 52.2211L294.602 66.9564H284.831L271.641 36.799H281.969L287.762 51.3311C288.459 52.9786 288.947 54.8325 289.507 56.6186C289.995 54.8325 290.483 52.9078 290.974 51.4697L296.138 36.799H306.328L311.142 50.5058C311.842 52.5629 312.468 54.4876 312.887 56.4831C313.584 54.2166 314.282 52.218 314.979 50.5058L320.422 36.799H330.543L316.934 66.9595ZM357.095 52.3997C357.095 56.52 354.371 60.2955 349.76 60.2955C345.009 60.2955 342.144 56.517 342.144 52.0486C342.144 47.4479 345.288 44.3622 349.41 44.3622C354.092 44.3653 357.095 48.0699 357.095 52.3997ZM366.525 66.9564V36.876H356.748V40.3774C355.071 37.8368 351.437 35.9152 347.174 35.9152C337.687 35.9152 331.976 42.8502 331.976 52.3288C331.976 61.4657 337.409 67.9911 346.266 67.9911C351.018 67.9911 354.23 66.3436 356.748 63.8646V66.9564H366.525ZM398.575 51.522C398.575 55.5746 395.995 59.1438 391.607 59.1438C387.006 59.1438 384.216 56.0581 384.216 51.5959C384.216 47.6142 387.075 44.2452 391.256 44.2452C396.273 44.2452 398.575 48.2978 398.575 51.522ZM408.074 64.0925V36.8514H398.294V40.2727C396.411 37.3287 392.93 36.0291 388.676 36.0291C380.384 36.0291 374.044 42.7393 374.044 51.7992C374.044 59.7627 378.642 66.7039 388.398 66.7039C392.232 66.7039 395.576 65.6045 398.294 62.6513V66.9102C398.294 71.8066 396.067 74.4272 391.466 74.4272C388.47 74.4272 385.611 72.5642 385.611 69.9404H375.79C375.79 76.5552 381.291 81.7164 390.84 81.7164C396.414 81.7164 400.655 80.4107 404.058 77.1741C407.105 74.147 408.074 70.7688 408.074 64.0925ZM437.532 48.4826H425.271C425.618 45.1444 428.001 42.6901 431.576 42.6901C435.292 42.6931 437.532 45.6217 437.532 48.4826ZM447.312 51.5097C447.312 41.5199 440.935 35.7859 431.648 35.7859C422.131 35.7859 415.644 42.8317 415.644 52.1225C415.644 62.7437 423.316 67.9757 431.576 67.9757C438.645 67.9757 443.08 65.5707 446.618 61.0223L440.24 56.8896C438.229 59.5287 435.786 60.8098 432.627 60.8098C428.358 60.8098 425.412 57.9705 425.199 54.2474H447.247C447.312 53.0864 447.312 52.0579 447.312 51.5097ZM475.415 66.9595V50.2872C475.415 47.5372 474.511 44.3684 470.761 44.3684C468.819 44.3684 464.725 45.4739 464.725 51.1094V66.9564H454.816V36.839H464.725V40.8116C466.179 38.8222 469.025 36.1554 474.577 36.1554C478.48 36.1554 480.998 37.5227 482.597 39.0994C484.551 41.0179 485.321 43.4846 485.321 47.8821V66.9595H475.415Z" fill="#CFA2FF"/>
<path fill-rule="evenodd" clip-rule="evenodd" d="M7.86066 45.5199C7.86066 58.7171 15.8453 70.079 27.3167 75.1794L9.42198 35.6114C8.38441 38.8149 7.85771 42.1575 7.86066 45.5199ZM14.0604 26.5503L29.5865 60.8835L36.0256 46.6674H45.7735L52.2166 60.8757L67.7387 26.5503C65.1049 22.9452 61.7525 19.9065 57.886 17.6197L45.7735 44.3725H36.0256L23.9171 17.6178C20.0481 19.9035 16.694 22.9431 14.0604 26.5503ZM72.3732 35.6114L54.4784 75.1794C65.9498 70.081 73.9305 58.719 73.9305 45.5199C73.9305 42.0638 73.3863 38.7363 72.3732 35.6114ZM50.5979 76.6211L40.9015 55.1752L31.2052 76.6211C34.2704 77.5465 37.5236 78.0433 40.8976 78.0433C44.2755 78.0433 47.5307 77.5445 50.5979 76.6211ZM31.2052 14.4188L40.9015 35.8646L50.5979 14.4208C47.5287 13.4934 44.2715 12.9966 40.8976 12.9966C37.5236 12.9966 34.2684 13.4934 31.2052 14.4188ZM1 45.5199C1 23.8267 18.8631 6.23828 40.8976 6.23828C62.9321 6.23828 80.7951 23.8247 80.7951 45.5199C80.7951 67.2151 62.9321 84.8016 40.8976 84.8016C18.8631 84.8016 1 67.2151 1 45.5199Z" fill="#CFA2FF"/>
</g>
<defs>
<clipPath id="clip0_4003_4644">
<rect width="485" height="92" fill="white"/>
</clipPath>
</defs>
</svg>
