<svg width="40" height="40" viewBox="0 0 40 40" fill="none" xmlns="http://www.w3.org/2000/svg">
<g clip-path="url(#clip0_1131_5309)">
<path d="M39.834 20C39.834 23.3242 39.0054 26.596 37.4232 29.5195C35.8409 32.443 33.5549 34.926 30.7719 36.744C27.9888 38.562 24.7965 39.6577 21.4837 39.9318C18.1708 40.206 14.8418 39.6502 11.7977 38.3144L19.834 20H39.834Z" fill="#FEDA7F"/>
<path d="M8.10293 3.80178C11.0903 1.63826 14.6178 0.343026 18.2954 0.0592695C21.973 -0.224487 25.6574 0.514291 28.9413 2.19392C32.2252 3.87355 34.9807 6.42861 36.903 9.57659C38.8254 12.7246 39.8397 16.3428 39.834 20.0314L19.834 20L8.10293 3.80178Z" fill="#FE00A0"/>
<path d="M11.793 38.3123C8.55936 36.8925 5.75939 34.6417 3.67773 31.7888C1.59606 28.9359 0.306931 25.5827 -0.0585993 22.0701C-0.42413 18.5574 0.146975 15.0106 1.59665 11.7903C3.04633 8.56992 5.32288 5.79085 8.19485 3.73561L19.834 20L11.793 38.3123Z" fill="#CFA2FF"/>
<circle cx="20" cy="20" r="18.5" stroke="#FCFCFC" stroke-width="3"/>
</g>
<defs>
<clipPath id="clip0_1131_5309">
<rect width="40" height="40" rx="20" fill="white"/>
</clipPath>
</defs>
</svg>
