<svg width="20" height="24" viewBox="0 0 20 24" fill="none" xmlns="http://www.w3.org/2000/svg">
<path d="M2 9.1C1.50294 9.1 1.1 9.50294 1.1 10C1.1 10.4971 1.50294 10.9 2 10.9V9.1ZM18.6364 10.6364C18.9879 10.2849 18.9879 9.71508 18.6364 9.3636L12.9088 3.63604C12.5574 3.28457 11.9875 3.28457 11.636 3.63604C11.2846 3.98751 11.2846 4.55736 11.636 4.90883L16.7272 10L11.636 15.0912C11.2846 15.4426 11.2846 16.0125 11.636 16.364C11.9875 16.7154 12.5574 16.7154 12.9088 16.364L18.6364 10.6364ZM2 10.9H18V9.1H2V10.9Z" fill="#FE00A0"/>
</svg>
