<svg width="20" height="24" viewBox="0 0 20 24" fill="none" xmlns="http://www.w3.org/2000/svg">
<path d="M3.33398 9.75C2.91977 9.75 2.58398 10.0858 2.58398 10.5C2.58398 10.9142 2.91977 11.25 3.33398 11.25V9.75ZM17.1976 11.0303C17.4905 10.7374 17.4905 10.2626 17.1976 9.96967L12.4247 5.1967C12.1318 4.90381 11.6569 4.90381 11.364 5.1967C11.0711 5.48959 11.0711 5.96447 11.364 6.25736L15.6067 10.5L11.364 14.7426C11.0711 15.0355 11.0711 15.5104 11.364 15.8033C11.6569 16.0962 12.1318 16.0962 12.4247 15.8033L17.1976 11.0303ZM3.33398 11.25H16.6673V9.75H3.33398V11.25Z" fill="white"/>
</svg>
