<svg width="32" height="32" viewBox="0 0 32 32" fill="none" xmlns="http://www.w3.org/2000/svg">
<path d="M25.6401 20.3466L22.2534 19.96C21.8552 19.9132 21.4515 19.9573 21.0728 20.0889C20.6941 20.2206 20.3501 20.4363 20.0667 20.72L17.6134 23.1733C13.8286 21.2479 10.7521 18.1714 8.82672 14.3866L11.2934 11.92C11.8667 11.3466 12.1467 10.5466 12.0534 9.73331L11.6667 6.37331C11.5914 5.72276 11.2793 5.12267 10.79 4.68743C10.3007 4.25219 9.66828 4.01224 9.01339 4.01331H6.70672C5.20005 4.01331 3.94672 5.26664 4.04005 6.77331C4.74672 18.16 13.8534 27.2533 25.2267 27.96C26.7334 28.0533 27.9867 26.8 27.9867 25.2933V22.9866C28.0001 21.64 26.9867 20.5066 25.6401 20.3466Z" fill="#FCFCFC"/>
</svg>
