<svg width="80" height="80" viewBox="0 0 80 80" fill="none" xmlns="http://www.w3.org/2000/svg">
<mask id="mask0_1611_6117" style="mask-type:alpha" maskUnits="userSpaceOnUse" x="0" y="0" width="80" height="80">
<rect width="80" height="80" fill="#D9D9D9"/>
</mask>
<g mask="url(#mask0_1611_6117)">
<path d="M39.9992 43.8903L22.8884 61.0011C22.3511 61.5384 21.7028 61.807 20.9434 61.807C20.1845 61.807 19.5364 61.5384 18.9992 61.0011C18.462 60.4639 18.1934 59.8159 18.1934 59.057C18.1934 58.2975 18.462 57.6492 18.9992 57.112L36.11 40.0011L18.9992 22.8903C18.462 22.3531 18.1934 21.7048 18.1934 20.9453C18.1934 20.1864 18.462 19.5384 18.9992 19.0011C19.5364 18.4639 20.1845 18.1953 20.9434 18.1953C21.7028 18.1953 22.3511 18.4639 22.8884 19.0011L39.9992 36.112L57.11 19.0011C57.6473 18.4639 58.2956 18.1953 59.055 18.1953C59.8139 18.1953 60.462 18.4639 60.9992 19.0011C61.5364 19.5384 61.805 20.1864 61.805 20.9453C61.805 21.7048 61.5364 22.3531 60.9992 22.8903L43.8884 40.0011L60.9992 57.112C61.5364 57.6492 61.805 58.2975 61.805 59.057C61.805 59.8159 61.5364 60.4639 60.9992 61.0011C60.462 61.5384 59.8139 61.807 59.055 61.807C58.2956 61.807 57.6473 61.5384 57.11 61.0011L39.9992 43.8903Z" fill="#1B1035"/>
</g>
</svg>
