<svg width="160" height="160" viewBox="0 0 160 160" fill="none" xmlns="http://www.w3.org/2000/svg">
<g clip-path="url(#clip0_4001_4415)">
<circle cx="80" cy="80" r="80" fill="#F6F3FB"/>
<path d="M17.5943 68.7943C17.4427 69.6659 17.0546 70.2831 16.4302 70.6458C15.8078 70.9977 14.9354 71.076 13.8133 70.8807L9.54801 70.1383C8.43675 69.9449 7.64762 69.5775 7.18063 69.036C6.70464 68.4817 6.5425 67.7688 6.69419 66.8972C6.80417 66.2653 7.04132 65.7734 7.40563 65.4215C7.77184 65.0587 8.23704 64.8366 8.80122 64.7552C9.3654 64.6738 10.0103 64.7411 10.736 64.9572C10.8303 64.9961 10.8726 65.0427 10.8632 65.0972L10.6868 66.1104C10.6679 66.2194 10.6004 66.2525 10.4843 66.2099C9.72216 66.0099 9.12057 65.9837 8.67954 66.1315C8.24041 66.2683 7.97628 66.5928 7.88716 67.1048C7.80563 67.5733 7.91831 67.9577 8.22523 68.2581C8.52125 68.5565 9.05602 68.7731 9.82954 68.9077L13.9477 69.6245C14.7213 69.7591 15.3032 69.7369 15.6936 69.5579C16.0858 69.368 16.3217 69.0443 16.4014 68.5867C16.4962 68.0419 16.3482 67.6345 15.9574 67.3645C15.5686 67.0835 15.0044 66.9068 14.265 66.8342C14.1414 66.8351 14.089 66.7811 14.108 66.6722L14.273 65.7243C14.29 65.6263 14.3594 65.5822 14.4812 65.5922C15.6166 65.7113 16.4623 66.0437 17.0184 66.5894C17.5635 67.1333 17.7555 67.8683 17.5943 68.7943Z" fill="#1B1035"/>
<path d="M19.916 58.827C19.8746 58.9296 19.8027 58.9602 19.7001 58.9189L9.93019 54.9823C9.82762 54.941 9.797 54.869 9.83833 54.7664L10.4893 53.1509C10.8364 52.2893 11.2978 51.7361 11.8734 51.4911C12.449 51.2461 13.1522 51.291 13.9831 51.6258C14.5267 51.8448 14.9511 52.1231 15.2562 52.4607C15.5511 52.7941 15.7318 53.1888 15.7984 53.6449L15.8292 53.6573C16.1546 53.2638 16.5752 53.0339 17.0908 52.9674C17.6064 52.9009 18.1924 52.9999 18.8488 53.2645C19.7822 53.6406 20.4032 54.1411 20.7117 54.7662C21.0202 55.3912 21.0009 56.1345 20.6537 56.9961L19.916 58.827ZM19.239 57.356L19.5489 56.5868C19.7432 56.1047 19.7391 55.6857 19.5367 55.33C19.3384 54.964 18.9213 54.6528 18.2854 54.3966C17.6905 54.1569 17.2019 54.0971 16.8196 54.2173C16.4415 54.3272 16.1553 54.6232 15.9611 55.1053L15.6387 55.9054L19.239 57.356ZM14.6078 55.49L14.8868 54.7977C15.0521 54.3874 15.0325 54.0218 14.828 53.7009C14.6173 53.3657 14.235 53.0865 13.6812 52.8633C13.1273 52.6401 12.691 52.5836 12.3725 52.6937C12.0436 52.7996 11.7904 53.0731 11.6126 53.5142L11.3461 54.1758L14.6078 55.49Z" fill="#1B1035"/>
<path d="M24.2576 49.596C24.2063 49.6813 24.1409 49.6613 24.0614 49.5361L21.8902 46.9341C21.7178 46.7272 21.5454 46.5203 21.373 46.3135C21.2063 46.0971 21.0415 45.8884 20.8786 45.6872L20.8501 45.6701C20.4346 45.9106 19.985 46.0145 19.5014 45.9818C19.0141 45.934 18.4813 45.7363 17.9032 45.3887C17.2777 45.0127 16.8153 44.6121 16.516 44.187C16.2129 43.7468 16.0701 43.2868 16.0876 42.807C16.1013 42.312 16.2706 41.7944 16.5953 41.2542L17.5526 39.6619C17.5924 39.5956 17.6598 39.5909 17.7545 39.6479L26.782 45.075C26.8768 45.132 26.9042 45.1936 26.8643 45.26L26.3345 46.1414C26.2946 46.2077 26.2272 46.2124 26.1325 46.1554L22.294 43.8478L21.7214 44.8003L24.8219 48.4643C24.8446 48.4908 24.8569 48.524 24.8588 48.5639C24.8568 48.5885 24.8473 48.615 24.8302 48.6435L24.2576 49.596ZM20.9683 43.9605L21.3699 43.2923L17.9864 41.2582L17.5933 41.9122C17.3255 42.3576 17.2682 42.7748 17.4215 43.1637C17.5653 43.5469 17.9405 43.9209 18.5471 44.2855C19.1252 44.6331 19.6049 44.7795 19.9861 44.7249C20.3731 44.6607 20.7005 44.4059 20.9683 43.9605Z" fill="#1B1035"/>
<path d="M32.6125 37.28C32.2413 37.7192 31.8499 38.011 31.4383 38.1554C31.0338 38.2914 30.6175 38.2871 30.1895 38.1426C29.7615 37.998 29.3252 37.709 28.8808 37.2755C28.8301 37.2326 28.8077 37.1992 28.8135 37.1752C28.8181 37.1356 28.831 37.1031 28.8524 37.0777L29.5056 36.3049C29.5484 36.2542 29.6043 36.2652 29.6731 36.3379C30.0825 36.7273 30.457 36.9352 30.7966 36.9616C31.1434 36.9796 31.4524 36.8281 31.7236 36.5072C32.0449 36.1271 32.155 35.7569 32.0542 35.3965C31.9604 35.0277 31.6475 34.6185 31.1154 34.1688C30.6171 33.7476 30.1754 33.5336 29.7903 33.5267C29.4052 33.5198 29.0378 33.7233 28.688 34.1371L28.2062 34.7072C28.1562 34.7664 28.0932 34.7638 28.0172 34.6996L27.3711 34.1535C27.2951 34.0893 27.282 34.0276 27.332 33.9685L27.7282 33.4997C28.0422 33.1281 28.1433 32.7429 28.0314 32.3443C27.9266 31.9372 27.6166 31.5159 27.1014 31.0805C26.6537 30.7022 26.2643 30.5034 25.9331 30.4841C25.609 30.4564 25.3114 30.603 25.0401 30.9239C24.7618 31.2533 24.6668 31.5713 24.7553 31.8777C24.851 32.1757 25.1327 32.4934 25.6004 32.8308C25.6849 32.9022 25.7021 32.9674 25.6521 33.0266L25.0097 33.7867C24.9812 33.8205 24.9513 33.8387 24.9201 33.8413C24.8961 33.8355 24.8594 33.819 24.81 33.7917C24.0649 33.2344 23.635 32.6466 23.5203 32.0285C23.4128 31.4019 23.6338 30.7634 24.1835 30.113C24.6974 29.5049 25.256 29.1952 25.8593 29.1838C26.4612 29.1568 27.1043 29.4324 27.7884 30.0106C28.2783 30.4246 28.6328 30.8617 28.8519 31.322C29.0782 31.7738 29.1502 32.2111 29.068 32.6339L29.0806 32.6446C29.4987 32.3898 29.9509 32.3087 30.4374 32.4013C30.9154 32.4867 31.412 32.7471 31.9272 33.1825C32.7465 33.8749 33.2082 34.562 33.3126 35.2438C33.424 35.9171 33.1906 36.5959 32.6125 37.28Z" fill="#1B1035"/>
<path d="M38.6656 31.2837C38.5956 31.3378 38.5322 31.31 38.4753 31.2002L33.7353 21.5098C33.6968 21.4418 33.7125 21.3807 33.7825 21.3267L34.872 20.485C34.942 20.4309 35.0051 20.4311 35.0612 20.4856L43.2536 27.509C43.3367 27.5985 43.3476 27.6669 43.2863 27.7142L42.4068 28.3936C42.3456 28.441 42.2825 28.4407 42.2177 28.393L36.9073 23.608C36.6181 23.3422 36.328 23.0843 36.0369 22.834C35.7478 22.5683 35.4708 22.3002 35.2059 22.0297L35.1797 22.05C35.3658 22.3813 35.5509 22.7204 35.735 23.0673C35.9211 23.3986 36.1052 23.7455 36.2873 24.1079L39.566 30.4414C39.6046 30.5094 39.5933 30.5671 39.532 30.6144L38.6656 31.2837ZM38.252 28.3334L37.7026 27.2695L39.6061 25.7991L40.523 26.579L38.252 28.3334Z" fill="#1B1035"/>
<path d="M48.8375 24.1024C48.7686 24.1378 48.7089 24.1064 48.6583 24.0081L44.3153 15.5722L42.7667 16.3695C42.6782 16.415 42.6087 16.3886 42.5581 16.2903L42.1557 15.5087C42.105 15.4103 42.124 15.3384 42.2125 15.2928L46.4304 13.1213C46.5091 13.0808 46.5737 13.1098 46.6243 13.2081L47.0267 13.9897C47.0773 14.088 47.0633 14.1574 46.9847 14.1979L45.4361 14.9952L49.7792 23.431C49.8298 23.5294 49.8158 23.5988 49.7371 23.6393L48.8375 24.1024Z" fill="#1B1035"/>
<path d="M58.1961 19.9076C58.1123 19.936 58.0526 19.8978 58.0171 19.7931L54.6337 9.81807C54.5982 9.71334 54.6223 9.64677 54.7061 9.61836L55.6643 9.29334C55.7481 9.26492 55.8078 9.30308 55.8433 9.4078L57.1061 13.1308L57.593 12.9656C58.5565 12.6388 59.3609 12.6521 60.0062 13.0054C60.6584 13.3446 61.1604 14.0327 61.5121 15.0694C61.885 16.1691 61.9423 17.078 61.6838 17.7962C61.4322 18.5005 60.8037 19.0231 59.7983 19.3641L58.1961 19.9076ZM58.891 18.3932L59.3937 18.2227C59.9801 18.0238 60.3457 17.7071 60.4903 17.2727C60.6453 16.8348 60.588 16.2353 60.3182 15.4744C60.0697 14.7763 59.7578 14.3216 59.3826 14.1102C59.0177 13.8953 58.5473 13.8855 57.9713 14.0809L57.4844 14.2461L58.891 18.3932Z" fill="#1B1035"/>
<path d="M69.8776 17.002C69.0076 17.1628 68.2941 17.0135 67.7369 16.5541C67.1906 16.0928 66.8139 15.3021 66.607 14.182L65.8205 9.92464C65.6155 8.81544 65.6858 7.9478 66.0312 7.3217C66.3854 6.68272 66.9976 6.28287 67.8675 6.12215C68.4982 6.00562 69.0419 6.057 69.4985 6.27627C69.966 6.49354 70.3359 6.85252 70.6084 7.35323C70.8808 7.85393 71.0418 8.48205 71.0914 9.23759C71.0878 9.33948 71.0588 9.39544 71.0044 9.40549L69.9931 9.59233C69.8843 9.61242 69.8298 9.56065 69.8294 9.43701C69.752 8.65287 69.5674 8.07971 69.2756 7.71754C68.9946 7.35335 68.5986 7.21848 68.0875 7.3129C67.6199 7.39929 67.2986 7.63858 67.1237 8.03076C66.9467 8.41207 66.9296 8.98876 67.0722 9.76085L67.8316 13.8714C67.9743 14.6435 68.1974 15.1814 68.5009 15.4852C68.8153 15.787 69.2009 15.8957 69.6576 15.8113C70.2013 15.7108 70.5319 15.4305 70.6492 14.9702C70.7775 14.5079 70.7472 13.9175 70.5582 13.199C70.5143 13.0834 70.5468 13.0155 70.6555 12.9954L71.6016 12.8207C71.6995 12.8026 71.7649 12.8523 71.7979 12.97C72.0809 14.076 72.0632 14.9845 71.7448 15.6956C71.4243 16.3958 70.8019 16.8313 69.8776 17.002Z" fill="#1B1035"/>
<path d="M78.4422 16.4224C78.3427 16.4259 78.3238 16.3601 78.3855 16.2252L79.3833 12.9866C79.4628 12.7293 79.5423 12.472 79.6217 12.2147C79.7122 11.957 79.7974 11.705 79.8772 11.4588L79.8761 11.4256C79.4479 11.2083 79.1157 10.8881 78.8795 10.4648C78.6539 10.0302 78.5293 9.47578 78.5055 8.80163C78.4798 8.07222 78.5635 7.46621 78.7568 6.98359C78.9606 6.48952 79.2685 6.11904 79.6803 5.87215C80.1027 5.61382 80.6289 5.47355 81.2588 5.45134L83.1155 5.38589C83.1929 5.38316 83.2335 5.43705 83.2374 5.54757L83.6085 16.0742C83.6124 16.1848 83.5757 16.2414 83.4983 16.2441L82.4705 16.2803C82.3932 16.2831 82.3525 16.2292 82.3486 16.1187L82.1908 11.6428L81.0801 11.6819L79.6986 16.2785C79.6887 16.312 79.6676 16.3404 79.6352 16.3637C79.6135 16.3755 79.586 16.382 79.5529 16.3832L78.4422 16.4224ZM81.3737 10.5927L82.1528 10.5652L82.0137 6.61979L81.2512 6.64667C80.7318 6.66499 80.3508 6.8444 80.1083 7.18491C79.8654 7.51437 79.7564 8.03275 79.7814 8.74005C79.8051 9.4142 79.9438 9.89619 80.1975 10.186C80.4622 10.4754 80.8543 10.611 81.3737 10.5927Z" fill="#1B1035"/>
<path d="M97.635 18.3169C96.7883 18.0602 96.223 17.6 95.9389 16.9361C95.6654 16.2754 95.6939 15.4 96.0243 14.31L97.2802 10.1668C97.6075 9.08732 98.0682 8.34878 98.6625 7.95116C99.2706 7.54617 99.998 7.472 100.845 7.72864C101.458 7.91471 101.918 8.20996 102.223 8.6144C102.538 9.02204 102.702 9.51081 102.714 10.0807C102.726 10.6506 102.581 11.2825 102.278 11.9765C102.228 12.0653 102.177 12.1017 102.124 12.0857L101.14 11.7873C101.034 11.7553 101.009 11.6842 101.066 11.5742C101.357 10.8421 101.456 10.2482 101.363 9.79242C101.281 9.3399 100.991 9.03825 100.493 8.88747C100.038 8.74953 99.643 8.81459 99.3075 9.08267C98.9752 9.34016 98.6952 9.8446 98.4674 10.596L97.2548 14.5963C97.027 15.3477 96.9782 15.928 97.1084 16.3373C97.2491 16.7497 97.5418 17.0233 97.9862 17.158C98.5154 17.3184 98.9378 17.2212 99.2534 16.8662C99.5796 16.5144 99.8237 15.9759 99.9857 15.2508C99.9998 15.128 100.06 15.0826 100.166 15.1147L101.086 15.3938C101.182 15.4227 101.217 15.4969 101.192 15.6166C100.936 16.7291 100.503 17.5281 99.8936 18.0135C99.2874 18.4884 98.5345 18.5896 97.635 18.3169Z" fill="#1B1035"/>
<path d="M112.991 26.0773C112.917 26.0293 112.91 25.9588 112.97 25.8659L118.685 17.0178C118.745 16.925 118.812 16.9025 118.886 16.9505L119.736 17.4995C119.81 17.5475 119.818 17.6179 119.758 17.7108L117.319 21.4869L119.674 23.0079L122.112 19.2318C122.172 19.1389 122.24 19.1165 122.314 19.1645L123.164 19.7135C123.238 19.7615 123.245 19.8319 123.185 19.9248L117.47 28.7729C117.41 28.8658 117.343 28.8882 117.269 28.8402L116.419 28.2912C116.345 28.2432 116.338 28.1728 116.398 28.0799L119.026 24.0112L116.671 22.4902L114.043 26.5589C113.983 26.6518 113.916 26.6742 113.841 26.6262L112.991 26.0773Z" fill="#1B1035"/>
<path d="M122.38 33.1039C122.316 33.0438 122.333 32.9766 122.431 32.9024L131.206 26.6275C131.267 26.5782 131.33 26.5836 131.395 26.6437L132.405 27.5794C132.469 27.6395 132.48 27.7017 132.435 27.766L126.861 37.0056C126.786 37.1024 126.721 37.1244 126.664 37.0718L125.849 36.3166C125.792 36.264 125.782 36.2018 125.818 36.1299L129.66 30.1023C129.875 29.7733 130.081 29.4445 130.28 29.1161C130.494 28.7871 130.713 28.4696 130.936 28.1637L130.912 28.1412C130.616 28.3794 130.312 28.618 130 28.8568C129.704 29.0951 129.392 29.3339 129.065 29.5734L123.36 33.8529C123.299 33.9022 123.24 33.9005 123.184 33.8479L122.38 33.1039ZM125.222 32.2088L126.181 31.4913L127.945 33.1259L127.327 34.1589L125.222 32.2088Z" fill="#1B1035"/>
<path d="M130.333 41.5029C130.296 41.448 130.319 41.3926 130.401 41.3366L139.197 35.5106C139.289 35.4484 139.359 35.4538 139.409 35.527L140.23 36.7337C140.28 36.8069 140.276 36.8698 140.218 36.9225L135.898 41.7487L141.982 39.5143C142.052 39.4798 142.112 39.4992 142.162 39.5723L142.983 40.7791C143.027 40.8431 143.003 40.9062 142.912 40.9684L134.274 47.0275C134.192 47.0835 134.126 47.075 134.076 47.0018L133.516 46.179C133.466 46.1059 133.487 46.0382 133.578 45.976L138.903 42.272C139.205 42.0667 139.52 41.852 139.849 41.628C140.194 41.407 140.52 41.1983 140.828 41.0022L140.818 40.9885C140.498 41.1265 140.163 41.2539 139.814 41.3707C139.481 41.4905 139.153 41.6071 138.829 41.7206L133.642 43.5048C133.572 43.5392 133.512 43.5198 133.462 43.4467L133.425 43.3918C133.381 43.3278 133.388 43.2695 133.446 43.2168L137.004 39.0098C137.228 38.75 137.457 38.4871 137.691 38.2211C137.931 37.9642 138.174 37.7119 138.42 37.4642L138.401 37.4367C138.112 37.6604 137.803 37.8842 137.474 38.1081C137.151 38.3413 136.838 38.5605 136.537 38.7658L131.115 42.3557C131.023 42.418 130.956 42.4171 130.912 42.3531L130.333 41.5029Z" fill="#1B1035"/>
<path d="M136.947 53.1093C136.911 53.0283 136.944 52.9655 137.045 52.921L146.686 48.6766C146.787 48.632 146.855 48.6502 146.891 48.7312L147.292 49.6421C147.328 49.723 147.295 49.7858 147.194 49.8304L142.669 51.8222C142.467 51.9113 142.202 52.0221 141.873 52.1546C141.555 52.2826 141.209 52.4167 140.836 52.5569C140.473 52.6926 140.125 52.8217 139.792 52.944C139.474 53.072 139.212 53.1755 139.005 53.2545L139.018 53.2849C139.333 53.231 139.704 53.17 140.134 53.1018C140.577 53.0394 141.051 52.9759 141.554 52.9114C142.067 52.8425 142.573 52.783 143.071 52.7331L148.29 52.1567C148.36 52.1502 148.408 52.1774 148.435 52.2381L148.936 53.3767C148.972 53.4577 148.939 53.5204 148.838 53.565L139.198 57.8094C139.096 57.854 139.026 57.8307 138.986 57.7396L138.591 56.8439C138.556 56.7629 138.588 56.7002 138.69 56.6556L143.021 54.8029C143.254 54.7004 143.54 54.5807 143.878 54.4437C144.217 54.3068 144.57 54.1632 144.939 54.0129C145.312 53.8727 145.668 53.7342 146.007 53.5972C146.349 53.4704 146.647 53.3637 146.899 53.277L146.885 53.2466C146.526 53.3082 146.107 53.3719 145.628 53.4376C145.16 53.4989 144.667 53.5589 144.149 53.6177C143.635 53.6867 143.115 53.7528 142.587 53.8161L137.593 54.3292C137.523 54.3357 137.471 54.2985 137.435 54.2175L136.947 53.1093Z" fill="#1B1035"/>
<path d="M142.113 91.5437C142.264 90.672 142.652 90.0546 143.276 89.6915C143.898 89.3393 144.77 89.2605 145.893 89.4552L150.158 90.1952C151.27 90.388 152.059 90.755 152.526 91.2962C153.003 91.8502 153.165 92.5631 153.014 93.4347C152.904 94.0667 152.668 94.5587 152.303 94.9108C151.937 95.2738 151.472 95.4962 150.908 95.5779C150.344 95.6596 149.699 95.5927 148.973 95.377C148.879 95.3382 148.837 95.2915 148.846 95.237L149.022 94.2237C149.041 94.1148 149.108 94.0816 149.224 94.1242C149.987 94.3237 150.588 94.3495 151.029 94.2016C151.468 94.0645 151.732 93.7399 151.821 93.2278C151.902 92.7593 151.789 92.3749 151.482 92.0747C151.186 91.7764 150.651 91.5602 149.878 91.426L145.759 90.7115C144.985 90.5773 144.403 90.5998 144.013 90.779C143.621 90.9692 143.385 91.293 143.306 91.7507C143.211 92.2954 143.36 92.7028 143.751 92.9726C144.14 93.2533 144.704 93.4298 145.443 93.5019C145.567 93.5009 145.619 93.5549 145.6 93.6639L145.436 94.6118C145.419 94.7099 145.35 94.7539 145.228 94.7441C144.092 94.6256 143.246 94.2937 142.69 93.7483C142.145 93.2047 141.952 92.4698 142.113 91.5437Z" fill="#1B1035"/>
<path d="M139.796 101.512C139.837 101.41 139.909 101.379 140.011 101.42L149.784 105.351C149.886 105.393 149.917 105.465 149.876 105.567L149.225 107.183C148.879 108.045 148.418 108.598 147.842 108.844C147.267 109.089 146.564 109.045 145.733 108.71C145.189 108.492 144.764 108.213 144.459 107.876C144.164 107.543 143.983 107.148 143.916 106.692L143.885 106.68C143.56 107.073 143.14 107.304 142.624 107.37C142.109 107.437 141.522 107.338 140.866 107.074C139.932 106.699 139.311 106.199 139.002 105.574C138.693 104.949 138.712 104.205 139.059 103.344L139.796 101.512ZM140.473 102.983L140.164 103.752C139.97 104.235 139.974 104.654 140.177 105.009C140.375 105.375 140.793 105.686 141.429 105.942C142.024 106.181 142.512 106.241 142.895 106.12C143.273 106.01 143.559 105.714 143.753 105.232L144.075 104.432L140.473 102.983ZM145.106 104.846L144.827 105.539C144.662 105.949 144.682 106.315 144.886 106.636C145.097 106.971 145.48 107.25 146.034 107.473C146.588 107.695 147.024 107.752 147.343 107.641C147.671 107.535 147.924 107.262 148.102 106.821L148.368 106.159L145.106 104.846Z" fill="#1B1035"/>
<path d="M135.461 110.746C135.512 110.66 135.578 110.68 135.657 110.806L137.83 113.406C138.002 113.613 138.175 113.82 138.347 114.027C138.514 114.243 138.679 114.452 138.842 114.653L138.871 114.67C139.286 114.429 139.735 114.325 140.219 114.357C140.706 114.405 141.239 114.602 141.818 114.949C142.443 115.325 142.906 115.725 143.206 116.15C143.509 116.59 143.652 117.05 143.635 117.53C143.621 118.025 143.452 118.543 143.128 119.083L142.171 120.676C142.132 120.742 142.064 120.747 141.969 120.69L132.939 115.268C132.844 115.211 132.817 115.15 132.857 115.083L133.386 114.201C133.426 114.135 133.493 114.13 133.588 114.187L137.428 116.493L138 115.54L134.897 111.878C134.874 111.851 134.862 111.818 134.86 111.778C134.862 111.754 134.872 111.727 134.889 111.699L135.461 110.746ZM138.753 116.379L138.352 117.048L141.737 119.08L142.129 118.426C142.397 117.98 142.454 117.563 142.301 117.174C142.157 116.791 141.781 116.417 141.174 116.053C140.596 115.706 140.116 115.56 139.735 115.614C139.348 115.679 139.021 115.934 138.753 116.379Z" fill="#1B1035"/>
<path d="M127.112 123.066C127.483 122.627 127.874 122.335 128.285 122.19C128.69 122.054 129.106 122.058 129.534 122.202C129.962 122.347 130.399 122.636 130.843 123.069C130.894 123.112 130.916 123.145 130.911 123.169C130.906 123.209 130.893 123.241 130.872 123.267L130.219 124.04C130.176 124.09 130.12 124.079 130.051 124.007C129.642 123.618 129.267 123.41 128.928 123.384C128.581 123.366 128.272 123.518 128.001 123.839C127.68 124.219 127.57 124.589 127.671 124.95C127.765 125.318 128.078 125.727 128.61 126.177C129.109 126.598 129.551 126.811 129.936 126.818C130.321 126.825 130.688 126.621 131.038 126.207L131.519 125.637C131.569 125.578 131.632 125.58 131.708 125.644L132.355 126.19C132.431 126.254 132.444 126.316 132.394 126.375L131.998 126.844C131.684 127.216 131.583 127.601 131.695 128C131.8 128.407 132.111 128.828 132.626 129.263C133.074 129.641 133.464 129.839 133.795 129.859C134.119 129.886 134.416 129.739 134.687 129.418C134.966 129.089 135.06 128.771 134.972 128.464C134.876 128.166 134.594 127.849 134.126 127.512C134.042 127.44 134.024 127.375 134.074 127.316L134.716 126.555C134.745 126.522 134.775 126.503 134.806 126.501C134.83 126.507 134.867 126.523 134.916 126.55C135.661 127.107 136.092 127.695 136.207 128.313C136.315 128.939 136.094 129.578 135.545 130.229C135.031 130.837 134.473 131.147 133.869 131.159C133.267 131.186 132.624 130.911 131.94 130.333C131.45 129.919 131.095 129.482 130.875 129.022C130.649 128.571 130.577 128.133 130.659 127.711L130.646 127.7C130.228 127.955 129.776 128.036 129.289 127.944C128.811 127.859 128.315 127.599 127.799 127.163C126.979 126.472 126.517 125.785 126.413 125.103C126.301 124.43 126.534 123.751 127.112 123.066Z" fill="#1B1035"/>
<path d="M121.062 129.066C121.132 129.012 121.196 129.04 121.253 129.15L125.998 138.837C126.037 138.905 126.021 138.966 125.951 139.021L124.862 139.863C124.792 139.917 124.729 139.917 124.673 139.862L116.477 132.844C116.394 132.754 116.383 132.686 116.444 132.638L117.323 131.958C117.384 131.911 117.447 131.911 117.512 131.959L122.825 136.741C123.114 137.007 123.405 137.264 123.696 137.515C123.985 137.78 124.262 138.048 124.527 138.318L124.554 138.298C124.367 137.967 124.182 137.628 123.998 137.281C123.811 136.95 123.627 136.603 123.445 136.241L120.163 129.909C120.124 129.841 120.135 129.783 120.196 129.736L121.062 129.066ZM121.478 132.016L122.028 133.08L120.125 134.551L119.208 133.772L121.478 132.016Z" fill="#1B1035"/>
<path d="M110.895 136.253C110.964 136.218 111.023 136.249 111.074 136.348L115.422 144.781L116.97 143.983C117.058 143.937 117.128 143.964 117.179 144.062L117.582 144.843C117.632 144.942 117.613 145.014 117.525 145.059L113.308 147.233C113.23 147.274 113.165 147.245 113.114 147.146L112.711 146.365C112.661 146.267 112.675 146.197 112.753 146.157L114.301 145.359L109.954 136.925C109.903 136.827 109.917 136.757 109.996 136.717L110.895 136.253Z" fill="#1B1035"/>
<path d="M101.538 140.454C101.622 140.425 101.682 140.463 101.717 140.568L105.106 150.541C105.142 150.646 105.118 150.712 105.034 150.741L104.076 151.066C103.992 151.095 103.932 151.057 103.897 150.952L102.632 147.23L102.145 147.395C101.182 147.723 100.377 147.71 99.732 147.357C99.0796 147.018 98.5772 146.33 98.225 145.294C97.8514 144.194 97.7937 143.285 98.0518 142.567C98.303 141.862 98.9311 141.339 99.9363 140.998L101.538 140.454ZM100.844 141.968L100.342 142.139C99.7553 142.338 99.3899 142.655 99.2456 143.09C99.0907 143.528 99.1484 144.127 99.4186 144.888C99.6675 145.586 99.9796 146.04 100.355 146.252C100.72 146.466 101.19 146.476 101.766 146.28L102.253 146.115L100.844 141.968Z" fill="#1B1035"/>
<path d="M89.8594 143.365C90.7292 143.204 91.4429 143.353 92.0003 143.812C92.5469 144.273 92.9239 145.064 93.1315 146.184L93.9204 150.441C94.126 151.55 94.0562 152.417 93.7112 153.044C93.3573 153.683 92.7454 154.083 91.8755 154.244C91.2448 154.361 90.7012 154.31 90.2444 154.091C89.7768 153.874 89.4067 153.515 89.134 153.015C88.8613 152.514 88.6999 151.886 88.6498 151.131C88.6534 151.029 88.6824 150.973 88.7368 150.963L89.748 150.775C89.8568 150.755 89.9113 150.807 89.9117 150.93C89.9896 151.714 90.1745 152.288 90.4665 152.65C90.7477 153.014 91.1438 153.148 91.6548 153.054C92.1224 152.967 92.4435 152.727 92.6183 152.335C92.795 151.954 92.8118 151.377 92.6688 150.605L91.907 146.495C91.764 145.723 91.5406 145.185 91.2369 144.881C90.9223 144.58 90.5367 144.471 90.08 144.556C89.5363 144.657 89.2059 144.937 89.0888 145.398C88.9608 145.86 88.9915 146.45 89.1809 147.169C89.2248 147.284 89.1924 147.352 89.0837 147.372L88.1377 147.548C88.0398 147.566 87.9744 147.516 87.9413 147.399C87.6576 146.293 87.6748 145.384 87.9929 144.673C88.313 143.972 88.9351 143.537 89.8594 143.365Z" fill="#1B1035"/>
<path d="M81.2943 143.95C81.3937 143.946 81.4127 144.012 81.3511 144.147L80.355 147.386C80.2757 147.643 80.1964 147.901 80.1171 148.158C80.0268 148.416 79.9417 148.668 79.862 148.914L79.8632 148.947C80.2915 149.164 80.6238 149.485 80.8603 149.908C81.0861 150.342 81.2111 150.896 81.2352 151.571C81.2614 152.3 81.1779 152.906 80.985 153.389C80.7814 153.883 80.4737 154.254 80.0621 154.501C79.6398 154.759 79.1137 154.9 78.4838 154.922L76.6271 154.989C76.5498 154.992 76.5091 154.938 76.5052 154.827L76.1281 144.301C76.1242 144.19 76.1609 144.134 76.2382 144.131L77.266 144.094C77.3434 144.091 77.384 144.145 77.388 144.256L77.5483 148.732L78.659 148.692L80.038 144.094C80.0478 144.061 80.0689 144.032 80.1013 144.009C80.123 143.997 80.1504 143.991 80.1836 143.99L81.2943 143.95ZM78.366 149.781L77.5869 149.809L77.7282 153.754L78.4907 153.727C79.0102 153.708 79.391 153.529 79.6333 153.188C79.876 152.859 79.9847 152.34 79.9594 151.633C79.9352 150.959 79.7963 150.477 79.5424 150.187C79.2776 149.898 78.8854 149.763 78.366 149.781Z" fill="#1B1035"/>
<path d="M62.1003 142.066C62.9471 142.322 63.5127 142.782 63.7972 143.446C64.0711 144.106 64.0431 144.982 63.7133 146.072L62.4596 150.216C62.133 151.295 61.6727 152.034 61.0786 152.432C60.4707 152.838 59.7434 152.912 58.8966 152.656C58.2827 152.47 57.8231 152.175 57.518 151.771C57.2022 151.364 57.0381 150.875 57.0256 150.305C57.0132 149.735 57.1582 149.103 57.4606 148.409C57.5106 148.32 57.562 148.284 57.615 148.3L58.5994 148.597C58.7052 148.629 58.7299 148.7 58.6735 148.811C58.3827 149.543 58.2839 150.137 58.3771 150.592C58.4597 151.045 58.7498 151.346 59.2472 151.497C59.7024 151.635 60.0976 151.569 60.433 151.301C60.7651 151.043 61.0448 150.539 61.2722 149.787L62.4826 145.786C62.7099 145.035 62.7584 144.454 62.628 144.045C62.487 143.633 62.1943 143.359 61.7497 143.225C61.2205 143.065 60.7981 143.162 60.4827 143.518C60.1567 143.87 59.9129 144.408 59.7513 145.133C59.7373 145.256 59.6773 145.302 59.5715 145.27L58.6506 144.991C58.5553 144.962 58.52 144.888 58.5447 144.768C58.8004 143.656 59.2328 142.856 59.8419 142.371C60.4478 141.895 61.2006 141.794 62.1003 142.066Z" fill="#1B1035"/>
<path d="M46.7397 134.314C46.8141 134.362 46.8213 134.432 46.7613 134.525L41.0514 143.377C40.9914 143.47 40.9243 143.492 40.8499 143.444L39.9996 142.896C39.9253 142.848 39.9181 142.777 39.9781 142.684L42.4149 138.907L40.0592 137.387L37.6224 141.165C37.5624 141.258 37.4953 141.28 37.4209 141.232L36.5706 140.684C36.4963 140.636 36.4891 140.565 36.5491 140.472L42.259 131.621C42.319 131.528 42.3861 131.506 42.4604 131.553L43.3107 132.102C43.3851 132.15 43.3923 132.22 43.3323 132.313L40.7066 136.384L43.0623 137.903L45.688 133.833C45.748 133.74 45.8151 133.718 45.8894 133.766L46.7397 134.314Z" fill="#1B1035"/>
<path d="M37.3459 127.293C37.4109 127.353 37.3939 127.42 37.2951 127.494L28.5239 133.774C28.4632 133.824 28.4004 133.818 28.3354 133.758L27.3249 132.823C27.2599 132.763 27.2497 132.701 27.2942 132.636L32.8633 123.394C32.9378 123.297 33.0034 123.275 33.0602 123.327L33.876 124.082C33.9328 124.135 33.943 124.197 33.9067 124.269L30.0675 130.299C29.8534 130.628 29.647 130.957 29.4485 131.285C29.2343 131.614 29.0158 131.932 28.7929 132.238L28.8173 132.26C29.1132 132.022 29.417 131.783 29.7285 131.544C30.0245 131.306 30.336 131.067 30.6632 130.827L36.3661 126.544C36.4268 126.495 36.4856 126.497 36.5424 126.549L37.3459 127.293ZM34.5049 128.19L33.5468 128.908L31.7813 127.274L32.3986 126.241L34.5049 128.19Z" fill="#1B1035"/>
<path d="M29.3895 118.899C29.4269 118.953 29.4044 119.009 29.3222 119.065L20.5292 124.896C20.4378 124.958 20.3672 124.953 20.3174 124.88L19.4955 123.673C19.4456 123.6 19.4496 123.537 19.5073 123.485L23.8246 118.656L17.742 120.894C17.6718 120.928 17.6118 120.909 17.562 120.836L16.74 119.629C16.6964 119.565 16.7203 119.502 16.8117 119.44L25.4459 113.376C25.5281 113.32 25.5942 113.329 25.644 113.402L26.2044 114.224C26.2542 114.297 26.2334 114.365 26.142 114.427L20.8196 118.134C20.518 118.34 20.2028 118.555 19.8738 118.779C19.5294 119 19.2033 119.209 18.8955 119.405L18.9049 119.419C19.2255 119.281 19.5601 119.153 19.9086 119.036C20.2417 118.916 20.5702 118.799 20.8942 118.686L26.0797 116.899C26.1499 116.864 26.2099 116.883 26.2597 116.957L26.297 117.011C26.3406 117.075 26.3336 117.134 26.2758 117.186L22.7206 121.395C22.4962 121.655 22.2673 121.918 22.0338 122.185C21.7941 122.442 21.5513 122.694 21.3054 122.942L21.3241 122.969C21.6132 122.745 21.9222 122.522 22.2512 122.297C22.574 122.064 22.8862 121.845 23.1877 121.639L28.6079 118.046C28.6993 117.984 28.7668 117.985 28.8104 118.049L29.3895 118.899Z" fill="#1B1035"/>
<path d="M22.7689 107.295C22.8046 107.376 22.7719 107.439 22.6707 107.484L13.0329 111.734C12.9317 111.778 12.8632 111.76 12.8275 111.679L12.426 110.768C12.3903 110.687 12.423 110.625 12.5242 110.58L17.0472 108.586C17.2495 108.496 17.5148 108.385 17.8431 108.253C18.1612 108.125 18.5069 107.99 18.8801 107.85C19.2432 107.714 19.591 107.585 19.9238 107.462C20.2419 107.334 20.5044 107.23 20.7112 107.151L20.6978 107.121C20.3833 107.175 20.0114 107.236 19.5823 107.305C19.1386 107.367 18.6652 107.431 18.1619 107.496C17.6486 107.565 17.1432 107.625 16.6456 107.675L11.4262 108.254C11.3565 108.261 11.3083 108.234 11.2815 108.173L10.7796 107.035C10.7439 106.954 10.7767 106.891 10.8778 106.846L20.5157 102.597C20.6169 102.552 20.6875 102.575 20.7277 102.666L21.1225 103.562C21.1582 103.643 21.1255 103.705 21.0243 103.75L16.6938 105.605C16.461 105.708 16.1755 105.828 15.8371 105.965C15.4988 106.102 15.1452 106.246 14.7765 106.396C14.4033 106.537 14.0475 106.675 13.7091 106.813C13.3663 106.94 13.069 107.046 12.8172 107.133L12.8306 107.164C13.1901 107.102 13.6091 107.038 14.0876 106.972C14.556 106.91 15.0491 106.85 15.5669 106.791C16.0802 106.722 16.6009 106.655 17.1288 106.592L22.1224 106.076C22.192 106.069 22.2447 106.106 22.2804 106.187L22.7689 107.295Z" fill="#1B1035"/>
<circle cx="149.642" cy="73.129" r="1.38231" fill="#1B1035"/>
<circle cx="10.0288" cy="86.9521" r="1.38231" fill="#1B1035"/>
</g>
<defs>
<clipPath id="clip0_4001_4415">
<rect width="160" height="160" fill="white"/>
</clipPath>
</defs>
</svg>
