<svg width="64" height="64" viewBox="0 0 64 64" fill="none" xmlns="http://www.w3.org/2000/svg">
<mask id="mask0_2503_3499" style="mask-type:alpha" maskUnits="userSpaceOnUse" x="0" y="0" width="64" height="64">
<rect width="64" height="64" fill="#D9D9D9"/>
</mask>
<g mask="url(#mask0_2503_3499)">
<path d="M30.4209 32.3492V20.9032C30.4209 20.3836 30.6109 19.935 30.9909 19.5572C31.3709 19.1794 31.822 18.9905 32.3442 18.9905C32.8669 18.9905 33.3258 19.1794 33.7209 19.5572C34.1156 19.935 34.3129 20.3836 34.3129 20.9032V32.3492L38.4876 28.1752C38.8182 27.7885 39.256 27.591 39.8009 27.5825C40.3462 27.5741 40.8196 27.7494 41.2209 28.1085C41.5796 28.5116 41.7589 28.9783 41.7589 29.5085C41.7589 30.0383 41.5796 30.4741 41.2209 30.8159L34.0156 38.0212C33.5325 38.5101 32.9689 38.7545 32.3249 38.7545C31.6809 38.7545 31.1454 38.5101 30.7182 38.0212L23.5129 30.8159C23.1267 30.4741 22.9294 30.0339 22.9209 29.4952C22.9125 28.957 23.1062 28.4943 23.5022 28.1072C23.8685 27.749 24.3165 27.5699 24.8462 27.5699C25.3765 27.5699 25.8431 27.7716 26.2462 28.1752L30.4209 32.3492ZM16.7129 61.1339C15.4574 61.1339 14.358 60.6623 13.4149 59.7192C12.4718 58.7761 12.0002 57.6767 12.0002 56.4212V7.57985C12.0002 6.3243 12.4718 5.22496 13.4149 4.28185C14.358 3.33874 15.4574 2.86719 16.7129 2.86719H47.9542C49.2098 2.86719 50.3091 3.33874 51.2522 4.28185C52.1954 5.22496 52.6669 6.3243 52.6669 7.57985V56.4212C52.6669 57.6767 52.1954 58.7761 51.2522 59.7192C50.3091 60.6623 49.2098 61.1339 47.9542 61.1339H16.7129ZM15.8929 50.3545V56.4212C15.8929 56.6261 15.9782 56.8141 16.1489 56.9852C16.32 57.1559 16.508 57.2412 16.7129 57.2412H47.9542C48.1591 57.2412 48.3471 57.1559 48.5182 56.9852C48.6889 56.8141 48.7742 56.6261 48.7742 56.4212V50.3545H15.8929ZM15.8929 46.4619H48.7742V13.1645H15.8929V46.4619ZM15.8929 9.27252H48.7742V7.57985C48.7742 7.37497 48.6889 7.18696 48.5182 7.01585C48.3471 6.84519 48.1591 6.75986 47.9542 6.75986H16.7129C16.508 6.75986 16.32 6.84519 16.1489 7.01585C15.9782 7.18696 15.8929 7.37497 15.8929 7.57985V9.27252ZM26.2649 55.0312H38.4742C38.8578 55.0312 39.1636 54.9223 39.3916 54.7045C39.6196 54.4872 39.7336 54.1881 39.7336 53.8072C39.7336 53.4267 39.6202 53.1092 39.3936 52.8545C39.1669 52.5999 38.8618 52.4725 38.4782 52.4725H26.2649C25.8614 52.4725 25.5387 52.5999 25.2969 52.8545C25.0547 53.1092 24.9336 53.4267 24.9336 53.8072C24.9336 54.1881 25.0545 54.4872 25.2962 54.7045C25.5385 54.9223 25.8614 55.0312 26.2649 55.0312Z" fill="#1C1B1F"/>
</g>
</svg>
