<svg width="64" height="64" viewBox="0 0 64 64" fill="none" xmlns="http://www.w3.org/2000/svg">
<mask id="mask0_2503_3466" style="mask-type:alpha" maskUnits="userSpaceOnUse" x="0" y="0" width="64" height="64">
<rect width="64" height="64" fill="#D9D9D9"/>
</mask>
<g mask="url(#mask0_2503_3466)">
<path d="M23.6134 38.4053C22.6405 38.4053 21.8028 38.0465 21.1001 37.3287C20.3974 36.6113 20.0461 35.7618 20.0461 34.78C20.0461 33.7987 20.405 32.9609 21.1228 32.2667C21.8401 31.5725 22.6897 31.2253 23.6714 31.2253C24.6528 31.2253 25.4905 31.5811 26.1848 32.2927C26.8785 33.0038 27.2254 33.8522 27.2254 34.838C27.2254 35.8109 26.8699 36.6487 26.1588 37.3513C25.4477 38.054 24.5992 38.4053 23.6134 38.4053ZM40.3828 38.4053C39.4099 38.4053 38.5721 38.0465 37.8694 37.3287C37.1668 36.6113 36.8154 35.7618 36.8154 34.78C36.8154 33.7987 37.1743 32.9609 37.8921 32.2667C38.6094 31.5725 39.459 31.2253 40.4408 31.2253C41.4221 31.2253 42.2599 31.5811 42.9541 32.2927C43.6479 33.0038 43.9948 33.8522 43.9948 34.838C43.9948 35.8109 43.6392 36.6487 42.9281 37.3513C42.217 38.054 41.3685 38.4053 40.3828 38.4053ZM32.0094 54.5073C38.273 54.5073 43.5885 52.3193 47.9561 47.9433C52.3237 43.5669 54.5074 38.252 54.5074 31.9987C54.5074 30.8787 54.423 29.7629 54.2541 28.6513C54.0848 27.5402 53.8621 26.5213 53.5861 25.5947C52.6723 25.8169 51.7005 25.9769 50.6708 26.0747C49.641 26.172 48.5737 26.2207 47.4688 26.2207C43.199 26.2207 39.1621 25.3249 35.3581 23.5333C31.5537 21.7418 28.2992 19.2273 25.5948 15.99C24.1303 19.5527 21.9977 22.6878 19.1968 25.3953C16.3959 28.1029 13.1612 30.1678 9.49276 31.59V32.0273C9.49276 38.2696 11.6797 43.5769 16.0534 47.9493C20.4277 52.3213 25.7463 54.5073 32.0094 54.5073ZM32.0048 58.4C28.3834 58.4 24.959 57.7078 21.7314 56.3233C18.5039 54.9389 15.6963 53.06 13.3088 50.6867C10.9212 48.3133 9.03943 45.5116 7.66343 42.2813C6.28788 39.0511 5.6001 35.6256 5.6001 32.0047C5.6001 28.3833 6.29232 24.9589 7.67676 21.7313C9.06121 18.5038 10.9401 15.6962 13.3134 13.3087C15.6868 10.9211 18.4885 9.03934 21.7188 7.66334C24.949 6.28778 28.3745 5.60001 31.9954 5.60001C35.6168 5.60001 39.0412 6.29223 42.2688 7.67667C45.4963 9.06112 48.3039 10.94 50.6914 13.3133C53.079 15.6867 54.9608 18.4885 56.3368 21.7187C57.7123 24.9489 58.4001 28.3745 58.4001 31.9953C58.4001 35.6167 57.7079 39.0411 56.3234 42.2687C54.939 45.4962 53.0601 48.3038 50.6868 50.6913C48.3134 53.0789 45.5117 54.9607 42.2814 56.3367C39.0512 57.7122 35.6257 58.4 32.0048 58.4ZM26.1028 10.328C29.7094 15.0565 33.2992 18.2387 36.8721 19.8747C40.4445 21.5102 43.9794 22.328 47.4768 22.328C48.4101 22.328 49.2154 22.3018 49.8928 22.2493C50.5701 22.1969 51.2623 22.042 51.9694 21.7847C50.0001 18.0273 47.2821 15.0393 43.8154 12.8207C40.3488 10.602 36.4103 9.49267 32.0001 9.49267C30.7583 9.49267 29.6437 9.57045 28.6561 9.72601C27.6681 9.88156 26.817 10.0822 26.1028 10.328ZM10.3948 26.564C12.2957 25.884 14.6248 24.2405 17.3821 21.6333C20.1394 19.0267 21.937 15.7096 22.7748 11.682C19.0859 13.2411 16.273 15.3378 14.3361 17.972C12.3992 20.6062 11.0854 23.4702 10.3948 26.564Z" fill="#1C1B1F"/>
</g>
</svg>
