<svg width="64" height="64" viewBox="0 0 64 64" fill="none" xmlns="http://www.w3.org/2000/svg">
<mask id="mask0_4022_868" style="mask-type:alpha" maskUnits="userSpaceOnUse" x="0" y="0" width="64" height="64">
<rect width="64" height="64" fill="#D9D9D9"/>
</mask>
<g mask="url(#mask0_4022_868)">
<path d="M30.2213 24.6253H24.0006C23.5144 24.6253 23.0962 24.4568 22.7459 24.1199C22.3962 23.7831 22.2213 23.3542 22.2213 22.8333C22.2213 22.3119 22.3884 21.8871 22.7226 21.5586C23.0573 21.2306 23.4833 21.0666 24.0006 21.0666H40.0006C40.4868 21.0666 40.9051 21.2351 41.2553 21.5719C41.6051 21.9088 41.7799 22.3379 41.7799 22.8593C41.7799 23.3802 41.6128 23.8048 41.2786 24.1333C40.9439 24.4613 40.5179 24.6253 40.0006 24.6253H33.7799V41.1539C33.7799 41.6402 33.6115 42.0584 33.2746 42.4086C32.9377 42.7584 32.5086 42.9333 31.9873 42.9333C31.4664 42.9333 31.0417 42.7662 30.7133 42.4319C30.3853 42.0973 30.2213 41.6713 30.2213 41.1539V24.6253ZM3.11328 58.4973V49.2819C3.11328 48.6473 3.34217 48.1015 3.79995 47.6446C4.25728 47.1873 4.82506 46.9586 5.50328 46.9586H8.22661V17.0413H5.49861C4.81906 17.0413 4.25173 16.8124 3.79661 16.3546C3.34106 15.8973 3.11328 15.3295 3.11328 14.6513V5.43594C3.11328 4.80127 3.34217 4.2555 3.79995 3.79861C4.25728 3.34128 4.82506 3.11261 5.50328 3.11261H14.7186C15.3533 3.11261 15.8991 3.34128 16.3559 3.79861C16.8133 4.2555 17.0419 4.80127 17.0419 5.43594V8.22594H46.9593V5.43127C46.9593 4.79527 47.1882 4.24994 47.646 3.79528C48.1033 3.34016 48.6711 3.11261 49.3493 3.11261H58.5646C59.1993 3.11261 59.7451 3.34128 60.202 3.79861C60.6593 4.2555 60.888 4.80127 60.888 5.43594V14.6513C60.888 15.3295 60.6593 15.8973 60.202 16.3546C59.7451 16.8124 59.1993 17.0413 58.5646 17.0413H55.7746V46.9586H58.5693C59.2053 46.9586 59.7506 47.1873 60.2053 47.6446C60.6604 48.1015 60.888 48.6473 60.888 49.2819V58.4973C60.888 59.1755 60.6593 59.7433 60.202 60.2006C59.7451 60.6584 59.1993 60.8873 58.5646 60.8873H49.3493C48.6711 60.8873 48.1033 60.6584 47.646 60.2006C47.1882 59.7433 46.9593 59.1755 46.9593 58.4973V55.7739H17.0419V58.5019C17.0419 59.1815 16.8133 59.7488 16.3559 60.2039C15.8991 60.6595 15.3533 60.8873 14.7186 60.8873H5.50328C4.82506 60.8873 4.25728 60.6584 3.79995 60.2006C3.34217 59.7433 3.11328 59.1755 3.11328 58.4973ZM17.0419 51.8819H46.9593V49.0773C46.9593 48.4413 47.1882 47.8959 47.646 47.4413C48.1033 46.9862 48.6711 46.7586 49.3493 46.7586H51.8826V17.0413H49.3446C48.6655 17.0413 48.0982 16.8124 47.6426 16.3546C47.1871 15.8973 46.9593 15.3295 46.9593 14.6513V12.1179H17.0419V14.6559C17.0419 15.3351 16.8133 15.9024 16.3559 16.3579C15.8991 16.8135 15.3533 17.0413 14.7186 17.0413H12.1186V46.9586H14.7233C15.3593 46.9586 15.9046 47.1873 16.3593 47.6446C16.8144 48.1015 17.0419 48.6473 17.0419 49.2819V51.8819ZM7.00595 13.1486H13.1493V7.00528H7.00595V13.1486ZM50.852 13.1486H56.9953V7.00528H50.852V13.1486ZM50.852 56.9946H56.9953V50.6513H50.852V56.9946ZM7.00595 56.9946H13.1493V50.6513H7.00595V56.9946Z" fill="#1C1B1F"/>
</g>
</svg>
