<svg width="64" height="64" viewBox="0 0 64 64" fill="none" xmlns="http://www.w3.org/2000/svg">
<mask id="mask0_2503_3488" style="mask-type:alpha" maskUnits="userSpaceOnUse" x="0" y="0" width="64" height="64">
<rect width="64" height="64" fill="#D9D9D9"/>
</mask>
<g mask="url(#mask0_2503_3488)">
<path d="M36.7849 31.3185L44.3795 26.2159C44.9675 25.811 45.2615 25.2712 45.2615 24.5965C45.2615 23.9223 44.9675 23.3852 44.3795 22.9852L36.7849 17.8825C36.1351 17.4381 35.4675 17.3983 34.7822 17.7632C34.0969 18.1281 33.7542 18.6727 33.7542 19.3972V29.7125C33.7542 30.5067 34.0969 31.0841 34.7822 31.4445C35.4675 31.805 36.1351 31.763 36.7849 31.3185ZM22.4155 46.2312C21.16 46.2312 20.0606 45.7596 19.1175 44.8165C18.1744 43.8734 17.7029 42.7741 17.7029 41.5185V9.91319C17.7029 8.65763 18.1744 7.5583 19.1175 6.61519C20.0606 5.67208 21.16 5.20052 22.4155 5.20052H54.0209C55.2764 5.20052 56.3758 5.67208 57.3189 6.61519C58.262 7.5583 58.7335 8.65763 58.7335 9.91319V41.5185C58.7335 42.7741 58.262 43.8734 57.3189 44.8165C56.3758 45.7596 55.2764 46.2312 54.0209 46.2312H22.4155ZM22.4155 42.3392H54.0209C54.26 42.3392 54.4564 42.2579 54.6102 42.0952C54.764 41.933 54.8409 41.7407 54.8409 41.5185V9.91319C54.8409 9.67408 54.764 9.47763 54.6102 9.32386C54.4564 9.17008 54.26 9.09319 54.0209 9.09319H22.4155C22.1933 9.09319 22.0011 9.17008 21.8389 9.32386C21.6762 9.47763 21.5949 9.67408 21.5949 9.91319V41.5185C21.5949 41.7407 21.6762 41.933 21.8389 42.0952C22.0011 42.2579 22.1933 42.3392 22.4155 42.3392ZM14.8569 58.0465C13.5191 58.2243 12.35 57.917 11.3495 57.1245C10.3491 56.3316 9.76954 55.2816 9.61087 53.9745L5.61087 23.2005C5.43309 21.9187 5.75287 20.7414 6.57021 19.6685C7.38754 18.5956 8.44709 18.0105 9.74887 17.9132L11.8569 17.7392C12.4142 17.729 12.8971 17.9099 13.3055 18.2819C13.714 18.6539 13.9182 19.1187 13.9182 19.6765C13.9182 20.2045 13.7582 20.6676 13.4382 21.0659C13.1182 21.4641 12.7124 21.6525 12.2209 21.6312L10.2055 21.8059C9.98332 21.8227 9.80376 21.9252 9.66687 22.1132C9.52998 22.3012 9.47021 22.5063 9.48754 22.7285L13.4769 53.4772C13.5111 53.7167 13.618 53.9047 13.7975 54.0412C13.9771 54.1781 14.178 54.2294 14.4002 54.1952L50.7389 49.9079C51.1967 49.8807 51.6244 50.0254 52.0222 50.3419C52.4195 50.6587 52.6567 51.0665 52.7335 51.5652C52.7882 52.0679 52.6702 52.5054 52.3795 52.8779C52.0884 53.2503 51.6987 53.469 51.2102 53.5339L14.8569 58.0465Z" fill="#1C1B1F"/>
</g>
</svg>
