<svg width="64" height="64" viewBox="0 0 64 64" fill="none" xmlns="http://www.w3.org/2000/svg">
<mask id="mask0_4022_878" style="mask-type:alpha" maskUnits="userSpaceOnUse" x="0" y="0" width="64" height="64">
<rect width="64" height="64" fill="#D9D9D9"/>
</mask>
<g mask="url(#mask0_4022_878)">
<path d="M33.8156 37.1747L29.6429 32.1087C29.3972 31.8345 29.0774 31.7042 28.6836 31.718C28.2894 31.7318 27.9898 31.9165 27.7849 32.272L24.5696 36.4974C24.3029 36.9249 24.2736 37.3454 24.4816 37.7587C24.6891 38.1725 25.0347 38.3794 25.5183 38.3794H46.8409C47.2987 38.3794 47.6423 38.1725 47.8716 37.7587C48.1009 37.3454 48.0823 36.9471 47.8156 36.564L42.2569 28.5434C42.0071 28.2051 41.6823 28.036 41.2823 28.036C40.8823 28.036 40.5574 28.1829 40.3076 28.4767L33.8156 37.1747ZM18.8976 49.6153C17.6136 49.6153 16.5071 49.1438 15.5783 48.2007C14.6494 47.2576 14.1849 46.1582 14.1849 44.9027V10.3794C14.1849 9.1238 14.6494 8.02446 15.5783 7.08135C16.5071 6.13824 17.6136 5.66669 18.8976 5.66669H53.4209C54.6765 5.66669 55.7758 6.13824 56.7189 7.08135C57.662 8.02446 58.1336 9.1238 58.1336 10.3794V44.9027C58.1336 46.1582 57.662 47.2576 56.7189 48.2007C55.7758 49.1438 54.6765 49.6153 53.4209 49.6153H18.8976ZM18.8976 45.7227H53.4209C53.6258 45.7227 53.8138 45.6374 53.9849 45.4667C54.1556 45.2956 54.2409 45.1076 54.2409 44.9027V10.3794C54.2409 10.1745 54.1556 9.98646 53.9849 9.81535C53.8138 9.64469 53.6258 9.55935 53.4209 9.55935H18.8976C18.6927 9.55935 18.5047 9.64469 18.3336 9.81535C18.1625 9.98646 18.0769 10.1745 18.0769 10.3794V44.9027C18.0769 45.1076 18.1625 45.2956 18.3336 45.4667C18.5047 45.6374 18.6927 45.7227 18.8976 45.7227ZM10.6463 57.8667C9.36226 57.8667 8.25582 57.3951 7.32693 56.452C6.39804 55.5089 5.93359 54.4094 5.93359 53.1534V16.6514C5.93359 16.1318 6.12359 15.6831 6.50359 15.3054C6.88359 14.9276 7.33493 14.7387 7.85759 14.7387C8.38026 14.7387 8.83893 14.9276 9.23359 15.3054C9.6287 15.6831 9.82626 16.1318 9.82626 16.6514V53.1534C9.82626 53.3587 9.91159 53.5469 10.0823 53.718C10.2534 53.8887 10.4414 53.974 10.6463 53.974H47.0823C47.6205 53.974 48.0849 54.1645 48.4756 54.5454C48.8663 54.9262 49.0616 55.3845 49.0616 55.92C49.0616 56.456 48.8663 56.9145 48.4756 57.2954C48.0849 57.6762 47.6205 57.8667 47.0823 57.8667H10.6463Z" fill="#1C1B1F"/>
</g>
</svg>
