<svg width="64" height="64" viewBox="0 0 64 64" fill="none" xmlns="http://www.w3.org/2000/svg">
<mask id="mask0_4022_858" style="mask-type:alpha" maskUnits="userSpaceOnUse" x="0" y="0" width="64" height="64">
<rect width="64" height="64" fill="#D9D9D9"/>
</mask>
<g mask="url(#mask0_4022_858)">
<path d="M20.868 48.1332C18.6115 48.1332 16.4295 47.7296 14.322 46.9225C12.2144 46.1158 10.34 44.9365 8.69864 43.3845C6.60308 41.3436 5.07419 38.9445 4.11197 36.1872C3.1493 33.4298 2.66797 30.5896 2.66797 27.6665C2.66797 24.2101 3.53464 21.3905 5.26797 19.2078C7.0013 17.0247 9.49864 15.911 12.76 15.8665C13.3244 15.8665 13.9057 15.9247 14.504 16.0412C15.1022 16.1572 15.692 16.3092 16.2733 16.4972L32.068 22.4358L47.9293 16.4972C48.4662 16.3092 49.0338 16.1572 49.632 16.0412C50.2302 15.9247 50.8337 15.8665 51.4426 15.8665C54.6151 15.911 57.0569 17.0247 58.768 19.2078C60.4791 21.3905 61.3346 24.2101 61.3346 27.6665C61.3346 30.5452 60.8422 33.3743 59.8573 36.1538C58.8729 38.9334 57.3551 41.3436 55.304 43.3845C53.6626 44.8921 51.7771 46.0603 49.6473 46.8892C47.5175 47.7185 45.3689 48.1332 43.2013 48.1332C40.8186 48.1332 38.6042 47.5554 36.558 46.3998C34.5117 45.2443 33.2664 44.511 32.822 44.1998H31.1806C30.6917 44.5554 29.4686 45.2998 27.5113 46.4332C25.554 47.5665 23.3395 48.1332 20.868 48.1332ZM20.868 44.2405C22.656 44.2405 24.286 43.8585 25.758 43.0945C27.2295 42.3305 28.6371 41.3792 29.9806 40.2405H34.0886C35.3877 41.3792 36.7731 42.3305 38.2446 43.0945C39.7166 43.8585 41.3466 44.2405 43.1346 44.2405C44.8782 44.2405 46.6064 43.9201 48.3193 43.2792C50.0322 42.6383 51.5295 41.6596 52.8113 40.3432C54.4389 38.6885 55.6175 36.7425 56.3473 34.5052C57.0771 32.2674 57.442 29.9878 57.442 27.6665C57.442 25.4136 56.9344 23.5281 55.9193 22.0099C54.9038 20.4921 53.3311 19.7419 51.2013 19.7592C50.692 19.7592 50.0235 19.9061 49.196 20.1998L32.0013 26.5845L14.8733 20.1998C14.5346 20.0665 14.1782 19.9596 13.804 19.8792C13.4297 19.7992 13.0817 19.7592 12.76 19.7592C10.5857 19.7592 9.00886 20.5138 8.0293 22.0232C7.05019 23.5325 6.56064 25.4136 6.56064 27.6665C6.56064 30.0323 6.91864 32.3272 7.63464 34.5512C8.35108 36.7752 9.55886 38.7281 11.258 40.4098C12.5397 41.6645 14.0191 42.6167 15.696 43.2665C17.3729 43.9158 19.0969 44.2405 20.868 44.2405ZM24.068 38.8565C25.7533 38.8565 27.0797 38.4838 28.0473 37.7385C29.0149 36.9932 29.5073 35.9247 29.5246 34.5332C29.4904 32.3247 28.0202 30.2076 25.114 28.1818C22.2082 26.1561 19.1484 25.1432 15.9346 25.1432C14.2493 25.1432 12.9229 25.5158 11.9553 26.2612C10.9877 27.0065 10.4953 28.075 10.478 29.4665C10.5122 31.675 11.9824 33.7921 14.8886 35.8178C17.7944 37.8436 20.8542 38.8565 24.068 38.8565ZM23.822 35.3078C21.8149 35.3078 19.7371 34.6667 17.5886 33.3845C15.4397 32.1023 14.2302 30.7741 13.96 29.3998C14.2133 29.1812 14.5169 28.9974 14.8706 28.8485C15.2244 28.6996 15.6475 28.6252 16.14 28.6252C18.1297 28.6252 20.21 29.2774 22.3806 30.5819C24.5517 31.8863 25.7724 33.2256 26.0426 34.5998C25.7893 34.8185 25.4789 34.9912 25.1113 35.1178C24.7442 35.2445 24.3144 35.3078 23.822 35.3078ZM39.9346 38.9232C43.1484 38.9232 46.2082 37.8992 49.114 35.8512C52.0202 33.8032 53.4904 31.675 53.5246 29.4665C53.5073 28.0923 53.0217 27.0172 52.068 26.2412C51.1142 25.4647 49.7809 25.0765 48.068 25.0765C44.8715 25.1107 41.816 26.1476 38.9013 28.1872C35.9866 30.2263 34.5122 32.3416 34.478 34.5332C34.4953 35.9074 34.9877 36.9825 35.9553 37.7585C36.9229 38.535 38.2493 38.9232 39.9346 38.9232ZM40.14 35.3332C39.6475 35.3332 39.2313 35.2656 38.8913 35.1305C38.5509 34.9954 38.2542 34.8185 38.0013 34.5998C38.2986 33.2425 39.5122 31.923 41.642 30.6412C43.7722 29.359 45.8457 28.6921 47.8626 28.6405C48.3382 28.6578 48.7571 28.7341 49.1193 28.8692C49.4815 29.0043 49.7893 29.1812 50.0426 29.3998C49.7449 30.7741 48.5242 32.1065 46.3806 33.3972C44.2371 34.6878 42.1569 35.3332 40.14 35.3332Z" fill="#1C1B1F"/>
</g>
</svg>
