<svg width="64" height="64" viewBox="0 0 64 64" fill="none" xmlns="http://www.w3.org/2000/svg">
<mask id="mask0_2503_3477" style="mask-type:alpha" maskUnits="userSpaceOnUse" x="0" y="0" width="64" height="64">
<rect width="64" height="64" fill="#D9D9D9"/>
</mask>
<g mask="url(#mask0_2503_3477)">
<path d="M31.9867 13.81C31.4645 13.81 31.0174 13.6209 30.6454 13.2427C30.2734 12.8644 30.0874 12.416 30.0874 11.8973V5.564C30.0874 5.02667 30.2776 4.56245 30.658 4.17134C31.0385 3.78023 31.4898 3.58467 32.012 3.58467C32.5338 3.58467 32.9923 3.78023 33.3874 4.17134C33.782 4.56245 33.9794 5.02667 33.9794 5.564V11.8973C33.9794 12.416 33.7827 12.8644 33.3894 13.2427C32.9956 13.6209 32.528 13.81 31.9867 13.81ZM44.8614 19.1387C44.4751 18.7969 44.2863 18.3607 44.2947 17.83C44.3031 17.2993 44.5007 16.8244 44.8874 16.4053L49.292 11.908C49.644 11.5489 50.0934 11.3693 50.64 11.3693C51.1871 11.3693 51.6731 11.5507 52.098 11.9133C52.4531 12.3129 52.6307 12.7778 52.6307 13.308C52.6307 13.8378 52.4511 14.2822 52.092 14.6413L47.5947 19.1387C47.1911 19.5418 46.7245 19.7433 46.1947 19.7433C45.6649 19.7433 45.2205 19.5418 44.8614 19.1387ZM52.1027 33.9127C51.584 33.9127 51.1356 33.7224 50.7574 33.342C50.3791 32.9616 50.19 32.5102 50.19 31.988C50.19 31.4662 50.3791 31.0078 50.7574 30.6127C51.1356 30.218 51.584 30.0207 52.1027 30.0207H58.436C58.9734 30.0207 59.4376 30.2173 59.8287 30.6107C60.2198 31.0044 60.4154 31.472 60.4154 32.0133C60.4154 32.5356 60.2198 32.9827 59.8287 33.3547C59.4376 33.7267 58.9734 33.9127 58.436 33.9127H52.1027ZM31.9867 60.3487C31.4645 60.3487 31.0174 60.1596 30.6454 59.7813C30.2734 59.4031 30.0874 58.9547 30.0874 58.436V52.128C30.0874 51.5907 30.2776 51.1264 30.658 50.7353C31.0385 50.3442 31.4898 50.1487 32.012 50.1487C32.5338 50.1487 32.9923 50.3442 33.3874 50.7353C33.782 51.1264 33.9794 51.5907 33.9794 52.128V58.436C33.9794 58.9547 33.7827 59.4031 33.3894 59.7813C32.9956 60.1596 32.528 60.3487 31.9867 60.3487ZM16.4974 19.1387L11.9747 14.708C11.5711 14.3551 11.3694 13.9011 11.3694 13.346C11.3694 12.7904 11.576 12.3111 11.9894 11.908C12.3827 11.5658 12.8389 11.3947 13.358 11.3947C13.8771 11.3947 14.3271 11.5658 14.708 11.908L19.2307 16.4307C19.5725 16.8116 19.7434 17.2727 19.7434 17.814C19.7434 18.3553 19.5743 18.7969 19.236 19.1387C18.828 19.5418 18.3594 19.7433 17.83 19.7433C17.3007 19.7433 16.8565 19.5418 16.4974 19.1387ZM49.3847 52.0253L44.8874 47.528C44.5007 47.1711 44.3031 46.7284 44.2947 46.2C44.2863 45.6716 44.4736 45.2031 44.8567 44.7947C45.2345 44.436 45.6845 44.2567 46.2067 44.2567C46.7285 44.2567 47.1911 44.4447 47.5947 44.8207L52.1334 49.2513C52.4751 49.682 52.6525 50.1631 52.6654 50.6947C52.6782 51.2262 52.5007 51.6722 52.1327 52.0327C51.7367 52.4313 51.2749 52.6307 50.7474 52.6307C50.2194 52.6307 49.7651 52.4289 49.3847 52.0253ZM5.56403 33.9127C5.04537 33.9127 4.59692 33.7224 4.2187 33.342C3.84048 32.9616 3.65137 32.5102 3.65137 31.988C3.65137 31.4662 3.84048 31.0078 4.2187 30.6127C4.59692 30.218 5.04537 30.0207 5.56403 30.0207H11.8974C12.4351 30.0207 12.8996 30.2173 13.2907 30.6107C13.6814 31.0044 13.8767 31.472 13.8767 32.0133C13.8767 32.5356 13.6814 32.9827 13.2907 33.3547C12.8996 33.7267 12.4351 33.9127 11.8974 33.9127H5.56403ZM12 52.0107C11.6138 51.6173 11.4165 51.1624 11.408 50.646C11.3991 50.13 11.588 49.6787 11.9747 49.292L16.446 44.8207C16.8447 44.4447 17.2991 44.2567 17.8094 44.2567C18.3196 44.2567 18.7763 44.448 19.1794 44.8307C19.5385 45.2582 19.718 45.7402 19.718 46.2767C19.718 46.8136 19.5385 47.2616 19.1794 47.6207L14.7747 52.0253C14.3516 52.4289 13.8674 52.6307 13.322 52.6307C12.7771 52.6307 12.3365 52.424 12 52.0107ZM32.006 46.6667C27.9336 46.6667 24.47 45.2413 21.6154 42.3907C18.7607 39.54 17.3334 36.0784 17.3334 32.006C17.3334 27.9336 18.7587 24.47 21.6094 21.6153C24.46 18.7607 27.9216 17.3333 31.994 17.3333C36.0665 17.3333 39.53 18.7587 42.3847 21.6093C45.2394 24.46 46.6667 27.9216 46.6667 31.994C46.6667 36.0664 45.2414 39.53 42.3907 42.3847C39.54 45.2393 36.0785 46.6667 32.006 46.6667ZM31.996 42.774C34.9627 42.774 37.5007 41.7207 39.61 39.614C41.7194 37.5073 42.774 34.9707 42.774 32.004C42.774 29.0373 41.7207 26.4993 39.614 24.39C37.5074 22.2807 34.9707 21.226 32.004 21.226C29.0374 21.226 26.4994 22.2793 24.39 24.386C22.2807 26.4927 21.226 29.0293 21.226 31.996C21.226 34.9627 22.2794 37.5007 24.386 39.61C26.4927 41.7193 29.0294 42.774 31.996 42.774Z" fill="#1C1B1F"/>
</g>
</svg>
