<svg width="64" height="64" viewBox="0 0 64 64" fill="none" xmlns="http://www.w3.org/2000/svg">
<mask id="mask0_2503_3455" style="mask-type:alpha" maskUnits="userSpaceOnUse" x="0" y="0" width="64" height="64">
<rect width="64" height="64" fill="#D9D9D9"/>
</mask>
<g mask="url(#mask0_2503_3455)">
<path d="M31.5899 9.57468L14.3386 19.554L31.9999 29.8307L49.6206 19.554L32.4099 9.57468C32.2735 9.50623 32.1368 9.47201 31.9999 9.47201C31.863 9.47201 31.7264 9.50623 31.5899 9.57468ZM8.2666 42.774V21.226C8.2666 20.4269 8.46527 19.6618 8.8626 18.9307C9.26038 18.1996 9.85838 17.6073 10.6566 17.154L29.6766 6.15401C30.0597 5.94868 30.4415 5.80157 30.8219 5.71268C31.2024 5.62379 31.5895 5.57935 31.9833 5.57935C32.3775 5.57935 32.7813 5.62379 33.1946 5.71268C33.6084 5.80157 34.0068 5.94868 34.3899 6.15401L53.3433 17.154C54.097 17.6073 54.6839 18.1996 55.1039 18.9307C55.5235 19.6618 55.7333 20.4269 55.7333 21.226V31.764C55.7333 32.3262 55.5364 32.7967 55.1426 33.1753C54.7493 33.554 54.2819 33.7433 53.7406 33.7433C53.2184 33.7433 52.7713 33.554 52.3993 33.1753C52.0268 32.7967 51.8406 32.3262 51.8406 31.764V22.7333L34.4306 32.8873C33.6817 33.3318 32.8935 33.5607 32.0659 33.574C31.2388 33.5878 30.4562 33.3725 29.7179 32.928L12.1593 22.7073V42.7333C12.1593 42.8702 12.1933 42.9985 12.2613 43.118C12.3297 43.2376 12.4324 43.34 12.5693 43.4253L32.4926 54.8613C32.7539 55.0205 32.9764 55.2536 33.1599 55.5607C33.3439 55.8678 33.4359 56.2089 33.4359 56.584C33.4359 57.3298 33.1104 57.8958 32.4593 58.282C31.8077 58.6682 31.1675 58.6596 30.5386 58.256L10.6786 46.854C9.86571 46.3953 9.26038 45.8005 8.8626 45.0693C8.46527 44.3382 8.2666 43.5731 8.2666 42.774ZM49.8186 62.3333C46.6608 62.3333 43.9528 61.2176 41.6946 58.986C39.4368 56.7545 38.3079 54.0373 38.3079 50.8347C38.3079 47.6578 39.4375 44.9425 41.6966 42.6887C43.9557 40.4349 46.6642 39.308 49.8219 39.308C52.9797 39.308 55.6877 40.432 57.9459 42.68C60.2042 44.928 61.3333 47.6551 61.3333 50.8613C61.3333 54.0569 60.2037 56.7678 57.9446 58.994C55.685 61.2202 52.9764 62.3333 49.8186 62.3333ZM49.1846 53.7487L45.4253 49.99C45.1599 49.8016 44.8757 49.7031 44.5726 49.6947C44.2695 49.6862 44.0153 49.7878 43.8099 49.9993C43.5606 50.2633 43.4359 50.5525 43.4359 50.8667C43.4359 51.1813 43.5595 51.4393 43.8066 51.6407L48.6959 56.574C48.8986 56.8202 49.1408 57.0145 49.4226 57.1567C49.7039 57.2985 50.0057 57.3693 50.3279 57.3693C50.6657 57.3693 50.9759 57.2985 51.2586 57.1567C51.5408 57.0145 51.7828 56.8202 51.9846 56.574L56.9179 51.6407C57.1468 51.4562 57.2544 51.1993 57.2406 50.87C57.2273 50.5407 57.1148 50.2474 56.9033 49.99C56.6393 49.7847 56.3499 49.682 56.0353 49.682C55.7211 49.682 55.4584 49.7876 55.2473 49.9987L51.5233 53.7487V44.5127C51.5233 44.1953 51.4019 43.9178 51.1593 43.68C50.9166 43.4422 50.641 43.3233 50.3326 43.3233C50.0237 43.3233 49.7553 43.4422 49.5273 43.68C49.2988 43.9178 49.1846 44.1953 49.1846 44.5127V53.7487Z" fill="#1C1B1F"/>
</g>
</svg>
