<svg width="600" height="115" viewBox="0 0 600 115" fill="none" xmlns="http://www.w3.org/2000/svg">
<path fill-rule="evenodd" clip-rule="evenodd" d="M29.3578 0.142212C13.1439 0.142212 0 13.3965 0 29.7465V85.2545C0 101.604 13.1439 114.859 29.3578 114.859L41.1012 114.859V57.5005C41.1012 35.8367 58.5169 18.2748 80.0003 18.2748C101.484 18.2748 118.899 35.8367 118.899 57.5005C118.899 79.1642 101.484 96.7261 80.0003 96.7261C71.6668 96.7261 63.9453 94.0836 57.615 89.5841V114.859L130.642 114.859C146.856 114.859 160 101.604 160 85.2545V29.7465C160 13.3965 146.856 0.142212 130.642 0.142212H29.3578ZM129.724 34.9272C135.298 34.9272 139.816 30.3711 139.816 24.7508C139.816 19.1305 135.298 14.5743 129.724 14.5743C124.151 14.5743 119.633 19.1305 119.633 24.7508C119.633 30.3711 124.151 34.9272 129.724 34.9272Z" fill="#1B1035"/>
<path d="M57.615 57.6183C57.6779 70.031 67.6759 80.0737 80 80.0737C92.3631 80.0737 102.385 69.9674 102.385 57.5005C102.385 45.0336 92.3631 34.9272 80 34.9272C67.6369 34.9272 57.6147 45.0336 57.6147 57.5005L57.615 57.6183Z" fill="#1B1035"/>
<path d="M404.486 94.311C403.845 94.311 403.525 93.9061 403.525 93.0963V21.8553C403.525 21.0455 403.845 20.6406 404.486 20.6406H417.621C424.313 20.6406 429.226 22.5179 432.358 26.2725C435.562 30.0271 437.164 35.9167 437.164 43.9412C437.164 51.3768 435.527 57.0823 432.252 61.0577C429.048 65.0332 424.313 67.0209 418.048 67.0209H414.738V93.0963C414.738 93.9061 414.417 94.311 413.777 94.311H404.486ZM414.738 56.5301H417.621C420.54 56.5301 422.64 55.4995 423.922 53.4381C425.275 51.3768 425.951 48.2479 425.951 44.0516C425.951 39.4136 425.275 36.1007 423.922 34.113C422.64 32.1253 420.611 31.1314 417.835 31.1314H414.738V56.5301Z" fill="#1B1035"/>
<path d="M441.544 94.1436C440.832 94.1436 440.476 93.7387 440.476 92.9289V21.8553C440.476 21.0455 440.832 20.6406 441.544 20.6406H450.622C451.334 20.6406 451.69 21.0455 451.69 21.8553V83.6528L472.785 83.9841C473.496 83.9841 473.852 84.389 473.852 85.1988V93.2602C473.852 94.07 473.496 94.4749 472.785 94.4749L441.544 94.1436Z" fill="#1B1035"/>
<path d="M480.162 94.1436C479.45 94.1436 479.165 93.7019 479.308 92.8185L493.511 21.8019C493.653 21.1393 494.045 20.808 494.686 20.808H506.753C507.394 20.808 507.785 21.1393 507.928 21.8019L522.131 92.8185C522.274 93.7019 522.024 94.1436 521.384 94.1436H511.238C510.669 94.1436 510.313 93.8491 510.17 93.2602L503.015 48.255C502.588 45.6783 502.161 43.1384 501.734 40.6353C501.378 38.0587 501.058 35.5188 500.773 33.0157H500.559C500.203 35.5188 499.847 38.0587 499.491 40.6353C499.207 43.1384 498.851 45.6783 498.423 48.255L491.055 93.2602C490.984 93.8491 490.663 94.1436 490.094 94.1436H480.162ZM491.802 77.7396L493.511 67.9114H507.607L509.423 77.7396H491.802Z" fill="#1B1035"/>
<path d="M545.7 94.304C539.363 94.304 534.522 92.3899 531.176 88.5617C527.901 84.6598 526.264 78.623 526.264 70.4513V44.5004C526.264 36.5495 527.901 30.5863 531.176 26.6108C534.522 22.6354 539.363 20.6477 545.7 20.6477C550.114 20.6477 553.816 21.6783 556.806 23.7397C559.796 25.801 561.932 28.709 563.214 32.4636C564.566 36.2182 564.958 40.6354 564.388 45.7151C564.246 46.4513 563.925 46.8194 563.427 46.8194H554.136C553.424 46.8194 553.139 46.4145 553.282 45.6047C553.638 40.893 553.211 37.3225 552 34.893C550.79 32.4636 548.654 31.2489 545.593 31.2489C542.816 31.2489 540.752 32.3163 539.399 34.4513C538.046 36.5863 537.37 40.0832 537.37 44.9421V69.7887C537.37 74.7948 538.046 78.3653 539.399 80.5003C540.823 82.6353 542.923 83.7028 545.7 83.7028C548.903 83.7028 551.039 82.4144 552.107 79.8377C553.175 77.1874 553.602 73.6905 553.389 69.347C553.317 68.4635 553.602 68.0218 554.243 68.0218H563.32C563.961 68.0218 564.353 68.4635 564.495 69.347C565.065 77.077 563.747 83.1874 560.544 87.6782C557.411 92.0954 552.463 94.304 545.7 94.304Z" fill="#1B1035"/>
<path d="M569.673 94.311C568.962 94.311 568.606 93.9061 568.606 93.0963V21.8553C568.606 21.0455 568.926 20.6406 569.567 20.6406H599.039C599.68 20.6406 600 21.0455 600 21.8553V29.9167C600 30.7265 599.68 31.1314 599.039 31.1314H579.819V51.8991H597.437C598.078 51.8991 598.398 52.304 598.398 53.1139V60.7335C598.398 61.5433 598.078 61.9482 597.437 61.9482H579.819V83.8202H599.039C599.68 83.8202 600 84.2251 600 85.0349V93.0963C600 93.9061 599.68 94.311 599.039 94.311H569.673Z" fill="#1B1035"/>
<path d="M200.955 94.3503C200.318 94.3503 200 93.9453 200 93.1353V21.8808C200 21.0709 200.318 20.6659 200.955 20.6659H214.001C220.648 20.6659 225.528 22.5435 228.639 26.2988C231.821 30.0541 233.412 35.9448 233.412 43.9709C233.412 51.4079 231.786 57.1145 228.533 61.0907C225.351 65.0669 220.648 67.055 214.426 67.055H211.137V93.1353C211.137 93.9453 210.819 94.3503 210.183 94.3503H200.955ZM211.137 56.5622H214.001C216.901 56.5622 218.987 55.5313 220.259 53.4696C221.603 51.4079 222.275 48.2784 222.275 44.0813C222.275 39.4424 221.603 36.1289 220.259 34.1408C218.987 32.1527 216.971 31.1586 214.213 31.1586H211.137V56.5622Z" fill="#1B1035"/>
<path d="M238.501 94.3503C237.794 94.3503 237.44 93.9453 237.44 93.1353V21.8808C237.44 21.0709 237.794 20.6659 238.501 20.6659H247.517C248.224 20.6659 248.577 21.0709 248.577 21.8808V51.4885H264.382V21.8808C264.382 21.0709 264.7 20.6659 265.336 20.6659H274.352C275.06 20.6659 275.413 21.0709 275.413 21.8808V93.1353C275.413 93.9453 275.06 94.3503 274.352 94.3503H265.336C264.7 94.3503 264.382 93.9453 264.382 93.1353V61.8708H248.577V93.1353C248.577 93.9453 248.224 94.3503 247.517 94.3503H238.501Z" fill="#1B1035"/>
<path d="M300.009 94.3432C293.715 94.3432 288.907 92.4288 285.583 88.5998C282.33 84.7709 280.704 79.0643 280.704 71.48V43.6466C280.704 35.9887 282.33 30.2453 285.583 26.4163C288.907 22.5874 293.715 20.6729 300.009 20.6729C306.232 20.6729 311.005 22.5874 314.328 26.4163C317.652 30.2453 319.314 35.9887 319.314 43.6466V71.48C319.314 79.0643 317.652 84.7709 314.328 88.5998C311.005 92.4288 306.232 94.3432 300.009 94.3432ZM300.009 83.74C302.767 83.74 304.817 82.746 306.161 80.7578C307.575 78.7697 308.282 75.493 308.282 70.9278V44.1988C308.282 39.5599 307.575 36.2464 306.161 34.2583C304.817 32.2702 302.767 31.2761 300.009 31.2761C297.251 31.2761 295.165 32.2702 293.751 34.2583C292.407 36.2464 291.735 39.5599 291.735 44.1988V70.9278C291.735 75.493 292.407 78.7697 293.751 80.7578C295.165 82.746 297.251 83.74 300.009 83.74Z" fill="#1B1035"/>
<path d="M334.524 94.3503C333.887 94.3503 333.569 93.9453 333.569 93.1353V31.3261H322.538C321.831 31.3261 321.477 30.9211 321.477 30.1111V22.0482C321.477 21.2383 321.831 20.8333 322.538 20.8333H355.738C356.374 20.8333 356.692 21.2383 356.692 22.0482V30.1111C356.692 30.9211 356.374 31.3261 355.738 31.3261H344.707V93.1353C344.707 93.9453 344.353 94.3503 343.646 94.3503H334.524Z" fill="#1B1035"/>
<path d="M378.072 94.3432C371.779 94.3432 366.97 92.4288 363.647 88.5998C360.394 84.7709 358.767 79.0643 358.767 71.48V43.6466C358.767 35.9887 360.394 30.2453 363.647 26.4163C366.97 22.5874 371.779 20.6729 378.072 20.6729C384.295 20.6729 389.068 22.5874 392.392 26.4163C395.715 30.2453 397.377 35.9887 397.377 43.6466V71.48C397.377 79.0643 395.715 84.7709 392.392 88.5998C389.068 92.4288 384.295 94.3432 378.072 94.3432ZM378.072 83.74C380.83 83.74 382.881 82.746 384.224 80.7578C385.639 78.7697 386.346 75.493 386.346 70.9278V44.1988C386.346 39.5599 385.639 36.2464 384.224 34.2583C382.881 32.2702 380.83 31.2761 378.072 31.2761C375.314 31.2761 373.228 32.2702 371.814 34.2583C370.471 36.2464 369.799 39.5599 369.799 44.1988V70.9278C369.799 75.493 370.471 78.7697 371.814 80.7578C373.228 82.746 375.314 83.74 378.072 83.74Z" fill="#1B1035"/>
</svg>
