<svg width="352" height="272" viewBox="0 0 352 272" fill="none" xmlns="http://www.w3.org/2000/svg">
<path d="M13.6859 272C12.5613 272 11.9991 271.275 11.9991 269.824V142.176C11.9991 140.725 12.5613 140 13.6859 140H36.7397C48.4852 140 57.1069 143.364 62.6049 150.091C68.2277 156.818 71.0392 167.371 71.0392 181.749C71.0392 195.072 68.1652 205.295 62.4174 212.418C56.7946 219.541 48.4852 223.103 37.4894 223.103H31.6791V269.824C31.6791 271.275 31.1168 272 29.9922 272H13.6859ZM31.6791 204.306H36.7397C41.8627 204.306 45.5488 202.459 47.798 198.765C50.1721 195.072 51.3591 189.466 51.3591 181.947C51.3591 173.637 50.1721 167.701 47.798 164.139C45.5488 160.578 41.9877 158.797 37.1145 158.797H31.6791V204.306Z" fill="#1B1035"/>
<path d="M78.7272 271.7C77.4777 271.7 76.8529 270.975 76.8529 269.524V142.176C76.8529 140.725 77.4777 140 78.7272 140H94.6587C95.9082 140 96.5329 140.725 96.5329 142.176V252.903H126.334C127.584 252.903 128.208 253.629 128.208 255.08V269.524C128.208 270.975 127.584 271.7 126.334 271.7H78.7272Z" fill="#1B1035"/>
<path d="M136.583 271.7C135.334 271.7 134.834 270.909 135.084 269.326L160.012 142.081C160.262 140.894 160.949 140.3 162.073 140.3H183.253C184.377 140.3 185.065 140.894 185.315 142.081L210.243 269.326C210.493 270.909 210.055 271.7 208.931 271.7H191.125C190.125 271.7 189.501 271.172 189.251 270.117L176.693 189.478C175.943 184.862 175.193 180.311 174.444 175.826C173.819 171.209 173.257 166.658 172.757 162.173H172.382C171.757 166.658 171.132 171.209 170.508 175.826C170.008 180.311 169.383 184.862 168.633 189.478L155.701 270.117C155.576 271.172 155.014 271.7 154.014 271.7H136.583ZM157.013 242.308L160.012 224.698H184.752L187.939 242.308H157.013Z" fill="#1B1035"/>
<path d="M246.567 271.987C235.447 271.987 226.95 268.558 221.077 261.699C215.329 254.707 212.455 243.891 212.455 229.249V182.751C212.455 168.505 215.329 157.82 221.077 150.697C226.95 143.574 235.447 140.013 246.567 140.013C254.314 140.013 260.812 141.859 266.06 145.553C271.308 149.246 275.057 154.457 277.306 161.184C279.68 167.911 280.367 175.826 279.367 184.928C279.117 186.247 278.555 186.906 277.681 186.906H261.374C260.125 186.906 259.625 186.181 259.875 184.73C260.5 176.288 259.75 169.89 257.626 165.537C255.501 161.184 251.753 159.007 246.38 159.007C241.507 159.007 237.883 160.92 235.509 164.746C233.135 168.571 231.948 174.837 231.948 183.543V228.062C231.948 237.032 233.135 243.429 235.509 247.254C238.008 251.08 241.694 252.993 246.567 252.993C252.19 252.993 255.939 250.684 257.813 246.067C259.687 241.319 260.437 235.053 260.062 227.27C259.937 225.687 260.437 224.896 261.562 224.896H277.493C278.618 224.896 279.305 225.687 279.555 227.27C280.554 241.121 278.243 252.069 272.62 260.116C267.122 268.03 258.438 271.987 246.567 271.987Z" fill="#1B1035"/>
<path d="M288.644 272C287.394 272 286.769 271.275 286.769 269.824V142.176C286.769 140.725 287.332 140 288.456 140H338.312C339.437 140 339.999 140.725 339.999 142.176V156.621C339.999 158.072 339.437 158.797 338.312 158.797H306.449V196.008H335.501C336.625 196.008 337.188 196.733 337.188 198.184V211.837C337.188 213.288 336.625 214.013 335.501 214.013H306.449V253.203H338.312C339.437 253.203 339.999 253.928 339.999 255.379V269.824C339.999 271.275 339.437 272 338.312 272H288.644Z" fill="#1B1035"/>
<path d="M1.70815 132C0.569385 132 0 131.275 0 129.824V2.17649C0 0.725498 0.569385 0 1.70815 0H25.0529C36.9468 0 45.6773 3.36368 51.2446 10.091C56.9385 16.8184 59.7854 27.3711 59.7854 41.7492C59.7854 55.0719 56.8752 65.2949 51.0548 72.418C45.361 79.541 36.9468 83.1026 25.8121 83.1026H19.9285V129.824C19.9285 131.275 19.3591 132 18.2203 132H1.70815ZM19.9285 64.3056H25.0529C30.2407 64.3056 33.9733 62.4588 36.2508 58.7654C38.6549 55.072 39.8569 49.4658 39.8569 41.947C39.8569 33.6368 38.6549 27.7009 36.2508 24.1393C33.9733 20.5778 30.3672 18.797 25.4325 18.797H19.9285V64.3056Z" fill="#1B1035"/>
<path d="M68.3039 132C67.0387 132 66.406 131.275 66.406 129.824V2.17649C66.406 0.725498 67.0387 0 68.3039 0H84.4365C85.7018 0 86.3345 0.725498 86.3345 2.17649V55.2164H114.614V2.17649C114.614 0.725498 115.183 0 116.322 0H132.455C133.72 0 134.353 0.725498 134.353 2.17649V129.824C134.353 131.275 133.72 132 132.455 132H116.322C115.183 132 114.614 131.275 114.614 129.824V73.8156H86.3345V129.824C86.3345 131.275 85.7018 132 84.4365 132H68.3039Z" fill="#1B1035"/>
<path d="M178.069 131.987C166.808 131.987 158.204 128.558 152.257 121.699C146.437 114.839 143.527 104.616 143.527 91.0297V41.1682C143.527 27.4496 146.437 17.1607 152.257 10.3015C158.204 3.44222 166.808 0.0125948 178.069 0.0125948C189.204 0.0125948 197.745 3.44222 203.692 10.3015C209.638 17.1607 212.612 27.4496 212.612 41.1682V91.0297C212.612 104.616 209.638 114.839 203.692 121.699C197.745 128.558 189.204 131.987 178.069 131.987ZM178.069 112.993C183.004 112.993 186.673 111.212 189.077 107.65C191.608 104.089 192.873 98.2187 192.873 90.0404V42.1575C192.873 33.8472 191.608 27.9113 189.077 24.3498C186.673 20.7882 183.004 19.0075 178.069 19.0075C173.135 19.0075 169.402 20.7882 166.871 24.3498C164.467 27.9113 163.265 33.8472 163.265 42.1575V90.0404C163.265 98.2187 164.467 104.089 166.871 107.65C169.402 111.212 173.135 112.993 178.069 112.993Z" fill="#1B1035"/>
<path d="M239.535 132C238.396 132 237.826 131.275 237.826 129.824V19.097H218.088C216.822 19.097 216.19 18.3715 216.19 16.9205V2.47643C216.19 1.02544 216.822 0.299943 218.088 0.299943H277.494C278.632 0.299943 279.202 1.02544 279.202 2.47643V16.9205C279.202 18.3715 278.632 19.097 277.494 19.097H257.755V129.824C257.755 131.275 257.122 132 255.857 132H239.535Z" fill="#1B1035"/>
<path d="M317.457 131.987C306.196 131.987 297.592 128.558 291.645 121.699C285.825 114.839 282.915 104.616 282.915 91.0297V41.1682C282.915 27.4496 285.825 17.1607 291.645 10.3015C297.592 3.44222 306.196 0.0125948 317.457 0.0125948C328.592 0.0125948 337.133 3.44222 343.08 10.3015C349.027 17.1607 352 27.4496 352 41.1682V91.0297C352 104.616 349.027 114.839 343.08 121.699C337.133 128.558 328.592 131.987 317.457 131.987ZM317.457 112.993C322.392 112.993 326.061 111.212 328.465 107.65C330.996 104.089 332.261 98.2187 332.261 90.0404V42.1575C332.261 33.8472 330.996 27.9113 328.465 24.3498C326.061 20.7882 322.392 19.0075 317.457 19.0075C312.523 19.0075 308.79 20.7882 306.259 24.3498C303.855 27.9113 302.653 33.8472 302.653 42.1575V90.0404C302.653 98.2187 303.855 104.089 306.259 107.65C308.79 111.212 312.523 112.993 317.457 112.993Z" fill="#1B1035"/>
</svg>
