<svg width="1904" height="360" viewBox="0 0 1904 360" fill="none" xmlns="http://www.w3.org/2000/svg">
<path d="M4.66261 352.407C1.5542 352.407 0 350.47 0 346.597V5.84719C0 1.9738 1.5542 0.0371094 4.66261 0.0371094H68.385C100.851 0.0371094 124.682 9.01634 139.878 26.9748C155.42 44.9333 163.191 73.1034 163.191 111.485C163.191 147.05 155.248 174.34 139.36 193.355C123.818 212.37 100.851 221.877 70.4573 221.877H54.3971V346.597C54.3971 350.47 52.8429 352.407 49.7345 352.407H4.66261ZM54.3971 171.699H68.385C82.5455 171.699 92.7342 166.769 98.951 156.91C105.513 147.05 108.794 132.085 108.794 112.013C108.794 89.8294 105.513 73.9837 98.951 64.4763C92.7342 54.9689 82.8909 50.2152 69.4211 50.2152H54.3971V171.699Z" fill="#1B1035"/>
<path d="M186.444 352.407C182.99 352.407 181.263 350.47 181.263 346.597V5.84719C181.263 1.9738 182.99 0.0371094 186.444 0.0371094H230.48C233.933 0.0371094 235.66 1.9738 235.66 5.84719V147.436H312.852V5.84719C312.852 1.9738 314.407 0.0371094 317.515 0.0371094H361.551C365.005 0.0371094 366.732 1.9738 366.732 5.84719V346.597C366.732 350.47 365.005 352.407 361.551 352.407H317.515C314.407 352.407 312.852 350.47 312.852 346.597V197.086H235.66V346.597C235.66 350.47 233.933 352.407 230.48 352.407H186.444Z" fill="#1B1035"/>
<path d="M486.061 352.374C455.322 352.374 431.837 343.218 415.604 324.908C399.716 306.597 391.773 279.307 391.773 243.038V109.934C391.773 73.3131 399.716 45.8472 415.604 27.5366C431.837 9.22603 455.322 0.0707309 486.061 0.0707309C516.455 0.0707309 539.768 9.22603 556 27.5366C572.233 45.8472 580.35 73.3131 580.35 109.934V243.038C580.35 279.307 572.233 306.597 556 324.908C539.768 343.218 516.455 352.374 486.061 352.374ZM486.061 301.667C499.531 301.667 509.547 296.914 516.109 287.406C523.017 277.899 526.471 262.229 526.471 240.397V112.575C526.471 90.3912 523.017 74.5455 516.109 65.0381C509.547 55.5307 499.531 50.777 486.061 50.777C472.591 50.777 462.403 55.5307 455.495 65.0381C448.933 74.5455 445.652 90.3912 445.652 112.575V240.397C445.652 262.229 448.933 277.899 455.495 287.406C462.403 296.914 472.591 301.667 486.061 301.667Z" fill="#1B1035"/>
<path d="M653.838 352.407C650.73 352.407 649.176 350.47 649.176 346.597V51.0159H595.297C591.843 51.0159 590.116 49.0792 590.116 45.2058V6.64788C590.116 2.77449 591.843 0.837798 595.297 0.837798H757.452C760.56 0.837798 762.115 2.77449 762.115 6.64788V45.2058C762.115 49.0792 760.56 51.0159 757.452 51.0159H703.573V346.597C703.573 350.47 701.846 352.407 698.392 352.407H653.838Z" fill="#1B1035"/>
<path d="M866.538 352.374C835.799 352.374 812.313 343.218 796.08 324.908C780.193 306.597 772.249 279.307 772.249 243.038V109.934C772.249 73.3131 780.193 45.8472 796.08 27.5366C812.313 9.22603 835.799 0.0707309 866.538 0.0707309C896.931 0.0707309 920.244 9.22603 936.477 27.5366C952.71 45.8472 960.826 73.3131 960.826 109.934V243.038C960.826 279.307 952.71 306.597 936.477 324.908C920.244 343.218 896.931 352.374 866.538 352.374ZM866.538 301.667C880.007 301.667 890.023 296.914 896.586 287.406C903.493 277.899 906.947 262.229 906.947 240.397V112.575C906.947 90.3912 903.493 74.5455 896.586 65.0381C890.023 55.5307 880.007 50.777 866.538 50.777C853.068 50.777 842.879 55.5307 835.972 65.0381C829.409 74.5455 826.128 90.3912 826.128 112.575V240.397C826.128 262.229 829.409 277.899 835.972 287.406C842.879 296.914 853.068 301.667 866.538 301.667Z" fill="#1B1035"/>
<path d="M995.736 352.37C992.606 352.37 991.041 350.433 991.041 346.56V5.81008C991.041 1.93669 992.606 0 995.736 0H1059.9C1092.6 0 1116.59 8.97923 1131.9 26.9377C1147.55 44.8962 1155.37 73.0663 1155.37 111.448C1155.37 147.013 1147.37 174.303 1131.38 193.318C1115.72 212.332 1092.6 221.84 1061.99 221.84H1045.82V346.56C1045.82 350.433 1044.25 352.37 1041.12 352.37H995.736ZM1045.82 171.662H1059.9C1074.16 171.662 1084.42 166.732 1090.68 156.872C1097.29 147.013 1100.6 132.048 1100.6 111.976C1100.6 89.7923 1097.29 73.9466 1090.68 64.4392C1084.42 54.9318 1074.51 50.1781 1060.95 50.1781H1045.82V171.662Z" fill="#1B1035"/>
<path d="M1176.77 351.569C1173.29 351.569 1171.56 349.633 1171.56 345.759V5.81008C1171.56 1.93669 1173.29 0 1176.77 0H1221.12C1224.59 0 1226.33 1.93669 1226.33 5.81008V301.391H1309.28C1312.76 301.391 1314.5 303.328 1314.5 307.201V345.759C1314.5 349.633 1312.76 351.569 1309.28 351.569H1176.77Z" fill="#1B1035"/>
<path d="M1337.81 351.569C1334.33 351.569 1332.94 349.457 1333.64 345.231L1403.02 5.5544C1403.72 2.38526 1405.63 0.800688 1408.76 0.800688H1467.71C1470.84 0.800688 1472.75 2.38526 1473.45 5.5544L1542.83 345.231C1543.53 349.457 1542.31 351.569 1539.18 351.569H1489.62C1486.84 351.569 1485.1 350.161 1484.4 347.344L1449.45 132.081C1447.36 119.757 1445.28 107.608 1443.19 95.636C1441.45 83.3116 1439.89 71.1632 1438.5 59.1909H1437.45C1435.71 71.1632 1433.97 83.3116 1432.24 95.636C1430.84 107.608 1429.11 119.757 1427.02 132.081L1391.02 347.344C1390.67 350.161 1389.11 351.569 1386.33 351.569H1337.81ZM1394.67 273.108L1403.02 226.099H1471.88L1480.75 273.108H1394.67Z" fill="#1B1035"/>
<path d="M1643.94 352.336C1612.99 352.336 1589.34 343.181 1572.99 324.871C1556.99 306.208 1548.99 277.333 1548.99 238.247V114.123C1548.99 76.093 1556.99 47.5707 1572.99 28.5559C1589.34 9.54104 1612.99 0.0336215 1643.94 0.0336215C1665.5 0.0336215 1683.59 4.96339 1698.2 14.8229C1712.8 24.6825 1723.24 38.5915 1729.5 56.55C1736.11 74.5084 1738.02 95.636 1735.24 119.933C1734.54 123.454 1732.98 125.215 1730.54 125.215H1685.15C1681.68 125.215 1680.29 123.278 1680.98 119.405C1682.72 96.8685 1680.63 79.7903 1674.72 68.1702C1668.81 56.55 1658.37 50.7399 1643.42 50.7399C1629.86 50.7399 1619.77 55.8457 1613.16 66.0574C1606.55 76.2691 1603.25 92.9951 1603.25 116.235V235.078C1603.25 259.023 1606.55 276.101 1613.16 286.313C1620.12 296.524 1630.38 301.63 1643.94 301.63C1659.59 301.63 1670.03 295.468 1675.24 283.144C1680.46 270.467 1682.55 253.741 1681.5 232.965C1681.15 228.74 1682.55 226.627 1685.68 226.627H1730.02C1733.15 226.627 1735.06 228.74 1735.76 232.965C1738.54 269.939 1732.11 299.165 1716.46 320.645C1701.15 341.773 1676.98 352.336 1643.94 352.336Z" fill="#1B1035"/>
<path d="M1761.06 352.37C1757.58 352.37 1755.84 350.433 1755.84 346.56V5.81008C1755.84 1.93669 1757.4 0 1760.53 0H1899.3C1902.43 0 1904 1.93669 1904 5.81008V44.368C1904 48.2414 1902.43 50.1781 1899.3 50.1781H1810.62V149.511H1891.48C1894.61 149.511 1896.17 151.448 1896.17 155.322V191.767C1896.17 195.64 1894.61 197.577 1891.48 197.577H1810.62V302.192H1899.3C1902.43 302.192 1904 304.129 1904 308.002V346.56C1904 350.433 1902.43 352.37 1899.3 352.37H1761.06Z" fill="#1B1035"/>
</svg>
