<svg width="120" height="60" viewBox="0 0 120 60" fill="none" xmlns="http://www.w3.org/2000/svg">
<path d="M30 0C10.35 0 0 15.15 0 30C0 44.85 10.35 60 30 60C41.85 60 51.3 51.6 60 41.7C68.7 51.6 77.85 60 90 60C109.65 60 120 44.85 120 30C120 15.15 109.65 0 90 0C77.85 0 68.7 8.4 60 18.3C51.3 8.4 41.85 0 30 0ZM30 15C36.3 15 43.2 22.05 50.1 30C43.2 37.95 36.3 45 30 45C18.9 45 15 36.9 15 30C15 23.1 18.9 15 30 15ZM90 15C101.1 15 105 23.1 105 30C105 36.9 101.1 45 90 45C83.55 45 76.65 37.95 69.9 30C76.8 22.05 83.55 15 90 15Z" fill="#FE00A0"/>
</svg>
