<svg width="120" height="120" viewBox="0 0 120 120" fill="none" xmlns="http://www.w3.org/2000/svg">
<path d="M30 40C10.35 40 0 55.15 0 70C0 84.85 10.35 100 30 100C41.85 100 51.3 91.6 60 81.7C68.7 91.6 77.85 100 90 100C109.65 100 120 84.85 120 70C120 55.15 109.65 40 90 40C77.85 40 68.7 48.4 60 58.3C51.3 48.4 41.85 40 30 40ZM30 55C36.3 55 43.2 62.05 50.1 70C43.2 77.95 36.3 85 30 85C18.9 85 15 76.9 15 70C15 63.1 18.9 55 30 55ZM90 55C101.1 55 105 63.1 105 70C105 76.9 101.1 85 90 85C83.55 85 76.65 77.95 69.9 70C76.8 62.05 83.55 55 90 55Z" fill="#FE00A0"/>
</svg>
