<svg width="64" height="64" viewBox="0 0 64 64" fill="none" xmlns="http://www.w3.org/2000/svg">
<g clip-path="url(#clip0_2406_3775)">
<path d="M32.0104 0C18.6507 0 14.7435 0.0137875 13.984 0.0767998C11.2424 0.304757 9.53641 0.736554 7.67778 1.66215C6.24545 2.37362 5.1158 3.19829 4.00093 4.35433C1.97056 6.46257 0.740019 9.05626 0.294555 12.1394C0.0779912 13.6361 0.0149784 13.9413 0.00218238 21.5866C-0.00272798 24.135 0.00218238 27.4888 0.00218238 31.9874C0.00218238 45.3399 0.0169376 49.2443 0.0809416 50.0025C0.30244 52.671 0.720812 54.3499 1.60681 56.1864C3.30003 59.7018 6.53386 62.3408 10.3436 63.3255C11.6628 63.6652 13.1197 63.8523 14.9901 63.9409C15.7826 63.9754 23.8598 64 31.942 64C40.0242 64 48.1064 63.9902 48.8791 63.9508C51.0449 63.8488 52.3025 63.68 53.693 63.3205C57.5274 62.3309 60.7022 59.7313 62.4298 56.1667C63.2986 54.3745 63.7391 52.6316 63.9385 50.1024C63.9818 49.551 64 40.7591 64 31.9791C64 23.1975 63.9803 14.4219 63.937 13.8704C63.7352 11.3004 63.2947 9.57226 62.3978 7.74563C61.662 6.25036 60.8449 5.1337 59.6587 3.99198C57.5417 1.96939 54.9526 0.738514 51.8674 0.293437C50.3725 0.0772839 50.0748 0.0132798 42.4257 0H32.0104Z" fill="#FE00A0"/>
<path d="M32.0016 14.9585C27.3734 14.9585 26.7926 14.9787 24.9748 15.0615C23.1606 15.1445 21.9222 15.4318 20.8387 15.8532C19.7178 16.2884 18.7671 16.8707 17.8198 17.8183C16.8719 18.7655 16.2896 19.7162 15.8529 20.8367C15.4305 21.9206 15.1429 23.1593 15.0612 24.9728C14.9799 26.7906 14.9586 27.3718 14.9586 31.9999C14.9586 36.6281 14.9792 37.2071 15.0616 39.0249C15.145 40.8391 15.4322 42.0774 15.8533 43.161C16.2889 44.2818 16.8712 45.2326 17.8188 46.1798C18.7656 47.1277 19.7164 47.7114 20.8365 48.1467C21.9208 48.5681 23.1595 48.8553 24.9734 48.9384C26.7912 49.0211 27.3716 49.0413 31.9995 49.0413C36.6281 49.0413 37.2071 49.0211 39.0249 48.9384C40.8391 48.8553 42.0789 48.5681 43.1632 48.1466C44.2837 47.7114 45.233 47.1277 46.1799 46.1798C47.1278 45.2326 47.7101 44.2818 48.1468 43.1613C48.5657 42.0774 48.8533 40.8387 48.9385 39.0252C49.0201 37.2075 49.0415 36.6281 49.0415 31.9999C49.0415 27.3717 49.0201 26.7909 48.9385 24.9732C48.8533 23.159 48.5657 21.9206 48.1468 20.8371C47.7101 19.7162 47.1278 18.7655 46.1799 17.8183C45.2319 16.8703 44.284 16.2881 43.1621 15.8532C42.0757 15.4318 40.8366 15.1445 39.0224 15.0615C37.2046 14.9787 36.6259 14.9585 31.9963 14.9585H32.0016ZM30.4729 18.0295C30.9266 18.0288 31.4329 18.0295 32.0016 18.0295C36.5517 18.0295 37.091 18.0458 38.8879 18.1275C40.5494 18.2035 41.4512 18.4811 42.0519 18.7143C42.8472 19.0232 43.4142 19.3925 44.0103 19.9889C44.6067 20.5854 44.976 21.1534 45.2856 21.9487C45.5188 22.5487 45.7968 23.4504 45.8724 25.112C45.9541 26.9084 45.9718 27.4481 45.9718 31.996C45.9718 36.5439 45.9541 37.0836 45.8724 38.88C45.7964 40.5416 45.5188 41.4434 45.2856 42.0434C44.9767 42.8386 44.6067 43.4049 44.0103 44.001C43.4138 44.5974 42.8475 44.9667 42.0519 45.2755C41.4519 45.5099 40.5494 45.7868 38.8879 45.8628C37.0914 45.9444 36.5517 45.9622 32.0016 45.9622C27.4512 45.9622 26.9119 45.9444 25.1154 45.8628C23.4539 45.7861 22.5521 45.5084 21.951 45.2752C21.1557 44.9663 20.5877 44.5971 19.9912 44.0006C19.3948 43.4042 19.0255 42.8376 18.7159 42.0419C18.4827 41.4419 18.2047 40.5401 18.1291 38.8786C18.0474 37.0822 18.0311 36.5425 18.0311 31.9918C18.0311 27.441 18.0474 26.9042 18.1291 25.1077C18.2051 23.4462 18.4827 22.5444 18.7159 21.9437C19.0248 21.1484 19.3948 20.5804 19.9912 19.9839C20.5877 19.3875 21.1557 19.0183 21.951 18.7087C22.5517 18.4743 23.4539 18.1974 25.1154 18.1211C26.6875 18.0501 27.2967 18.0288 30.4729 18.0252L30.4729 18.0295ZM41.0983 20.8591C39.9693 20.8591 39.0533 21.774 39.0533 22.9033C39.0533 24.0323 39.9693 24.9483 41.0983 24.9483C42.2273 24.9483 43.1433 24.0323 43.1433 22.9033C43.1433 21.7744 42.2273 20.8584 41.0983 20.8584L41.0983 20.8591ZM32.0016 23.2484C27.1686 23.2484 23.2501 27.1669 23.2501 31.9999C23.2501 36.8329 27.1686 40.7496 32.0016 40.7496C36.8347 40.7496 40.7518 36.8329 40.7518 31.9999C40.7518 27.1669 36.8344 23.2484 32.0013 23.2484H32.0016ZM32.0016 26.3194C35.1387 26.3194 37.6822 28.8625 37.6822 31.9999C37.6822 35.137 35.1387 37.6804 32.0016 37.6804C28.8642 37.6804 26.3211 35.137 26.3211 31.9999C26.3211 28.8625 28.8642 26.3194 32.0016 26.3194Z" fill="#FCFCFC"/>
</g>
<defs>
<clipPath id="clip0_2406_3775">
<rect width="64" height="64" rx="32" fill="white"/>
</clipPath>
</defs>
</svg>
