<svg width="32" height="32" viewBox="0 0 32 32" fill="none" xmlns="http://www.w3.org/2000/svg">
<mask id="mask0_936_5397" style="mask-type:alpha" maskUnits="userSpaceOnUse" x="0" y="0" width="32" height="32">
<rect width="32" height="32" fill="#D9D9D9"/>
</mask>
<g mask="url(#mask0_936_5397)">
<path d="M5.33366 26.6667C4.60033 26.6667 3.97255 26.4056 3.45033 25.8834C2.9281 25.3612 2.66699 24.7334 2.66699 24V8.00004C2.66699 7.26671 2.9281 6.63893 3.45033 6.11671C3.97255 5.59449 4.60033 5.33337 5.33366 5.33337H26.667C27.4003 5.33337 28.0281 5.59449 28.5503 6.11671C29.0725 6.63893 29.3337 7.26671 29.3337 8.00004V24C29.3337 24.7334 29.0725 25.3612 28.5503 25.8834C28.0281 26.4056 27.4003 26.6667 26.667 26.6667H5.33366ZM16.0003 17.1C16.1114 17.1 16.2281 17.0834 16.3503 17.05C16.4725 17.0167 16.5892 16.9667 16.7003 16.9L26.1337 11C26.3114 10.8889 26.4448 10.75 26.5337 10.5834C26.6225 10.4167 26.667 10.2334 26.667 10.0334C26.667 9.58893 26.4781 9.2556 26.1003 9.03337C25.7225 8.81115 25.3337 8.82226 24.9337 9.06671L16.0003 14.6667L7.06699 9.06671C6.66699 8.82226 6.2781 8.81671 5.90033 9.05004C5.52255 9.28337 5.33366 9.61115 5.33366 10.0334C5.33366 10.2556 5.3781 10.45 5.46699 10.6167C5.55588 10.7834 5.68921 10.9112 5.86699 11L15.3003 16.9C15.4114 16.9667 15.5281 17.0167 15.6503 17.05C15.7725 17.0834 15.8892 17.1 16.0003 17.1Z" fill="#FCFCFC"/>
</g>
</svg>
