<svg width="24" height="24" viewBox="0 0 24 24" fill="none" xmlns="http://www.w3.org/2000/svg">
<mask id="mask0_2306_2482" style="mask-type:alpha" maskUnits="userSpaceOnUse" x="0" y="0" width="24" height="24">
<rect x="0.570312" y="0.857178" width="22.8571" height="22.8571" fill="#D9D9D9"/>
</mask>
<g mask="url(#mask0_2306_2482)">
<path d="M4.37984 18.0001C4.11 18.0001 3.88381 17.9088 3.70127 17.7263C3.51873 17.5438 3.42746 17.3176 3.42746 17.0477C3.42746 16.7779 3.51873 16.5517 3.70127 16.3692C3.88381 16.1866 4.11 16.0953 4.37984 16.0953H19.6179C19.8878 16.0953 20.114 16.1866 20.2965 16.3692C20.479 16.5517 20.5703 16.7779 20.5703 17.0477C20.5703 17.3176 20.479 17.5438 20.2965 17.7263C20.114 17.9088 19.8878 18.0001 19.6179 18.0001H4.37984ZM4.37984 13.2382C4.11 13.2382 3.88381 13.1469 3.70127 12.9644C3.51873 12.7819 3.42746 12.5557 3.42746 12.2858C3.42746 12.016 3.51873 11.7898 3.70127 11.6072C3.88381 11.4247 4.11 11.3334 4.37984 11.3334H19.6179C19.8878 11.3334 20.114 11.4247 20.2965 11.6072C20.479 11.7898 20.5703 12.016 20.5703 12.2858C20.5703 12.5557 20.479 12.7819 20.2965 12.9644C20.114 13.1469 19.8878 13.2382 19.6179 13.2382H4.37984ZM4.37984 8.4763C4.11 8.4763 3.88381 8.38503 3.70127 8.20249C3.51873 8.01995 3.42746 7.79376 3.42746 7.52391C3.42746 7.25407 3.51873 7.02788 3.70127 6.84534C3.88381 6.6628 4.11 6.57153 4.37984 6.57153H19.6179C19.8878 6.57153 20.114 6.6628 20.2965 6.84534C20.479 7.02788 20.5703 7.25407 20.5703 7.52391C20.5703 7.79376 20.479 8.01995 20.2965 8.20249C20.114 8.38503 19.8878 8.4763 19.6179 8.4763H4.37984Z" fill="#FCFCFC"/>
</g>
</svg>
