<svg width="48" height="48" viewBox="0 0 48 48" fill="none" xmlns="http://www.w3.org/2000/svg">
<mask id="path-1-inside-1_2349_1176" fill="white">
<path fill-rule="evenodd" clip-rule="evenodd" d="M24 0C10.7452 0 0 10.7452 0 24C0 37.2548 10.7452 48 24 48C37.2548 48 48 37.2548 48 24C48 10.7452 37.2548 0 24 0ZM21.4563 29.5513C20.9758 30.1093 21.0386 30.9512 21.5966 31.4317C22.1546 31.9122 22.9965 31.8494 23.477 31.2914L28.8104 25.0978L29.5842 24.1992L28.782 23.3259L23.4486 17.5194C22.9505 16.9771 22.107 16.9413 21.5647 17.4394C21.0224 17.9375 20.9866 18.781 21.4847 19.3233L26.0158 24.2564L21.4563 29.5513Z"/>
</mask>
<path fill-rule="evenodd" clip-rule="evenodd" d="M24 0C10.7452 0 0 10.7452 0 24C0 37.2548 10.7452 48 24 48C37.2548 48 48 37.2548 48 24C48 10.7452 37.2548 0 24 0ZM21.4563 29.5513C20.9758 30.1093 21.0386 30.9512 21.5966 31.4317C22.1546 31.9122 22.9965 31.8494 23.477 31.2914L28.8104 25.0978L29.5842 24.1992L28.782 23.3259L23.4486 17.5194C22.9505 16.9771 22.107 16.9413 21.5647 17.4394C21.0224 17.9375 20.9866 18.781 21.4847 19.3233L26.0158 24.2564L21.4563 29.5513Z" fill="#FCFCFC"/>
<path d="M21.5966 31.4317L23.5542 29.1584L23.5542 29.1584L21.5966 31.4317ZM21.4563 29.5513L19.183 27.5938H19.183L21.4563 29.5513ZM23.477 31.2914L21.2037 29.3338L21.2037 29.3338L23.477 31.2914ZM28.8104 25.0978L31.0837 27.0554L31.0837 27.0554L28.8104 25.0978ZM29.5842 24.1992L31.8575 26.1568L33.5985 24.1349L31.7936 22.1698L29.5842 24.1992ZM28.782 23.3259L30.9914 21.2965L28.782 23.3259ZM23.4486 17.5194L21.2392 19.5488L21.2392 19.5488L23.4486 17.5194ZM21.5647 17.4394L19.5353 15.23L21.5647 17.4394ZM21.4847 19.3233L23.6941 17.2939L21.4847 19.3233ZM26.0158 24.2564L28.2891 26.214L30.0302 24.1921L28.2253 22.227L26.0158 24.2564ZM3 24C3 12.402 12.402 3 24 3V-3C9.08831 -3 -3 9.08831 -3 24H3ZM24 45C12.402 45 3 35.598 3 24H-3C-3 38.9117 9.08831 51 24 51V45ZM45 24C45 35.598 35.598 45 24 45V51C38.9117 51 51 38.9117 51 24H45ZM24 3C35.598 3 45 12.402 45 24H51C51 9.08831 38.9117 -3 24 -3V3ZM23.5542 29.1584C24.2517 29.759 24.3302 30.8114 23.7296 31.5089L19.183 27.5938C17.6214 29.4073 17.8255 32.1434 19.6391 33.705L23.5542 29.1584ZM21.2037 29.3338C21.8043 28.6363 22.8567 28.5578 23.5542 29.1584L19.6391 33.705C21.4526 35.2667 24.1887 35.0625 25.7503 33.249L21.2037 29.3338ZM26.5371 23.1403L21.2037 29.3338L25.7503 33.249L31.0837 27.0554L26.5371 23.1403ZM27.3109 22.2417L26.537 23.1403L31.0837 27.0554L31.8575 26.1568L27.3109 22.2417ZM26.5725 25.3552L27.3747 26.2286L31.7936 22.1698L30.9914 21.2965L26.5725 25.3552ZM21.2392 19.5488L26.5725 25.3552L30.9914 21.2965L25.6581 15.49L21.2392 19.5488ZM23.5941 19.6488C22.9162 20.2715 21.8619 20.2267 21.2392 19.5488L25.6581 15.49C24.0391 13.7274 21.2979 13.611 19.5353 15.23L23.5941 19.6488ZM23.6941 17.2939C24.3168 17.9718 24.272 19.0261 23.5941 19.6488L19.5353 15.23C17.7728 16.8489 17.6563 19.5902 19.2753 21.3527L23.6941 17.2939ZM28.2253 22.227L23.6941 17.2939L19.2753 21.3527L23.8064 26.2858L28.2253 22.227ZM23.7296 31.5089L28.2891 26.214L23.7425 22.2988L19.183 27.5938L23.7296 31.5089Z" fill="#FCFCFC" mask="url(#path-1-inside-1_2349_1176)"/>
</svg>
