<svg width="120" height="96" viewBox="0 0 120 96" fill="none" xmlns="http://www.w3.org/2000/svg">
<g clip-path="url(#clip0_4014_6997)">
<path d="M11.5066 2.99518C11.5986 2.43686 12.4014 2.43686 12.4934 2.99518L13.6388 9.94913C13.6736 10.1606 13.8394 10.3264 14.0509 10.3612L21.0048 11.5066C21.5631 11.5986 21.5631 12.4014 21.0048 12.4934L14.0509 13.6388C13.8394 13.6736 13.6736 13.8394 13.6388 14.0509L12.4934 21.0048C12.4014 21.5631 11.5986 21.5631 11.5066 21.0048L10.3612 14.0509C10.3264 13.8394 10.1606 13.6736 9.94913 13.6388L2.99518 12.4934C2.43686 12.4014 2.43686 11.5986 2.99518 11.5066L9.94913 10.3612C10.1606 10.3264 10.3264 10.1606 10.3612 9.94913L11.5066 2.99518Z" fill="#FCFCFC"/>
<path d="M11.5066 26.9952C11.5986 26.4369 12.4014 26.4369 12.4934 26.9952L13.6388 33.9491C13.6736 34.1606 13.8394 34.3264 14.0509 34.3612L21.0048 35.5066C21.5631 35.5986 21.5631 36.4014 21.0048 36.4934L14.0509 37.6388C13.8394 37.6736 13.6736 37.8394 13.6388 38.0509L12.4934 45.0048C12.4014 45.5631 11.5986 45.5631 11.5066 45.0048L10.3612 38.0509C10.3264 37.8394 10.1606 37.6736 9.94913 37.6388L2.99518 36.4934C2.43686 36.4014 2.43686 35.5986 2.99518 35.5066L9.94913 34.3612C10.1606 34.3264 10.3264 34.1606 10.3612 33.9491L11.5066 26.9952Z" fill="#FE00A0"/>
<path d="M55.334 11L59.9791 15L64.334 11" stroke="#FCFCFC" stroke-width="2" stroke-linecap="round"/>
<path d="M55.334 39L59.9791 35L64.334 39" stroke="#FCFCFC" stroke-width="2" stroke-linecap="round"/>
<path d="M28 11.1C27.5029 11.1 27.1 11.5029 27.1 12C27.1 12.4971 27.5029 12.9 28 12.9V11.1ZM44.6364 12.6364C44.9879 12.2849 44.9879 11.7151 44.6364 11.3636L38.9088 5.63604C38.5574 5.28457 37.9875 5.28457 37.636 5.63604C37.2846 5.98751 37.2846 6.55736 37.636 6.90883L42.7272 12L37.636 17.0912C37.2846 17.4426 37.2846 18.0125 37.636 18.364C37.9875 18.7154 38.5574 18.7154 38.9088 18.364L44.6364 12.6364ZM28 12.9H44V11.1H28V12.9Z" fill="white"/>
<path d="M28 35.1C27.5029 35.1 27.1 35.5029 27.1 36C27.1 36.4971 27.5029 36.9 28 36.9V35.1ZM44.6364 36.6364C44.9879 36.2849 44.9879 35.7151 44.6364 35.3636L38.9088 29.636C38.5574 29.2846 37.9875 29.2846 37.636 29.636C37.2846 29.9875 37.2846 30.5574 37.636 30.9088L42.7272 36L37.636 41.0912C37.2846 41.4426 37.2846 42.0125 37.636 42.364C37.9875 42.7154 38.5574 42.7154 38.9088 42.364L44.6364 36.6364ZM28 36.9H44V35.1H28V36.9Z" fill="#FE00A0"/>
<mask id="mask0_4014_6997" style="mask-type:alpha" maskUnits="userSpaceOnUse" x="72" y="0" width="24" height="24">
<rect x="72" width="24" height="24" fill="#D9D9D9"/>
</mask>
<g mask="url(#mask0_4014_6997)">
<path d="M76 18C75.7167 18 75.4792 17.9042 75.2875 17.7125C75.0958 17.5208 75 17.2833 75 17C75 16.7167 75.0958 16.4792 75.2875 16.2875C75.4792 16.0958 75.7167 16 76 16H92C92.2833 16 92.5208 16.0958 92.7125 16.2875C92.9042 16.4792 93 16.7167 93 17C93 17.2833 92.9042 17.5208 92.7125 17.7125C92.5208 17.9042 92.2833 18 92 18H76ZM76 13C75.7167 13 75.4792 12.9042 75.2875 12.7125C75.0958 12.5208 75 12.2833 75 12C75 11.7167 75.0958 11.4792 75.2875 11.2875C75.4792 11.0958 75.7167 11 76 11H92C92.2833 11 92.5208 11.0958 92.7125 11.2875C92.9042 11.4792 93 11.7167 93 12C93 12.2833 92.9042 12.5208 92.7125 12.7125C92.5208 12.9042 92.2833 13 92 13H76ZM76 8C75.7167 8 75.4792 7.90417 75.2875 7.7125C75.0958 7.52083 75 7.28333 75 7C75 6.71667 75.0958 6.47917 75.2875 6.2875C75.4792 6.09583 75.7167 6 76 6H92C92.2833 6 92.5208 6.09583 92.7125 6.2875C92.9042 6.47917 93 6.71667 93 7C93 7.28333 92.9042 7.52083 92.7125 7.7125C92.5208 7.90417 92.2833 8 92 8H76Z" fill="#FCFCFC"/>
</g>
<rect x="96" width="24" height="24" rx="12" fill="#FCFCFC"/>
<path d="M105.6 7.2H103.2M103.2 7.2V9.6M103.2 7.2L106.2 10.2M110.4 7.2H112.8M112.8 7.2V9.6M112.8 7.2L109.8 10.2M105.6 16.8H103.2M103.2 16.8V14.4M103.2 16.8L106.2 13.8M110.4 16.8H112.8M112.8 16.8V14.4M112.8 16.8L109.8 13.8" stroke="#1B1035" stroke-opacity="0.8" stroke-width="1.2" stroke-linecap="round" stroke-linejoin="round"/>
<path d="M13 55.334L9 59.9791L13 64.334" stroke="#1B1035" stroke-width="2" stroke-linecap="round"/>
<path d="M35 64.666L39 60.0209L35 55.666" stroke="#1B1035" stroke-width="2" stroke-linecap="round"/>
<mask id="path-13-inside-1_4014_6997" fill="white">
<path fill-rule="evenodd" clip-rule="evenodd" d="M60 48C53.3726 48 48 53.3726 48 60C48 66.6274 53.3726 72 60 72C66.6274 72 72 66.6274 72 60C72 53.3726 66.6274 48 60 48ZM61.2723 62.7757C61.5125 63.0547 61.4811 63.4756 61.2021 63.7159C60.9231 63.9561 60.5022 63.9247 60.2619 63.6457L57.5952 60.5489L57.2083 60.0996L57.6094 59.6629L60.2761 56.7597C60.5252 56.4885 60.9469 56.4706 61.2181 56.7197C61.4892 56.9688 61.5071 57.3905 61.2581 57.6617L58.9925 60.1282L61.2723 62.7757Z"/>
</mask>
<path fill-rule="evenodd" clip-rule="evenodd" d="M60 48C53.3726 48 48 53.3726 48 60C48 66.6274 53.3726 72 60 72C66.6274 72 72 66.6274 72 60C72 53.3726 66.6274 48 60 48ZM61.2723 62.7757C61.5125 63.0547 61.4811 63.4756 61.2021 63.7159C60.9231 63.9561 60.5022 63.9247 60.2619 63.6457L57.5952 60.5489L57.2083 60.0996L57.6094 59.6629L60.2761 56.7597C60.5252 56.4885 60.9469 56.4706 61.2181 56.7197C61.4892 56.9688 61.5071 57.3905 61.2581 57.6617L58.9925 60.1282L61.2723 62.7757Z" fill="#FCFCFC"/>
<path d="M61.2723 62.7757L62.4089 61.7969L62.4089 61.7969L61.2723 62.7757ZM60.2619 63.6457L61.3986 62.6669L61.3986 62.6669L60.2619 63.6457ZM57.5952 60.5489L56.4586 61.5277L56.4586 61.5277L57.5952 60.5489ZM57.2083 60.0996L56.1036 59.0849L55.2012 60.0674L56.0717 61.0784L57.2083 60.0996ZM57.6094 59.6629L56.5047 58.6482L56.5047 58.6482L57.6094 59.6629ZM60.2761 56.7597L61.3808 57.7744L61.3808 57.7744L60.2761 56.7597ZM61.2181 56.7197L60.2034 57.8244L60.2034 57.8244L61.2181 56.7197ZM61.2581 57.6617L60.1534 56.647L60.1534 56.647L61.2581 57.6617ZM58.9925 60.1282L57.8878 59.1135L56.9853 60.096L57.8559 61.107L58.9925 60.1282ZM49.5 60C49.5 54.201 54.201 49.5 60 49.5V46.5C52.5442 46.5 46.5 52.5442 46.5 60H49.5ZM60 70.5C54.201 70.5 49.5 65.799 49.5 60H46.5C46.5 67.4558 52.5442 73.5 60 73.5V70.5ZM70.5 60C70.5 65.799 65.799 70.5 60 70.5V73.5C67.4558 73.5 73.5 67.4558 73.5 60H70.5ZM60 49.5C65.799 49.5 70.5 54.201 70.5 60H73.5C73.5 52.5442 67.4558 46.5 60 46.5V49.5ZM62.1809 64.8525C63.0877 64.0717 63.1897 62.7036 62.4089 61.7969L60.1356 63.7544C59.8353 63.4057 59.8746 62.8795 60.2233 62.5792L62.1809 64.8525ZM59.1253 64.6245C59.9061 65.5312 61.2741 65.6333 62.1809 64.8525L60.2233 62.5792C60.5721 62.2789 61.0982 62.3182 61.3986 62.6669L59.1253 64.6245ZM56.4586 61.5277L59.1253 64.6245L61.3986 62.6669L58.7319 59.5701L56.4586 61.5277ZM56.0717 61.0784L56.4586 61.5277L58.7319 59.5701L58.345 59.1208L56.0717 61.0784ZM56.5047 58.6482L56.1036 59.0849L58.3131 61.1143L58.7142 60.6776L56.5047 58.6482ZM59.1714 55.745L56.5047 58.6482L58.7142 60.6776L61.3808 57.7744L59.1714 55.745ZM62.2328 55.615C61.3515 54.8055 59.9809 54.8637 59.1714 55.745L61.3808 57.7744C61.0695 58.1133 60.5423 58.1357 60.2034 57.8244L62.2328 55.615ZM62.3628 58.6764C63.1723 57.7951 63.114 56.4244 62.2328 55.615L60.2034 57.8244C59.8644 57.5131 59.842 56.9859 60.1534 56.647L62.3628 58.6764ZM60.0972 61.1429L62.3628 58.6763L60.1534 56.647L57.8878 59.1135L60.0972 61.1429ZM62.4089 61.7969L60.1292 59.1494L57.8559 61.107L60.1356 63.7544L62.4089 61.7969Z" fill="#FCFCFC" mask="url(#path-13-inside-1_4014_6997)"/>
<mask id="path-15-inside-2_4014_6997" fill="white">
<path fill-rule="evenodd" clip-rule="evenodd" d="M84 48C77.3726 48 72 53.3726 72 60C72 66.6274 77.3726 72 84 72C90.6274 72 96 66.6274 96 60C96 53.3726 90.6274 48 84 48ZM82.7277 62.7757C82.4875 63.0547 82.5189 63.4756 82.7979 63.7159C83.0769 63.9561 83.4978 63.9247 83.7381 63.6457L86.4048 60.5489L86.7917 60.0996L86.3906 59.6629L83.7239 56.7597C83.4748 56.4885 83.0531 56.4706 82.7819 56.7197C82.5108 56.9688 82.4929 57.3905 82.7419 57.6617L85.0075 60.1282L82.7277 62.7757Z"/>
</mask>
<path fill-rule="evenodd" clip-rule="evenodd" d="M84 48C77.3726 48 72 53.3726 72 60C72 66.6274 77.3726 72 84 72C90.6274 72 96 66.6274 96 60C96 53.3726 90.6274 48 84 48ZM82.7277 62.7757C82.4875 63.0547 82.5189 63.4756 82.7979 63.7159C83.0769 63.9561 83.4978 63.9247 83.7381 63.6457L86.4048 60.5489L86.7917 60.0996L86.3906 59.6629L83.7239 56.7597C83.4748 56.4885 83.0531 56.4706 82.7819 56.7197C82.5108 56.9688 82.4929 57.3905 82.7419 57.6617L85.0075 60.1282L82.7277 62.7757Z" fill="#FCFCFC"/>
<path d="M82.7277 62.7757L81.5911 61.7969L81.5911 61.7969L82.7277 62.7757ZM83.7381 63.6457L82.6014 62.6669L82.6014 62.6669L83.7381 63.6457ZM86.4048 60.5489L87.5414 61.5277L87.5414 61.5277L86.4048 60.5489ZM86.7917 60.0996L87.9283 61.0784L88.7988 60.0674L87.8964 59.0849L86.7917 60.0996ZM86.3906 59.6629L87.4953 58.6482L87.4953 58.6482L86.3906 59.6629ZM83.7239 56.7597L82.6192 57.7744L82.6192 57.7744L83.7239 56.7597ZM82.7819 56.7197L83.7966 57.8244L83.7966 57.8244L82.7819 56.7197ZM82.7419 57.6617L83.8466 56.647L83.8466 56.647L82.7419 57.6617ZM85.0075 60.1282L86.1441 61.107L87.0147 60.096L86.1122 59.1135L85.0075 60.1282ZM73.5 60C73.5 54.201 78.201 49.5 84 49.5V46.5C76.5442 46.5 70.5 52.5442 70.5 60H73.5ZM84 70.5C78.201 70.5 73.5 65.799 73.5 60H70.5C70.5 67.4558 76.5442 73.5 84 73.5V70.5ZM94.5 60C94.5 65.799 89.799 70.5 84 70.5V73.5C91.4558 73.5 97.5 67.4558 97.5 60H94.5ZM84 49.5C89.799 49.5 94.5 54.201 94.5 60H97.5C97.5 52.5442 91.4558 46.5 84 46.5V49.5ZM83.7767 62.5792C84.1254 62.8795 84.1647 63.4057 83.8644 63.7544L81.5911 61.7969C80.8103 62.7036 80.9123 64.0717 81.8191 64.8525L83.7767 62.5792ZM82.6014 62.6669C82.9018 62.3182 83.4279 62.2789 83.7767 62.5792L81.8191 64.8525C82.7259 65.6333 84.0939 65.5312 84.8747 64.6245L82.6014 62.6669ZM85.2681 59.5701L82.6014 62.6669L84.8747 64.6245L87.5414 61.5277L85.2681 59.5701ZM85.655 59.1208L85.2681 59.5701L87.5414 61.5277L87.9283 61.0784L85.655 59.1208ZM85.2858 60.6776L85.6869 61.1143L87.8964 59.0849L87.4953 58.6482L85.2858 60.6776ZM82.6192 57.7744L85.2858 60.6776L87.4953 58.6482L84.8286 55.745L82.6192 57.7744ZM83.7966 57.8244C83.4577 58.1357 82.9305 58.1133 82.6192 57.7744L84.8286 55.745C84.0191 54.8637 82.6485 54.8055 81.7672 55.615L83.7966 57.8244ZM83.8466 56.647C84.158 56.9859 84.1356 57.5131 83.7966 57.8244L81.7672 55.615C80.886 56.4244 80.8277 57.7951 81.6372 58.6764L83.8466 56.647ZM86.1122 59.1135L83.8466 56.647L81.6372 58.6763L83.9028 61.1429L86.1122 59.1135ZM83.8644 63.7544L86.1441 61.107L83.8708 59.1494L81.5911 61.7969L83.8644 63.7544Z" fill="#FCFCFC" mask="url(#path-15-inside-2_4014_6997)"/>
<mask id="mask1_4014_6997" style="mask-type:alpha" maskUnits="userSpaceOnUse" x="72" y="24" width="24" height="24">
<rect x="72" y="24" width="24" height="24" fill="#D9D9D9"/>
</mask>
<g mask="url(#mask1_4014_6997)">
<path d="M83.9998 37.1671L78.8665 42.3003C78.7053 42.4615 78.5108 42.5421 78.283 42.5421C78.0553 42.5421 77.8609 42.4615 77.6998 42.3003C77.5386 42.1392 77.458 41.9448 77.458 41.7171C77.458 41.4893 77.5386 41.2948 77.6998 41.1336L82.833 36.0003L77.6998 30.8671C77.5386 30.7059 77.458 30.5114 77.458 30.2836C77.458 30.0559 77.5386 29.8615 77.6998 29.7003C77.8609 29.5392 78.0553 29.4586 78.283 29.4586C78.5108 29.4586 78.7053 29.5392 78.8665 29.7003L83.9998 34.8336L89.133 29.7003C89.2942 29.5392 89.4887 29.4586 89.7165 29.4586C89.9442 29.4586 90.1386 29.5392 90.2998 29.7003C90.4609 29.8615 90.5415 30.0559 90.5415 30.2836C90.5415 30.5114 90.4609 30.7059 90.2998 30.8671L85.1665 36.0003L90.2998 41.1336C90.4609 41.2948 90.5415 41.4893 90.5415 41.7171C90.5415 41.9448 90.4609 42.1392 90.2998 42.3003C90.1386 42.4615 89.9442 42.5421 89.7165 42.5421C89.4887 42.5421 89.2942 42.4615 89.133 42.3003L83.9998 37.1671Z" fill="#1B1035"/>
</g>
<mask id="mask2_4014_6997" style="mask-type:alpha" maskUnits="userSpaceOnUse" x="96" y="24" width="24" height="24">
<rect x="96" y="24" width="24" height="24" fill="#D9D9D9"/>
</mask>
<g mask="url(#mask2_4014_6997)">
<path d="M108 37.1671L102.867 42.3003C102.705 42.4615 102.511 42.5421 102.283 42.5421C102.055 42.5421 101.861 42.4615 101.7 42.3003C101.539 42.1392 101.458 41.9448 101.458 41.7171C101.458 41.4893 101.539 41.2948 101.7 41.1336L106.833 36.0003L101.7 30.8671C101.539 30.7059 101.458 30.5114 101.458 30.2836C101.458 30.0559 101.539 29.8615 101.7 29.7003C101.861 29.5392 102.055 29.4586 102.283 29.4586C102.511 29.4586 102.705 29.5392 102.867 29.7003L108 34.8336L113.133 29.7003C113.294 29.5392 113.489 29.4586 113.717 29.4586C113.944 29.4586 114.139 29.5392 114.3 29.7003C114.461 29.8615 114.542 30.0559 114.542 30.2836C114.542 30.5114 114.461 30.7059 114.3 30.8671L109.167 36.0003L114.3 41.1336C114.461 41.2948 114.542 41.4893 114.542 41.7171C114.542 41.9448 114.461 42.1392 114.3 42.3003C114.139 42.4615 113.944 42.5421 113.717 42.5421C113.489 42.5421 113.294 42.4615 113.133 42.3003L108 37.1671Z" fill="#FCFCFC"/>
</g>
<path fill-rule="evenodd" clip-rule="evenodd" d="M60 72C53.3726 72 48 77.3726 48 84C48 90.6274 53.3726 96 60 96C66.6274 96 72 90.6274 72 84C72 77.3726 66.6274 72 60 72ZM61.2723 86.7757C61.5125 87.0547 61.4811 87.4756 61.2021 87.7159C60.9231 87.9561 60.5022 87.9247 60.2619 87.6457L57.5952 84.5489L57.2083 84.0996L57.6094 83.6629L60.2761 80.7597C60.5252 80.4885 60.9469 80.4706 61.2181 80.7197C61.4892 80.9688 61.5071 81.3905 61.2581 81.6617L58.9925 84.1282L61.2723 86.7757Z" fill="#FE00A0"/>
<mask id="path-22-inside-3_4014_6997" fill="white">
<path fill-rule="evenodd" clip-rule="evenodd" d="M84 72C77.3726 72 72 77.3726 72 84C72 90.6274 77.3726 96 84 96C90.6274 96 96 90.6274 96 84C96 77.3726 90.6274 72 84 72ZM82.7277 86.7757C82.4875 87.0547 82.5189 87.4756 82.7979 87.7159C83.0769 87.9561 83.4978 87.9247 83.7381 87.6457L86.4048 84.5489L86.7917 84.0996L86.3906 83.6629L83.7239 80.7597C83.4748 80.4885 83.0531 80.4706 82.7819 80.7197C82.5108 80.9688 82.4929 81.3905 82.7419 81.6617L85.0075 84.1282L82.7277 86.7757Z"/>
</mask>
<path fill-rule="evenodd" clip-rule="evenodd" d="M84 72C77.3726 72 72 77.3726 72 84C72 90.6274 77.3726 96 84 96C90.6274 96 96 90.6274 96 84C96 77.3726 90.6274 72 84 72ZM82.7277 86.7757C82.4875 87.0547 82.5189 87.4756 82.7979 87.7159C83.0769 87.9561 83.4978 87.9247 83.7381 87.6457L86.4048 84.5489L86.7917 84.0996L86.3906 83.6629L83.7239 80.7597C83.4748 80.4885 83.0531 80.4706 82.7819 80.7197C82.5108 80.9688 82.4929 81.3905 82.7419 81.6617L85.0075 84.1282L82.7277 86.7757Z" fill="#FE00A0"/>
<path d="M82.7277 86.7757L81.5911 85.7969L81.5911 85.7969L82.7277 86.7757ZM83.7381 87.6457L82.6014 86.6669L82.6014 86.6669L83.7381 87.6457ZM86.4048 84.5489L87.5414 85.5277L87.5414 85.5277L86.4048 84.5489ZM86.7917 84.0996L87.9283 85.0784L88.7988 84.0675L87.8964 83.0849L86.7917 84.0996ZM86.3906 83.6629L87.4953 82.6482L87.4953 82.6482L86.3906 83.6629ZM83.7239 80.7597L82.6192 81.7744L82.6192 81.7744L83.7239 80.7597ZM82.7819 80.7197L83.7966 81.8244L83.7966 81.8244L82.7819 80.7197ZM82.7419 81.6617L83.8466 80.647L83.8466 80.647L82.7419 81.6617ZM85.0075 84.1282L86.1441 85.107L87.0147 84.096L86.1122 83.1135L85.0075 84.1282ZM73.5 84C73.5 78.201 78.201 73.5 84 73.5V70.5C76.5442 70.5 70.5 76.5442 70.5 84H73.5ZM84 94.5C78.201 94.5 73.5 89.799 73.5 84H70.5C70.5 91.4558 76.5442 97.5 84 97.5V94.5ZM94.5 84C94.5 89.799 89.799 94.5 84 94.5V97.5C91.4558 97.5 97.5 91.4558 97.5 84H94.5ZM84 73.5C89.799 73.5 94.5 78.201 94.5 84H97.5C97.5 76.5442 91.4558 70.5 84 70.5V73.5ZM83.7767 86.5792C84.1254 86.8795 84.1647 87.4057 83.8644 87.7544L81.5911 85.7969C80.8103 86.7036 80.9123 88.0717 81.8191 88.8525L83.7767 86.5792ZM82.6014 86.6669C82.9018 86.3182 83.4279 86.2789 83.7767 86.5792L81.8191 88.8525C82.7259 89.6333 84.0939 89.5312 84.8747 88.6245L82.6014 86.6669ZM85.2681 83.5701L82.6014 86.6669L84.8747 88.6245L87.5414 85.5277L85.2681 83.5701ZM85.655 83.1208L85.2681 83.5701L87.5414 85.5277L87.9283 85.0784L85.655 83.1208ZM85.2858 84.6776L85.6869 85.1143L87.8964 83.0849L87.4953 82.6482L85.2858 84.6776ZM82.6192 81.7744L85.2858 84.6776L87.4953 82.6482L84.8286 79.745L82.6192 81.7744ZM83.7966 81.8244C83.4577 82.1357 82.9305 82.1134 82.6192 81.7744L84.8286 79.745C84.0191 78.8637 82.6485 78.8055 81.7672 79.615L83.7966 81.8244ZM83.8466 80.647C84.158 80.9859 84.1356 81.5131 83.7966 81.8244L81.7672 79.615C80.886 80.4245 80.8277 81.7951 81.6372 82.6764L83.8466 80.647ZM86.1122 83.1135L83.8466 80.647L81.6372 82.6764L83.9028 85.1429L86.1122 83.1135ZM83.8644 87.7544L86.1441 85.107L83.8708 83.1494L81.5911 85.7969L83.8644 87.7544Z" fill="#FE00A0" mask="url(#path-22-inside-3_4014_6997)"/>
</g>
<defs>
<clipPath id="clip0_4014_6997">
<rect width="120" height="96" fill="white"/>
</clipPath>
</defs>
</svg>
