<svg width="120" height="96" viewBox="0 0 120 96" fill="none" xmlns="http://www.w3.org/2000/svg">
<g clip-path="url(#clip0_4041_210)">
<mask id="mask0_4041_210" style="mask-type:luminance" maskUnits="userSpaceOnUse" x="0" y="0" width="120" height="96">
<path d="M120 0H0V96H120V0Z" fill="white"/>
</mask>
<g mask="url(#mask0_4041_210)">
<path d="M11.5063 2.99518C11.5983 2.43686 12.4011 2.43686 12.4931 2.99518L13.6385 9.94913C13.6733 10.1606 13.8391 10.3264 14.0506 10.3612L21.0045 11.5066C21.5628 11.5986 21.5628 12.4014 21.0045 12.4934L14.0506 13.6388C13.8391 13.6736 13.6733 13.8394 13.6385 14.0509L12.4931 21.0048C12.4011 21.5631 11.5983 21.5631 11.5063 21.0048L10.3609 14.0509C10.3261 13.8394 10.1603 13.6736 9.94886 13.6388L2.99491 12.4934C2.43659 12.4014 2.43659 11.5986 2.99491 11.5066L9.94886 10.3612C10.1603 10.3264 10.3261 10.1606 10.3609 9.94913L11.5063 2.99518Z" fill="#FCFCFC"/>
<path d="M11.5063 26.9952C11.5983 26.4369 12.4011 26.4369 12.4931 26.9952L13.6385 33.9491C13.6733 34.1606 13.8391 34.3264 14.0506 34.3612L21.0045 35.5066C21.5628 35.5986 21.5628 36.4014 21.0045 36.4934L14.0506 37.6388C13.8391 37.6736 13.6733 37.8394 13.6385 38.0509L12.4931 45.0048C12.4011 45.5631 11.5983 45.5631 11.5063 45.0048L10.3609 38.0509C10.3261 37.8394 10.1603 37.6736 9.94886 37.6388L2.99491 36.4934C2.43659 36.4014 2.43659 35.5986 2.99491 35.5066L9.94886 34.3612C10.1603 34.3264 10.3261 34.1606 10.3609 33.9491L11.5063 26.9952Z" fill="#FE00A0"/>
<path d="M55.334 11L59.9791 15L64.334 11" stroke="#FCFCFC" stroke-width="2" stroke-linecap="round"/>
<path d="M55.334 39L59.9791 35L64.334 39" stroke="#FCFCFC" stroke-width="2" stroke-linecap="round"/>
<path d="M27.9996 11.1C27.5025 11.1 27.0996 11.5029 27.0996 12C27.0996 12.4971 27.5025 12.9 27.9996 12.9V11.1ZM44.636 12.6364C44.9875 12.2849 44.9875 11.7151 44.636 11.3636L38.9084 5.63604C38.557 5.28457 37.9871 5.28457 37.6356 5.63604C37.2842 5.98751 37.2842 6.55736 37.6356 6.90883L42.7268 12L37.6356 17.0912C37.2842 17.4426 37.2842 18.0125 37.6356 18.364C37.9871 18.7154 38.557 18.7154 38.9084 18.364L44.636 12.6364ZM27.9996 12.9H43.9996V11.1H27.9996V12.9Z" fill="white"/>
<path d="M27.9996 35.1C27.5025 35.1 27.0996 35.5029 27.0996 36C27.0996 36.4971 27.5025 36.9 27.9996 36.9V35.1ZM44.636 36.6364C44.9875 36.2849 44.9875 35.7151 44.636 35.3636L38.9084 29.636C38.557 29.2846 37.9871 29.2846 37.6356 29.636C37.2842 29.9875 37.2842 30.5574 37.6356 30.9088L42.7268 36L37.6356 41.0912C37.2842 41.4426 37.2842 42.0125 37.6356 42.364C37.9871 42.7154 38.557 42.7154 38.9084 42.364L44.636 36.6364ZM27.9996 36.9H43.9996V35.1H27.9996V36.9Z" fill="#FE00A0"/>
<mask id="mask1_4041_210" style="mask-type:alpha" maskUnits="userSpaceOnUse" x="72" y="0" width="24" height="24">
<path d="M96 0H72V24H96V0Z" fill="#D9D9D9"/>
</mask>
<g mask="url(#mask1_4041_210)">
<path d="M76 18C75.7167 18 75.4792 17.9042 75.2875 17.7125C75.0958 17.5208 75 17.2833 75 17C75 16.7167 75.0958 16.4792 75.2875 16.2875C75.4792 16.0958 75.7167 16 76 16H92C92.2833 16 92.5208 16.0958 92.7125 16.2875C92.9042 16.4792 93 16.7167 93 17C93 17.2833 92.9042 17.5208 92.7125 17.7125C92.5208 17.9042 92.2833 18 92 18H76ZM76 13C75.7167 13 75.4792 12.9042 75.2875 12.7125C75.0958 12.5208 75 12.2833 75 12C75 11.7167 75.0958 11.4792 75.2875 11.2875C75.4792 11.0958 75.7167 11 76 11H92C92.2833 11 92.5208 11.0958 92.7125 11.2875C92.9042 11.4792 93 11.7167 93 12C93 12.2833 92.9042 12.5208 92.7125 12.7125C92.5208 12.9042 92.2833 13 92 13H76ZM76 8C75.7167 8 75.4792 7.90417 75.2875 7.7125C75.0958 7.52083 75 7.28333 75 7C75 6.71667 75.0958 6.47917 75.2875 6.2875C75.4792 6.09583 75.7167 6 76 6H92C92.2833 6 92.5208 6.09583 92.7125 6.2875C92.9042 6.47917 93 6.71667 93 7C93 7.28333 92.9042 7.52083 92.7125 7.7125C92.5208 7.90417 92.2833 8 92 8H76Z" fill="#FCFCFC"/>
</g>
<path d="M120 12C120 5.37258 114.627 0 108 0C101.373 0 96 5.37258 96 12C96 18.6274 101.373 24 108 24C114.627 24 120 18.6274 120 12Z" fill="#FCFCFC"/>
<path d="M105.599 7.2H103.199M103.199 7.2V9.6M103.199 7.2L106.199 10.2M110.399 7.2H112.799M112.799 7.2V9.6M112.799 7.2L109.799 10.2M105.599 16.8H103.199M103.199 16.8V14.4M103.199 16.8L106.199 13.8M110.399 16.8H112.799M112.799 16.8V14.4M112.799 16.8L109.799 13.8" stroke="#1B1035" stroke-opacity="0.8" stroke-width="1.2" stroke-linecap="round" stroke-linejoin="round"/>
<path d="M13 55.334L9 59.9791L13 64.334" stroke="#1B1035" stroke-width="2" stroke-linecap="round"/>
<path d="M35 64.666L39 60.0209L35 55.666" stroke="#1B1035" stroke-width="2" stroke-linecap="round"/>
<path fill-rule="evenodd" clip-rule="evenodd" d="M60 48C53.3726 48 48 53.3726 48 60C48 66.6274 53.3726 72 60 72C66.6274 72 72 66.6274 72 60C72 53.3726 66.6274 48 60 48ZM61.2723 62.7757C61.5125 63.0547 61.4811 63.4756 61.2021 63.7159C60.9231 63.9561 60.5022 63.9247 60.2619 63.6457L57.5952 60.5489L57.2083 60.0996L57.6094 59.6629L60.2761 56.7597C60.5252 56.4885 60.9469 56.4706 61.2181 56.7197C61.4892 56.9688 61.5071 57.3905 61.2581 57.6617L58.9925 60.1282L61.2723 62.7757Z" fill="#FCFCFC"/>
<mask id="mask2_4041_210" style="mask-type:luminance" maskUnits="userSpaceOnUse" x="48" y="48" width="24" height="24">
<path fill-rule="evenodd" clip-rule="evenodd" d="M60 48C53.3726 48 48 53.3726 48 60C48 66.6274 53.3726 72 60 72C66.6274 72 72 66.6274 72 60C72 53.3726 66.6274 48 60 48ZM61.2723 62.7757C61.5125 63.0547 61.4811 63.4756 61.2021 63.7159C60.9231 63.9561 60.5022 63.9247 60.2619 63.6457L57.5952 60.5489L57.2083 60.0996L57.6094 59.6629L60.2761 56.7597C60.5252 56.4885 60.9469 56.4706 61.2181 56.7197C61.4892 56.9688 61.5071 57.3905 61.2581 57.6617L58.9925 60.1282L61.2723 62.7757Z" fill="white"/>
</mask>
<g mask="url(#mask2_4041_210)">
<path d="M57.2083 60.0996L56.1036 59.0849L55.2012 60.0674L56.0717 61.0784L57.2083 60.0996ZM58.9925 60.1282L57.8878 59.1135L56.9853 60.096L57.8559 61.107L58.9925 60.1282ZM49.5 60C49.5 54.201 54.201 49.5 60 49.5V46.5C52.5442 46.5 46.5 52.5442 46.5 60H49.5ZM60 70.5C54.201 70.5 49.5 65.799 49.5 60H46.5C46.5 67.4558 52.5442 73.5 60 73.5V70.5ZM70.5 60C70.5 65.799 65.799 70.5 60 70.5V73.5C67.4558 73.5 73.5 67.4558 73.5 60H70.5ZM60 49.5C65.799 49.5 70.5 54.201 70.5 60H73.5C73.5 52.5442 67.4558 46.5 60 46.5V49.5ZM62.1809 64.8525C63.0877 64.0717 63.1897 62.7036 62.4089 61.7969L60.1356 63.7544C59.8353 63.4057 59.8746 62.8795 60.2233 62.5792L62.1809 64.8525ZM59.1253 64.6245C59.9061 65.5312 61.2741 65.6333 62.1809 64.8525L60.2233 62.5792C60.5721 62.2789 61.0982 62.3182 61.3986 62.6669L59.1253 64.6245ZM56.4586 61.5277L59.1253 64.6245L61.3986 62.6669L58.7319 59.5701L56.4586 61.5277ZM56.0717 61.0784L56.4586 61.5277L58.7319 59.5701L58.345 59.1208L56.0717 61.0784ZM56.5047 58.6482L56.1036 59.0849L58.3131 61.1143L58.7142 60.6776L56.5047 58.6482ZM59.1714 55.745L56.5047 58.6482L58.7142 60.6776L61.3808 57.7744L59.1714 55.745ZM62.2328 55.615C61.3515 54.8055 59.9809 54.8637 59.1714 55.745L61.3808 57.7744C61.0695 58.1133 60.5423 58.1357 60.2034 57.8244L62.2328 55.615ZM62.3628 58.6764C63.1723 57.7951 63.114 56.4244 62.2328 55.615L60.2034 57.8244C59.8644 57.5131 59.842 56.9859 60.1534 56.647L62.3628 58.6764ZM60.0972 61.1429L62.3628 58.6764L60.1534 56.647L57.8878 59.1135L60.0972 61.1429ZM62.4089 61.7969L60.1292 59.1494L57.8559 61.107L60.1356 63.7544L62.4089 61.7969Z" fill="#FCFCFC"/>
</g>
<path fill-rule="evenodd" clip-rule="evenodd" d="M84 48C77.3726 48 72 53.3726 72 60C72 66.6274 77.3726 72 84 72C90.6274 72 96 66.6274 96 60C96 53.3726 90.6274 48 84 48ZM82.7277 62.7757C82.4875 63.0547 82.5189 63.4756 82.7979 63.7159C83.0769 63.9561 83.4978 63.9247 83.7381 63.6457L86.4048 60.5489L86.7917 60.0996L86.3906 59.6629L83.7239 56.7597C83.4748 56.4885 83.0531 56.4706 82.7819 56.7197C82.5108 56.9688 82.4929 57.3905 82.7419 57.6617L85.0075 60.1282L82.7277 62.7757Z" fill="#FCFCFC"/>
<mask id="mask3_4041_210" style="mask-type:luminance" maskUnits="userSpaceOnUse" x="72" y="48" width="24" height="24">
<path fill-rule="evenodd" clip-rule="evenodd" d="M84 48C77.3726 48 72 53.3726 72 60C72 66.6274 77.3726 72 84 72C90.6274 72 96 66.6274 96 60C96 53.3726 90.6274 48 84 48ZM82.7277 62.7757C82.4875 63.0547 82.5189 63.4756 82.7979 63.7159C83.0769 63.9561 83.4978 63.9247 83.7381 63.6457L86.4048 60.5489L86.7917 60.0996L86.3906 59.6629L83.7239 56.7597C83.4748 56.4885 83.0531 56.4706 82.7819 56.7197C82.5108 56.9688 82.4929 57.3905 82.7419 57.6617L85.0075 60.1282L82.7277 62.7757Z" fill="white"/>
</mask>
<g mask="url(#mask3_4041_210)">
<path d="M86.7917 60.0996L87.9283 61.0784L88.7988 60.0674L87.8964 59.0849L86.7917 60.0996ZM85.0075 60.1282L86.1441 61.107L87.0147 60.096L86.1122 59.1135L85.0075 60.1282ZM73.5 60C73.5 54.201 78.201 49.5 84 49.5V46.5C76.5442 46.5 70.5 52.5442 70.5 60H73.5ZM84 70.5C78.201 70.5 73.5 65.799 73.5 60H70.5C70.5 67.4558 76.5442 73.5 84 73.5V70.5ZM94.5 60C94.5 65.799 89.799 70.5 84 70.5V73.5C91.4558 73.5 97.5 67.4558 97.5 60H94.5ZM84 49.5C89.799 49.5 94.5 54.201 94.5 60H97.5C97.5 52.5442 91.4558 46.5 84 46.5V49.5ZM83.7767 62.5792C84.1254 62.8795 84.1647 63.4057 83.8644 63.7544L81.5911 61.7969C80.8103 62.7036 80.9123 64.0717 81.8191 64.8525L83.7767 62.5792ZM82.6014 62.6669C82.9018 62.3182 83.4279 62.2789 83.7767 62.5792L81.8191 64.8525C82.7259 65.6333 84.0939 65.5312 84.8747 64.6245L82.6014 62.6669ZM85.2681 59.5701L82.6014 62.6669L84.8747 64.6245L87.5414 61.5277L85.2681 59.5701ZM85.655 59.1208L85.2681 59.5701L87.5414 61.5277L87.9283 61.0784L85.655 59.1208ZM85.2858 60.6776L85.6869 61.1143L87.8964 59.0849L87.4953 58.6482L85.2858 60.6776ZM82.6192 57.7744L85.2858 60.6776L87.4953 58.6482L84.8286 55.745L82.6192 57.7744ZM83.7966 57.8244C83.4577 58.1357 82.9305 58.1133 82.6192 57.7744L84.8286 55.745C84.0191 54.8637 82.6485 54.8055 81.7672 55.615L83.7966 57.8244ZM83.8466 56.647C84.158 56.9859 84.1356 57.5131 83.7966 57.8244L81.7672 55.615C80.886 56.4244 80.8277 57.7951 81.6372 58.6764L83.8466 56.647ZM86.1122 59.1135L83.8466 56.647L81.6372 58.6764L83.9028 61.1429L86.1122 59.1135ZM83.8644 63.7544L86.1441 61.107L83.8708 59.1494L81.5911 61.7969L83.8644 63.7544Z" fill="#FCFCFC"/>
</g>
<mask id="mask4_4041_210" style="mask-type:alpha" maskUnits="userSpaceOnUse" x="72" y="24" width="24" height="24">
<path d="M96 24H72V48H96V24Z" fill="#D9D9D9"/>
</mask>
<g mask="url(#mask4_4041_210)">
<path d="M83.9988 37.1671L78.8655 42.3003C78.7043 42.4615 78.5098 42.5421 78.282 42.5421C78.0543 42.5421 77.8599 42.4615 77.6988 42.3003C77.5376 42.1392 77.457 41.9448 77.457 41.7171C77.457 41.4893 77.5376 41.2948 77.6988 41.1336L82.832 36.0003L77.6988 30.8671C77.5376 30.7059 77.457 30.5114 77.457 30.2836C77.457 30.0559 77.5376 29.8615 77.6988 29.7003C77.8599 29.5392 78.0543 29.4586 78.282 29.4586C78.5098 29.4586 78.7043 29.5392 78.8655 29.7003L83.9988 34.8336L89.132 29.7003C89.2932 29.5392 89.4877 29.4586 89.7155 29.4586C89.9432 29.4586 90.1376 29.5392 90.2988 29.7003C90.4599 29.8615 90.5405 30.0559 90.5405 30.2836C90.5405 30.5114 90.4599 30.7059 90.2988 30.8671L85.1655 36.0003L90.2988 41.1336C90.4599 41.2948 90.5405 41.4893 90.5405 41.7171C90.5405 41.9448 90.4599 42.1392 90.2988 42.3003C90.1376 42.4615 89.9432 42.5421 89.7155 42.5421C89.4877 42.5421 89.2932 42.4615 89.132 42.3003L83.9988 37.1671Z" fill="#1B1035"/>
</g>
<mask id="mask5_4041_210" style="mask-type:alpha" maskUnits="userSpaceOnUse" x="96" y="24" width="24" height="24">
<path d="M120 24H96V48H120V24Z" fill="#D9D9D9"/>
</mask>
<g mask="url(#mask5_4041_210)">
<path d="M107.999 37.1671L102.866 42.3003C102.704 42.4615 102.51 42.5421 102.282 42.5421C102.054 42.5421 101.86 42.4615 101.699 42.3003C101.538 42.1392 101.457 41.9448 101.457 41.7171C101.457 41.4893 101.538 41.2948 101.699 41.1336L106.832 36.0003L101.699 30.8671C101.538 30.7059 101.457 30.5114 101.457 30.2836C101.457 30.0559 101.538 29.8615 101.699 29.7003C101.86 29.5392 102.054 29.4586 102.282 29.4586C102.51 29.4586 102.704 29.5392 102.866 29.7003L107.999 34.8336L113.132 29.7003C113.293 29.5392 113.488 29.4586 113.716 29.4586C113.943 29.4586 114.138 29.5392 114.299 29.7003C114.46 29.8615 114.541 30.0559 114.541 30.2836C114.541 30.5114 114.46 30.7059 114.299 30.8671L109.166 36.0003L114.299 41.1336C114.46 41.2948 114.541 41.4893 114.541 41.7171C114.541 41.9448 114.46 42.1392 114.299 42.3003C114.138 42.4615 113.943 42.5421 113.716 42.5421C113.488 42.5421 113.293 42.4615 113.132 42.3003L107.999 37.1671Z" fill="#FCFCFC"/>
</g>
<path fill-rule="evenodd" clip-rule="evenodd" d="M60 72C53.3726 72 48 77.3726 48 84C48 90.6274 53.3726 96 60 96C66.6274 96 72 90.6274 72 84C72 77.3726 66.6274 72 60 72ZM61.2723 86.7757C61.5125 87.0547 61.4811 87.4756 61.2021 87.7159C60.9231 87.9561 60.5022 87.9247 60.2619 87.6457L57.5952 84.5489L57.2083 84.0996L57.6094 83.6629L60.2761 80.7597C60.5252 80.4885 60.9469 80.4706 61.2181 80.7197C61.4892 80.9688 61.5071 81.3905 61.2581 81.6617L58.9925 84.1282L61.2723 86.7757Z" fill="#FE00A0"/>
<path fill-rule="evenodd" clip-rule="evenodd" d="M84 72C77.3726 72 72 77.3726 72 84C72 90.6274 77.3726 96 84 96C90.6274 96 96 90.6274 96 84C96 77.3726 90.6274 72 84 72ZM82.7277 86.7757C82.4875 87.0547 82.5189 87.4756 82.7979 87.7159C83.0769 87.9561 83.4978 87.9247 83.7381 87.6457L86.4048 84.5489L86.7917 84.0996L86.3906 83.6629L83.7239 80.7597C83.4748 80.4885 83.0531 80.4706 82.7819 80.7197C82.5108 80.9688 82.4929 81.3905 82.7419 81.6617L85.0075 84.1282L82.7277 86.7757Z" fill="#FE00A0"/>
<mask id="mask6_4041_210" style="mask-type:luminance" maskUnits="userSpaceOnUse" x="72" y="72" width="24" height="24">
<path fill-rule="evenodd" clip-rule="evenodd" d="M84 72C77.3726 72 72 77.3726 72 84C72 90.6274 77.3726 96 84 96C90.6274 96 96 90.6274 96 84C96 77.3726 90.6274 72 84 72ZM82.7277 86.7757C82.4875 87.0547 82.5189 87.4756 82.7979 87.7159C83.0769 87.9561 83.4978 87.9247 83.7381 87.6457L86.4048 84.5489L86.7917 84.0996L86.3906 83.6629L83.7239 80.7597C83.4748 80.4885 83.0531 80.4706 82.7819 80.7197C82.5108 80.9688 82.4929 81.3905 82.7419 81.6617L85.0075 84.1282L82.7277 86.7757Z" fill="white"/>
</mask>
<g mask="url(#mask6_4041_210)">
<path d="M86.7917 84.0996L87.9283 85.0784L88.7988 84.0675L87.8964 83.0849L86.7917 84.0996ZM85.0075 84.1282L86.1441 85.107L87.0147 84.096L86.1122 83.1135L85.0075 84.1282ZM73.5 84C73.5 78.201 78.201 73.5 84 73.5V70.5C76.5442 70.5 70.5 76.5442 70.5 84H73.5ZM84 94.5C78.201 94.5 73.5 89.799 73.5 84H70.5C70.5 91.4558 76.5442 97.5 84 97.5V94.5ZM94.5 84C94.5 89.799 89.799 94.5 84 94.5V97.5C91.4558 97.5 97.5 91.4558 97.5 84H94.5ZM84 73.5C89.799 73.5 94.5 78.201 94.5 84H97.5C97.5 76.5442 91.4558 70.5 84 70.5V73.5ZM83.7767 86.5792C84.1254 86.8795 84.1647 87.4057 83.8644 87.7544L81.5911 85.7969C80.8103 86.7036 80.9123 88.0717 81.8191 88.8525L83.7767 86.5792ZM82.6014 86.6669C82.9018 86.3182 83.4279 86.2789 83.7767 86.5792L81.8191 88.8525C82.7259 89.6333 84.0939 89.5312 84.8747 88.6245L82.6014 86.6669ZM85.2681 83.5701L82.6014 86.6669L84.8747 88.6245L87.5414 85.5277L85.2681 83.5701ZM85.655 83.1208L85.2681 83.5701L87.5414 85.5277L87.9283 85.0784L85.655 83.1208ZM85.2858 84.6776L85.6869 85.1143L87.8964 83.0849L87.4953 82.6482L85.2858 84.6776ZM82.6192 81.7744L85.2858 84.6776L87.4953 82.6482L84.8286 79.745L82.6192 81.7744ZM83.7966 81.8244C83.4577 82.1357 82.9305 82.1134 82.6192 81.7744L84.8286 79.745C84.0191 78.8637 82.6485 78.8055 81.7672 79.615L83.7966 81.8244ZM83.8466 80.647C84.158 80.9859 84.1356 81.5131 83.7966 81.8244L81.7672 79.615C80.886 80.4245 80.8277 81.7951 81.6372 82.6764L83.8466 80.647ZM86.1122 83.1135L83.8466 80.647L81.6372 82.6764L83.9028 85.1429L86.1122 83.1135ZM83.8644 87.7544L86.1441 85.107L83.8708 83.1494L81.5911 85.7969L83.8644 87.7544Z" fill="#FE00A0"/>
</g>
<mask id="mask7_4041_210" style="mask-type:luminance" maskUnits="userSpaceOnUse" x="96" y="48" width="24" height="24">
<path d="M120 48H96V72H120V48Z" fill="white"/>
</mask>
<g mask="url(#mask7_4041_210)">
<path d="M117.992 60.6582C117.992 60.8415 117.88 60.9331 117.656 60.9331H102.291L105.865 64.3542C106.008 64.4764 106.018 64.6087 105.896 64.7513L104.277 66.1258C104.134 66.2684 104.002 66.2684 103.88 66.1258L97.9542 59.8335C97.7913 59.6298 97.7913 59.4466 97.9542 59.2836L103.88 52.9913C104.002 52.8284 104.134 52.8182 104.277 52.9607L105.896 54.3658C106.018 54.4676 106.008 54.5898 105.865 54.7324L102.291 58.1535H117.656C117.88 58.1535 117.992 58.2553 117.992 58.4589V60.6582Z" fill="#1B1035"/>
</g>
</g>
<mask id="mask8_4041_210" style="mask-type:alpha" maskUnits="userSpaceOnUse" x="0" y="72" width="24" height="24">
<rect y="72" width="24" height="24" fill="#D9D9D9"/>
</mask>
<g mask="url(#mask8_4041_210)">
<path d="M9.54972 87.15L18.0247 78.675C18.2247 78.475 18.4581 78.375 18.7247 78.375C18.9914 78.375 19.2247 78.475 19.4247 78.675C19.6247 78.875 19.7247 79.1125 19.7247 79.3875C19.7247 79.6625 19.6247 79.9 19.4247 80.1L10.2497 89.3C10.0497 89.5 9.81639 89.6 9.54972 89.6C9.28305 89.6 9.04972 89.5 8.84972 89.3L4.54972 85C4.34972 84.8 4.25389 84.5625 4.26222 84.2875C4.27055 84.0125 4.37472 83.775 4.57472 83.575C4.77472 83.375 5.01222 83.275 5.28722 83.275C5.56222 83.275 5.79972 83.375 5.99972 83.575L9.54972 87.15Z" fill="#FCFCFC"/>
</g>
</g>
<defs>
<clipPath id="clip0_4041_210">
<rect width="120" height="96" fill="white"/>
</clipPath>
</defs>
</svg>
