<svg width="120" height="48" viewBox="0 0 120 48" fill="none" xmlns="http://www.w3.org/2000/svg">
<g clip-path="url(#clip0_4014_6997)">
<path d="M11.5066 2.99518C11.5986 2.43686 12.4014 2.43686 12.4934 2.99518L13.6388 9.94913C13.6736 10.1606 13.8394 10.3264 14.0509 10.3612L21.0048 11.5066C21.5631 11.5986 21.5631 12.4014 21.0048 12.4934L14.0509 13.6388C13.8394 13.6736 13.6736 13.8394 13.6388 14.0509L12.4934 21.0048C12.4014 21.5631 11.5986 21.5631 11.5066 21.0048L10.3612 14.0509C10.3264 13.8394 10.1606 13.6736 9.94913 13.6388L2.99518 12.4934C2.43686 12.4014 2.43686 11.5986 2.99518 11.5066L9.94913 10.3612C10.1606 10.3264 10.3264 10.1606 10.3612 9.94913L11.5066 2.99518Z" fill="#FCFCFC"/>
<path d="M11.5066 26.9952C11.5986 26.4369 12.4014 26.4369 12.4934 26.9952L13.6388 33.9491C13.6736 34.1606 13.8394 34.3264 14.0509 34.3612L21.0048 35.5066C21.5631 35.5986 21.5631 36.4014 21.0048 36.4934L14.0509 37.6388C13.8394 37.6736 13.6736 37.8394 13.6388 38.0509L12.4934 45.0048C12.4014 45.5631 11.5986 45.5631 11.5066 45.0048L10.3612 38.0509C10.3264 37.8394 10.1606 37.6736 9.94913 37.6388L2.99518 36.4934C2.43686 36.4014 2.43686 35.5986 2.99518 35.5066L9.94913 34.3612C10.1606 34.3264 10.3264 34.1606 10.3612 33.9491L11.5066 26.9952Z" fill="#FE00A0"/>
<path d="M55.334 11L59.9791 15L64.334 11" stroke="#FCFCFC" stroke-width="2" stroke-linecap="round"/>
<path d="M55.334 39L59.9791 35L64.334 39" stroke="#FCFCFC" stroke-width="2" stroke-linecap="round"/>
<path d="M28 11.1C27.5029 11.1 27.1 11.5029 27.1 12C27.1 12.4971 27.5029 12.9 28 12.9V11.1ZM44.6364 12.6364C44.9879 12.2849 44.9879 11.7151 44.6364 11.3636L38.9088 5.63604C38.5574 5.28457 37.9875 5.28457 37.636 5.63604C37.2846 5.98751 37.2846 6.55736 37.636 6.90883L42.7272 12L37.636 17.0912C37.2846 17.4426 37.2846 18.0125 37.636 18.364C37.9875 18.7154 38.5574 18.7154 38.9088 18.364L44.6364 12.6364ZM28 12.9H44V11.1H28V12.9Z" fill="white"/>
<path d="M28 35.1C27.5029 35.1 27.1 35.5029 27.1 36C27.1 36.4971 27.5029 36.9 28 36.9V35.1ZM44.6364 36.6364C44.9879 36.2849 44.9879 35.7151 44.6364 35.3636L38.9088 29.636C38.5574 29.2846 37.9875 29.2846 37.636 29.636C37.2846 29.9875 37.2846 30.5574 37.636 30.9088L42.7272 36L37.636 41.0912C37.2846 41.4426 37.2846 42.0125 37.636 42.364C37.9875 42.7154 38.5574 42.7154 38.9088 42.364L44.6364 36.6364ZM28 36.9H44V35.1H28V36.9Z" fill="#FE00A0"/>
<mask id="mask0_4014_6997" style="mask-type:alpha" maskUnits="userSpaceOnUse" x="72" y="0" width="24" height="24">
<rect x="72" width="24" height="24" fill="#D9D9D9"/>
</mask>
<g mask="url(#mask0_4014_6997)">
<path d="M76 18C75.7167 18 75.4792 17.9042 75.2875 17.7125C75.0958 17.5208 75 17.2833 75 17C75 16.7167 75.0958 16.4792 75.2875 16.2875C75.4792 16.0958 75.7167 16 76 16H92C92.2833 16 92.5208 16.0958 92.7125 16.2875C92.9042 16.4792 93 16.7167 93 17C93 17.2833 92.9042 17.5208 92.7125 17.7125C92.5208 17.9042 92.2833 18 92 18H76ZM76 13C75.7167 13 75.4792 12.9042 75.2875 12.7125C75.0958 12.5208 75 12.2833 75 12C75 11.7167 75.0958 11.4792 75.2875 11.2875C75.4792 11.0958 75.7167 11 76 11H92C92.2833 11 92.5208 11.0958 92.7125 11.2875C92.9042 11.4792 93 11.7167 93 12C93 12.2833 92.9042 12.5208 92.7125 12.7125C92.5208 12.9042 92.2833 13 92 13H76ZM76 8C75.7167 8 75.4792 7.90417 75.2875 7.7125C75.0958 7.52083 75 7.28333 75 7C75 6.71667 75.0958 6.47917 75.2875 6.2875C75.4792 6.09583 75.7167 6 76 6H92C92.2833 6 92.5208 6.09583 92.7125 6.2875C92.9042 6.47917 93 6.71667 93 7C93 7.28333 92.9042 7.52083 92.7125 7.7125C92.5208 7.90417 92.2833 8 92 8H76Z" fill="#FCFCFC"/>
</g>
<rect x="96" width="24" height="24" rx="12" fill="#FCFCFC"/>
<path d="M105.6 7.2H103.2M103.2 7.2V9.6M103.2 7.2L106.2 10.2M110.4 7.2H112.8M112.8 7.2V9.6M112.8 7.2L109.8 10.2M105.6 16.8H103.2M103.2 16.8V14.4M103.2 16.8L106.2 13.8M110.4 16.8H112.8M112.8 16.8V14.4M112.8 16.8L109.8 13.8" stroke="#1B1035" stroke-opacity="0.8" stroke-width="1.2" stroke-linecap="round" stroke-linejoin="round"/>
</g>
<defs>
<clipPath id="clip0_4014_6997">
<rect width="120" height="48" fill="white"/>
</clipPath>
</defs>
</svg>
