<svg width="24" height="28" viewBox="0 0 24 28" fill="none" xmlns="http://www.w3.org/2000/svg">
<path d="M11.5889 2.49598C11.6655 2.03072 12.3345 2.03072 12.4111 2.49598L13.6485 10.0081C13.6775 10.1843 13.8157 10.3225 13.9919 10.3515L21.504 11.5889C21.9693 11.6655 21.9693 12.3345 21.504 12.4111L13.9919 13.6485C13.8157 13.6775 13.6775 13.8157 13.6485 13.9919L12.4111 21.504C12.3345 21.9693 11.6655 21.9693 11.5889 21.504L10.3515 13.9919C10.3225 13.8157 10.1843 13.6775 10.0081 13.6485L2.49598 12.4111C2.03072 12.3345 2.03072 11.6655 2.49598 11.5889L10.0081 10.3515C10.1843 10.3225 10.3225 10.1843 10.3515 10.0081L11.5889 2.49598Z" fill="#FE00A0"/>
</svg>
