<svg width="36" height="36" viewBox="0 0 36 36" fill="none" xmlns="http://www.w3.org/2000/svg">
<path d="M18 34.875C27.3198 34.875 34.875 27.3198 34.875 18C34.875 8.68019 27.3198 1.125 18 1.125C8.68019 1.125 1.125 8.68019 1.125 18C1.125 27.3198 8.68019 34.875 18 34.875Z" fill="#3199FF"/>
<path fill-rule="evenodd" clip-rule="evenodd" d="M9.10744 17.5576C13.9383 15.5002 17.1542 14.1331 18.7691 13.4699C23.3653 11.5884 24.3315 11.2635 24.9526 11.25C25.0906 11.25 25.3943 11.2771 25.6013 11.4395C25.767 11.5749 25.8084 11.7508 25.836 11.8862C25.8636 12.0215 25.8912 12.3058 25.8636 12.5224C25.6151 15.0941 24.5385 21.3341 23.9864 24.2037C23.7518 25.4219 23.2963 25.828 22.8546 25.8686C21.8885 25.9498 21.1569 25.2459 20.2322 24.6504C18.7691 23.7164 17.9548 23.1344 16.5331 22.2139C14.8906 21.1581 15.9534 20.5761 16.892 19.6286C17.1404 19.385 21.3778 15.595 21.4606 15.2566C21.4744 15.216 21.4744 15.0535 21.3778 14.9723C21.2812 14.8911 21.1431 14.9182 21.0327 14.9453C20.8809 14.9723 18.5621 16.4883 14.0487 19.4797C13.3862 19.9264 12.7927 20.143 12.2544 20.1294C11.6609 20.1159 10.5291 19.8046 9.67334 19.5339C8.63815 19.209 7.81001 19.033 7.87902 18.4645C7.92043 18.1667 8.3345 17.869 9.10744 17.5576Z" fill="#FCFCFC"/>
</svg>
