<svg width="40" height="40" viewBox="0 0 40 40" fill="none" xmlns="http://www.w3.org/2000/svg">
<path d="M20.0003 36.6671C29.3201 36.6671 36.8753 29.1119 36.8753 19.7921C36.8753 10.4723 29.3201 2.91707 20.0003 2.91707C10.6805 2.91707 3.12533 10.4723 3.12533 19.7921C3.12533 29.1119 10.6805 36.6671 20.0003 36.6671Z" fill="#3199FF" stroke="#FCFCFC" stroke-width="3.33333"/>
<path fill-rule="evenodd" clip-rule="evenodd" d="M11.6678 19.4001C16.0999 17.4753 19.0504 16.1964 20.532 15.5759C24.7488 13.8157 25.6352 13.5118 26.205 13.4991C26.3316 13.4991 26.6102 13.5245 26.8002 13.6764C26.9521 13.8031 26.9901 13.9677 27.0154 14.0943C27.0408 14.2209 27.0661 14.4869 27.0408 14.6895C26.8128 17.0955 25.8251 22.9331 25.3186 25.6177C25.1033 26.7574 24.6854 27.1373 24.2802 27.1752C23.3938 27.2512 22.7227 26.5927 21.8742 26.0356C20.532 25.1618 19.7848 24.6173 18.4805 23.7562C16.9736 22.7685 17.9487 22.224 18.8098 21.3376C19.0377 21.1096 22.9253 17.564 23.0013 17.2474C23.0139 17.2094 23.0139 17.0575 22.9253 16.9815C22.8366 16.9055 22.71 16.9308 22.6087 16.9562C22.4694 16.9815 20.342 18.3997 16.2012 21.1983C15.5934 21.6162 15.0488 21.8188 14.555 21.8061C14.0105 21.7935 12.9721 21.5022 12.187 21.2489C11.2373 20.945 10.4775 20.7804 10.5408 20.2486C10.5788 19.97 10.9587 19.6914 11.6678 19.4001Z" fill="#FCFCFC"/>
</svg>
