<svg width="64" height="64" viewBox="0 0 64 64" fill="none" xmlns="http://www.w3.org/2000/svg">
<g clip-path="url(#clip0_2406_3772)">
<path d="M0 30.72C0 16.2384 0 8.99768 4.49884 4.49884C8.99768 0 16.2384 0 30.72 0H33.28C47.7616 0 55.0023 0 59.5012 4.49884C64 8.99768 64 16.2384 64 30.72V33.28C64 47.7616 64 55.0023 59.5012 59.5012C55.0023 64 47.7616 64 33.28 64H30.72C16.2384 64 8.99768 64 4.49884 59.5012C0 55.0023 0 47.7616 0 33.28V30.72Z" fill="#FE00A0"/>
<path d="M33.6672 44.0002C20.9119 44.0002 13.6365 35.4917 13.3334 21.3335H19.7227C19.9326 31.7252 24.6429 36.127 28.3739 37.0345V21.3335H34.3903V30.2958C38.0747 29.9101 41.9451 25.826 43.251 21.3335H49.2674C48.2646 26.8697 44.0673 30.9538 41.0825 32.6328C44.0673 33.9942 48.8478 37.5564 50.6667 44.0002H44.044C42.6215 39.6892 39.0774 36.3539 34.3903 35.9001V44.0002H33.6672Z" fill="#FCFCFC"/>
</g>
<defs>
<clipPath id="clip0_2406_3772">
<rect width="64" height="64" rx="32" fill="white"/>
</clipPath>
</defs>
</svg>
