<svg width="36" height="36" viewBox="0 0 36 36" fill="none" xmlns="http://www.w3.org/2000/svg">
<path d="M1.125 34.875L3.50307 26.209C2.03393 23.6668 1.26224 20.7829 1.26578 17.8481C1.26966 8.62687 8.78819 1.125 18.0273 1.125C22.5108 1.12727 26.7191 2.86871 29.884 6.02984C33.0489 9.19098 34.7903 13.3928 34.7887 17.8615C34.7846 27.0821 27.2649 34.5853 18.0271 34.5853H18.0198C15.2148 34.5842 12.4586 33.8818 10.0104 32.5494L1.125 34.875Z" fill="#1AC82B"/>
<path fill-rule="evenodd" clip-rule="evenodd" d="M12.8394 9.38679C12.4521 8.54353 12.0446 8.52645 11.6767 8.51185L10.6863 8.5C10.3417 8.5 9.78184 8.62672 9.30855 9.13362C8.83526 9.64051 7.5 10.8656 7.5 13.3573C7.5 15.8491 9.35155 18.2568 9.60955 18.5951C9.86756 18.9334 13.1839 24.2098 18.4359 26.2399C22.8003 27.9269 23.6884 27.5914 24.6361 27.5071C25.5838 27.4228 27.6931 26.282 28.1234 25.0993C28.5537 23.9167 28.5539 22.9035 28.4249 22.6916C28.2959 22.4798 27.9514 22.3539 27.4342 22.1004C26.9171 21.847 24.3773 20.6219 23.9037 20.4527C23.4301 20.2836 23.0859 20.1996 22.741 20.7065C22.3962 21.2134 21.4071 22.3536 21.1056 22.6916C20.804 23.0296 20.503 23.072 19.9859 22.8189C19.4688 22.5657 17.8049 22.0307 15.8309 20.3054C14.2949 18.9629 13.2581 17.305 12.9563 16.7984C12.6544 16.2918 12.9242 16.0174 13.1834 15.7651C13.4152 15.5381 13.6999 15.1736 13.9588 14.878C14.2176 14.5824 14.3028 14.3711 14.4748 14.0337C14.6468 13.6962 14.5611 13.3998 14.4318 13.1466C14.3025 12.8934 13.2986 10.3884 12.8394 9.38679Z" fill="#FCFCFC"/>
</svg>
