<svg width="40" height="40" viewBox="0 0 40 40" fill="none" xmlns="http://www.w3.org/2000/svg">
<path d="M1.49414 38.0107L4.08435 28.5716C2.48415 25.8026 1.64362 22.6615 1.64748 19.4649C1.6517 9.42107 9.84093 1.25 19.9043 1.25C24.7877 1.25248 29.3714 3.14925 32.8186 6.59238C36.2659 10.0355 38.1625 14.6121 38.1608 19.4795C38.1563 29.5226 29.9659 37.6952 19.904 37.6952H19.8961C16.8409 37.6939 13.8388 36.9289 11.1721 35.4777L1.49414 38.0107Z" fill="#FCFCFC"/>
<path d="M19.9096 4.54924C11.5206 4.54924 4.69831 11.356 4.69533 19.7225C4.6912 22.5794 5.49725 25.3791 7.02032 27.798L7.38216 28.3722L5.84551 33.9713L11.6017 32.4649L12.1575 32.7936C14.4919 34.1764 17.1685 34.9076 19.8981 34.9091H19.9039C28.2864 34.9091 35.1087 28.1016 35.1119 19.7346C35.1182 17.7404 34.7282 15.7647 33.9643 13.9219C33.2004 12.0792 32.0778 10.406 30.6616 8.99919C29.2533 7.58469 27.5778 6.46306 25.7322 5.69923C23.8866 4.93539 21.9076 4.54452 19.9096 4.54924Z" fill="#1AC82B"/>
<path fill-rule="evenodd" clip-rule="evenodd" d="M15.331 12.0298C14.9883 11.2701 14.6277 11.2547 14.3022 11.2415L13.4258 11.2308C13.1209 11.2308 12.6255 11.345 12.2068 11.8017C11.788 12.2584 10.6064 13.3622 10.6064 15.6073C10.6064 17.8524 12.2448 20.0218 12.4731 20.3266C12.7014 20.6314 15.6359 25.3854 20.2832 27.2145C24.145 28.7345 24.9309 28.4322 25.7695 28.3562C26.6081 28.2803 28.4745 27.2524 28.8552 26.1869C29.2359 25.1213 29.2362 24.2084 29.122 24.0175C29.0079 23.8266 28.703 23.7132 28.2454 23.4848C27.7878 23.2565 25.5404 22.1527 25.1214 22.0003C24.7024 21.8479 24.3977 21.7722 24.0926 22.2289C23.7874 22.6856 22.9123 23.7129 22.6454 24.0175C22.3786 24.3221 22.1123 24.3603 21.6547 24.1322C21.1971 23.9041 19.7249 23.422 17.9781 21.8675C16.619 20.6579 15.7016 19.1642 15.4345 18.7077C15.1674 18.2513 15.4061 18.0041 15.6354 17.7767C15.8406 17.5722 16.0925 17.2438 16.3216 16.9774C16.5506 16.7111 16.6259 16.5207 16.7781 16.2167C16.9303 15.9126 16.8545 15.6455 16.7401 15.4174C16.6257 15.1893 15.7374 12.9323 15.331 12.0298Z" fill="#FCFCFC"/>
</svg>
